<svg width="94" height="65" viewBox="0 0 94 65" fill="none" xmlns="http://www.w3.org/2000/svg">
<path d="M12.9531 1.0433C19.6989 0.469871 25.6292 5.50215 26.1958 12.2808C26.7626 19.0595 21.7509 25.0153 15.0045 25.5807C8.26363 26.1457 2.34235 21.115 1.77612 14.342C1.20989 7.56906 6.21293 1.61626 12.9531 1.0433ZM14.2458 24.125C20.1831 23.9797 24.8827 19.0322 24.7508 13.0661C24.619 7.09984 19.7055 2.36693 13.7677 2.48654C7.8117 2.60651 3.08393 7.56208 3.21617 13.5465C3.34841 19.5309 8.29042 24.2708 14.2458 24.125Z" fill="#BBBBBB"/>
<path d="M43.8929 1.02147C44.0259 1.01324 44.1592 1.00913 44.2924 1.00915C49.1268 0.982519 54.2173 5.37517 54.2671 10.3793C54.3251 16.2122 46.41 17.2831 47.3219 23.3725C47.4137 23.9857 47.7243 24.984 47.7265 25.5413C47.4933 25.735 46.8772 25.5844 46.5802 25.5409C43.8399 25.462 40.4092 24.0779 38.4772 22.0904C37.0014 20.5978 36.1944 18.5655 36.2423 16.4621C36.3042 12.6191 38.8357 10.7711 41.3876 8.28972C42.8415 6.87597 44.3841 4.88195 44.3468 2.68447C44.3374 2.1259 43.8837 1.54973 43.8929 1.02147ZM44.9013 23.824C45.2095 23.8932 45.5683 23.9642 45.868 24.0513C45.6646 21.0796 45.9315 19.4559 47.9631 17.1547C49.847 15.0208 53.0792 13.2297 52.7828 9.97966C52.4547 6.3811 49.2333 3.56693 45.9565 2.6121C45.6102 4.47966 45.3909 5.54553 44.3251 7.17247C42.2013 10.4142 37.6444 12.2597 37.7007 16.6637C37.753 20.7547 41.3701 23.0006 44.9013 23.824Z" fill="#BBBBBB"/>
<path d="M42.6817 31.3133C43.4565 31.2792 44.279 31.3024 45.0562 31.2952C48.7358 31.2612 51.6345 31.0334 54.4721 33.8875C56.0942 35.5066 57.003 37.7111 56.9956 40.0085C56.9857 42.4386 55.975 44.6679 54.2616 46.3655C50.7147 49.3929 47.448 48.7075 43.0653 48.7597C42.8817 48.7619 42.5935 48.7275 42.466 48.584C42.2146 47.8718 42.3128 45.0845 42.313 44.1979L42.3148 37.4703L42.3153 33.4283C42.3153 32.995 42.278 31.9304 42.3165 31.5769C42.457 31.3569 42.4061 31.4234 42.6817 31.3133ZM44.2321 46.9784C47.223 46.9333 50.6044 47.4202 52.8621 45.0716L52.8831 45.0496C55.5271 42.3151 55.5646 37.5545 52.8156 34.8695C50.3325 32.4442 47.3528 33.1088 44.2368 33.0184L44.24 42.1412C44.2402 43.651 44.2904 45.4906 44.2321 46.9784Z" fill="#BBBBBB"/>
<path d="M80.3068 31.3072C81.31 31.2707 82.5867 31.2892 83.6114 31.2941C85.1566 31.3613 86.9784 31.1161 88.4737 31.5356C91.1832 32.2958 92.8838 35.2774 92.0789 38.0049C91.5053 39.9478 90.2558 40.826 88.5937 41.7347C89.0688 42.3836 91.8073 47.4237 91.9924 48.0911C92.0467 48.2855 92.0631 48.3634 91.9678 48.5413C91.4984 48.8885 90.7081 48.7858 90.1427 48.7441C89.8452 48.4242 89.7113 48.1678 89.5255 47.7854C89.3518 47.3273 88.7883 46.2787 88.5476 45.7953C87.9096 44.4928 87.2595 43.1962 86.5975 41.9056C85.0251 41.9135 83.4528 41.9133 81.8804 41.9049L81.8994 46.1175C81.9038 46.8002 81.9259 47.5764 81.8981 48.2518C81.8716 48.884 80.4989 48.9678 80.0788 48.5349C79.8918 48.0695 79.9644 44.5798 79.9638 43.8575L79.9613 36.249C79.9613 34.8722 79.9348 33.0236 79.9922 31.6064C79.9979 31.4656 80.1944 31.3702 80.3068 31.3072ZM89.2545 39.1405C90.631 37.532 90.7498 35.6282 89.0953 34.0482C88.7125 33.6827 88.1023 33.3742 87.5918 33.2394C85.8508 32.9939 83.6973 33.1825 81.9272 33.1348C82.01 35.0825 82.0118 38.2988 81.9373 40.2524C83.3309 40.2307 84.7402 40.2386 86.1338 40.2527C87.4364 40.2658 88.2893 40.0833 89.2545 39.1405Z" fill="#BBBBBB"/>
<path d="M9.6011 31.0399C9.83881 31.0241 10.0752 30.9818 10.2691 31.1515C10.6371 31.4738 16.9349 45.7325 17.5622 47.2497C17.6819 47.5393 17.9547 48.1029 17.9396 48.4142C17.9359 48.4906 17.9131 48.5194 17.8585 48.5667C17.5041 48.8734 16.7563 48.7727 16.319 48.7444C15.7268 47.937 14.7091 45.3747 14.2189 44.3078L10.1391 44.304C8.63324 44.3068 6.96992 44.3394 5.47613 44.2912C4.97894 45.6094 4.2552 47.0076 3.7427 48.3353C3.56547 48.7944 2.09081 49.0715 1.80484 48.4007C1.76582 47.9083 3.03204 45.3486 3.28508 44.7919L5.47817 39.8968L7.87549 34.5537C8.23557 33.7518 9.09907 31.6334 9.6011 31.0399ZM6.17247 42.7849L9.94955 42.7818L13.5335 42.7722C12.7153 40.8761 11.8855 38.9852 11.0441 37.0994C10.7034 36.3308 10.3638 35.5617 10.0302 34.7901C9.98562 34.687 9.88626 34.65 9.78891 34.6204C8.59685 37.3263 7.39576 40.0989 6.17247 42.7849Z" fill="#BBBBBB"/>
<path d="M66.9623 31.0391C67.1739 31.0246 67.4809 30.994 67.6559 31.1441C67.8877 31.3431 74.3862 45.8569 75.0805 47.5622C75.1734 47.7904 75.3079 48.0848 75.301 48.3326C75.2966 48.4958 75.2706 48.5617 75.1576 48.6744C74.7185 48.8399 74.1342 48.7873 73.6743 48.7424C73.1468 48.0157 72.0937 45.3421 71.5757 44.3115L67.5624 44.3041C66.04 44.3069 64.3419 44.3415 62.8337 44.2897C62.4657 45.4065 61.8698 46.5231 61.4335 47.6169C61.264 47.9502 61.0512 48.5358 60.699 48.6871C60.3405 48.8411 58.8718 48.8562 59.1753 48.1602C61.5664 42.6768 64.0702 37.2362 66.503 31.7698C66.618 31.5116 66.7791 31.2528 66.9623 31.0391ZM63.5661 42.8135C64.4164 42.7254 66.4424 42.7822 67.3729 42.7818L70.9086 42.7701C70.1177 40.9219 69.3104 39.0807 68.4872 37.2466C68.2826 36.7872 67.4891 34.7539 67.1537 34.6093C66.8511 35.4605 66.3343 36.4828 65.9673 37.3314C65.1852 39.1406 64.3059 40.9912 63.5661 42.8135Z" fill="#BBBBBB"/>
<path d="M29.5494 31.0289C30.2832 30.9825 30.3882 31.3661 30.6723 31.9729C31.3631 33.4483 31.9986 34.9534 32.6536 36.4452L35.0909 41.8627C35.6581 43.1462 36.2321 44.4267 36.8126 45.7042C37.1937 46.5469 37.7278 47.6483 37.9913 48.5094C37.9157 48.5454 37.8391 48.5793 37.7616 48.6109C37.3839 48.7634 36.6816 48.9022 36.3006 48.7071C35.8579 48.4805 34.4411 44.989 34.1814 44.3124L30.1016 44.3042C28.6044 44.307 26.9078 44.3429 25.426 44.2881C24.8371 45.6552 24.2683 47.0488 23.6097 48.3806C23.3366 48.9329 22.2435 48.8592 21.838 48.5885C21.7737 48.475 21.7317 48.4211 21.7348 48.2856C21.7457 47.7942 28.3841 33.2023 29.0574 31.8178C29.1959 31.5328 29.3209 31.2537 29.5494 31.0289ZM26.1363 42.7833L29.8489 42.782C31.0003 42.7795 32.3275 42.7431 33.4639 42.7794C33.1276 41.9632 30.1067 34.913 29.7802 34.5802C29.3948 35.2659 29.0901 36.0336 28.7811 36.7591C27.9267 38.7652 26.9476 40.7631 26.1363 42.7833Z" fill="#BBBBBB"/>
<path d="M57.206 10.9546C57.9379 11.6237 58.4344 12.2821 58.8309 13.2024C61.0738 18.4087 55.6932 23.2834 51.4288 25.1605L50.4314 25.4592C50.0041 24.8943 49.5948 23.7866 49.4683 23.0898C48.9787 20.3936 51.6299 18.6712 53.2883 17.0577C54.5661 15.8144 55.6216 14.5918 56.3347 12.9436C56.5905 12.3527 56.8596 11.4605 57.206 10.9546ZM51.2573 23.6424C54.4293 22.0095 58.9643 18.3744 57.5975 14.1514C57.5797 14.0966 57.527 14.0371 57.4879 13.9969C56.9515 15.0815 56.1 16.3156 55.2722 17.1899C54.7054 17.777 54.1176 18.3434 53.5101 18.8879C52.2668 20.0029 50.5544 21.2631 50.9962 23.1284C51.0496 23.3541 51.0282 23.5384 51.2573 23.6424Z" fill="#BBBBBB"/>
<path d="M74.5886 18.812C76.6411 18.5164 79.408 19.5815 80.9431 20.8315C83.1756 22.6489 85.602 23.9809 88.5117 22.9425C89.5522 22.5712 90.1251 22.0133 91.0531 21.3867C92.23 22.326 92.3482 22.4598 90.971 23.4113C89.6684 24.3118 88.4069 24.6814 86.8642 24.8838C84.844 24.934 82.9058 24.2596 81.2848 23.0772C79.7839 21.9824 78.6146 20.8875 76.7011 20.5225C73.9601 19.9998 72.3833 20.8836 70.2266 22.3194C69.8633 22.0485 68.9884 21.4446 69.5197 20.9407C70.864 19.6654 72.7869 19.0376 74.5886 18.812Z" fill="#BBBBBB"/>
<path d="M74.903 10.3092C76.397 10.037 79.1791 11.0878 80.3908 11.9618C81.1994 12.5454 81.9745 13.1739 82.8305 13.7116C84.9802 15.0623 87.5141 15.2878 89.691 13.8722C90.161 13.5659 90.5956 13.2079 91.0605 12.8882C91.4648 13.2378 91.7257 13.495 92.0947 13.8833C91.9645 14.025 91.8325 14.1647 91.6986 14.3023C90.4667 15.558 88.3448 16.3714 86.5829 16.3813C83.1805 16.4119 81.5942 14.6805 79.0357 12.9889C76.6005 11.4631 73.2631 11.5615 71.0015 13.3763C70.8657 13.4795 70.3698 13.8037 70.1967 13.7112C68.5795 12.8473 69.6136 12.3221 70.3692 11.8174C71.8992 10.7945 73.1917 10.504 74.903 10.3092Z" fill="#BBBBBB"/>
<path d="M74.082 1.9244C77.0056 1.79087 78.9279 2.18869 81.2147 4.08508C83.6532 6.10786 86.7587 7.26325 89.6526 5.43088C90.0702 5.16673 90.4972 4.77796 90.9104 4.54882C91.2414 4.36482 91.8598 5.04273 91.983 5.36653C91.9773 5.45729 91.9856 5.60077 91.9104 5.66984C90.4732 6.98858 89.1611 7.56844 87.2685 7.87522C86.362 7.88538 85.8825 7.91629 84.9842 7.77176C81.228 7.16733 79.7403 3.75843 75.9089 3.44672C73.7036 3.26736 71.9366 4.03504 70.2708 5.42606C69.8968 5.05616 69.569 4.6939 69.2158 4.30303C70.2929 3.02634 72.4584 2.14385 74.082 1.9244Z" fill="#BBBBBB"/>
<path d="M31.8844 54.9223C33.7435 54.7651 35.3765 56.1539 35.5292 58.0222C35.6819 59.8905 34.2964 61.5286 32.4367 61.6782C30.5824 61.8275 28.9579 60.4401 28.8057 58.5771C28.6534 56.7142 30.0308 55.0791 31.8844 54.9223ZM32.6682 60.8066C35.4643 59.97 34.7254 55.4849 31.8706 55.7404C31.1198 55.9944 30.6178 56.2091 30.2091 56.978C29.8751 57.6065 29.8507 58.6587 30.0847 59.3245C30.2854 59.9054 30.7131 60.3789 31.2691 60.6358C31.7789 60.8686 32.1249 60.8264 32.6682 60.8066Z" fill="#BBBBBB"/>
<path d="M22.7397 54.9595C23.1709 54.9872 23.845 54.9534 24.2943 54.9438C24.2832 55.5403 24.2005 60.7104 24.343 60.8505C24.564 61.0677 24.8978 60.9939 25.0348 61.3493C24.9505 61.6256 24.5423 61.8099 24.2682 61.8003C23.8426 61.7854 23.5625 61.5247 23.2856 61.2283C22.4848 61.6681 22.3282 61.721 21.4546 61.7026C18.1033 60.8146 20.2487 54.9456 23.4001 57.6189C23.3369 57.0937 23.4095 56.5763 23.3466 56.0587C23.3021 55.6921 23.1083 55.7487 22.8002 55.5297C22.6932 55.3337 22.7246 55.1838 22.7397 54.9595ZM20.7286 58.7428C20.7319 59.8118 20.6531 60.3395 21.6451 60.9293C21.8935 60.9426 22.1657 60.9511 22.4112 60.9716C22.6455 60.781 22.9415 60.5624 23.091 60.3029C23.7661 59.1309 23.2489 57.6345 21.7503 57.7687C21.0995 58.0147 21.0797 58.1353 20.7286 58.7428Z" fill="#BBBBBB"/>
<path d="M42.1942 54.9578C42.6865 54.9726 43.2475 54.9593 43.7455 54.9602C43.7463 56.678 43.7381 58.3972 43.733 60.115C43.7302 61.0676 43.9291 60.6978 44.418 61.2675C44.4357 62.2043 43.0163 61.6698 42.69 61.2741C42.662 61.2402 41.9602 61.6412 41.8447 61.6655C41.5708 61.7231 41.2558 61.7065 40.9695 61.7032C40.934 61.6968 40.8985 61.6896 40.8633 61.6816C39.3433 61.3462 38.8922 59.3978 39.51 58.1378C39.7866 57.5734 40.1746 57.3157 40.6832 57.0068C41.7751 56.9544 42.0317 56.918 42.8583 57.6216C42.7837 57.0828 42.8769 56.5751 42.8004 56.0439C42.7507 55.6991 42.5519 55.7392 42.2593 55.5289C42.1512 55.3344 42.1814 55.1813 42.1942 54.9578ZM40.171 58.7252C40.197 59.854 40.1099 60.2625 41.0952 60.9299L41.8822 60.9387C42.0159 60.8396 42.288 60.6483 42.3847 60.5253C43.2903 59.3739 42.8145 57.6039 41.1621 57.7719C40.5371 58.0482 40.5581 58.1888 40.171 58.7252Z" fill="#BBBBBB"/>
<path d="M85.8052 54.9434L85.8703 54.9429C86.0592 55.2276 85.8615 59.3268 85.9404 60.0036C85.9493 60.0797 85.943 60.7588 85.9518 60.7717C86.1382 61.0437 86.3542 60.851 86.6012 61.1853C86.6252 61.4081 86.6157 61.6634 86.3612 61.7146C85.8305 61.8213 85.3176 61.8025 85.116 61.2437L85.0958 61.1874C84.8103 61.0374 84.0352 62.2963 82.3902 61.4067C80.0572 59.2915 82.4281 55.4749 85.0459 57.5417C84.9903 57.0327 85.1009 56.28 84.9625 55.838C84.9208 55.7061 84.2 55.7551 84.4237 55.0452C84.6182 54.9344 85.5001 54.9525 85.8052 54.9434ZM84.0314 60.9291C85.6858 60.1883 85.31 57.5884 83.3927 57.7681C81.7768 58.4649 82.1065 61.0791 84.0314 60.9291Z" fill="#BBBBBB"/>
<path d="M51.3729 54.9389C51.947 54.934 52.2264 54.888 52.4686 55.5011C53.1394 57.1991 53.6668 58.9903 54.4388 60.6403C54.5385 60.8536 55.0316 60.7196 55.1854 60.9334C55.6946 61.9159 54.4185 61.7335 53.8556 61.7203C53.4204 61.71 53.0054 61.8494 52.7566 61.4617C52.6544 60.679 53.0859 60.9251 53.4035 60.7333C53.4011 60.575 53.0482 59.654 52.968 59.3999C52.5643 59.4241 52.0707 59.4177 51.6595 59.4228L50.4567 59.4384C50.3766 59.8701 50.1012 60.3266 50.1788 60.6886C50.7216 60.937 50.7112 61.1668 50.8156 61.7041C50.2018 61.7218 48.5215 61.9291 48.2042 61.3894C48.1861 61.1249 48.1647 61.2279 48.2779 60.9959C48.4503 60.8294 48.8019 60.7669 49.045 60.7015C49.2278 60.1937 50.8779 55.9056 50.859 55.8037C50.5615 55.699 50.3728 55.6926 50.291 55.3759C50.3289 55.2023 50.3305 55.1615 50.4455 55.0293C50.6799 54.9217 51.1003 54.9434 51.3729 54.9389ZM50.7741 58.655L51.9431 58.6482L52.7038 58.6361C52.5533 58.3099 51.8032 56.2941 51.682 56.2094C51.5386 56.6988 50.9996 58.2226 50.7741 58.655Z" fill="#BBBBBB"/>
<path d="M4.70647 54.8565C5.64349 54.7841 5.97732 55.1394 6.69594 55.3539C6.8154 55.2528 6.84604 55.1548 6.91313 55.0128C7.10347 54.9209 7.52906 54.9233 7.7602 54.911C7.77777 55.651 7.76861 56.4348 7.77208 57.1787C7.50644 57.1434 7.1914 57.143 6.91995 57.1353C6.51066 56.0914 5.96701 55.9603 4.96686 55.6932C3.90393 55.9777 3.24297 56.2831 2.8791 57.4349C2.47659 58.7089 3.01219 60.397 4.39991 60.7671C5.02588 60.9379 5.694 60.8466 6.25184 60.514C6.58558 60.3168 6.97719 60.0208 7.0758 59.6265C6.97731 59.1702 6.34862 59.2868 5.94607 59.2787C5.70948 59.2854 5.33814 59.3322 5.15638 59.212C5.04918 58.9643 5.04434 59.0458 5.08674 58.804C5.43096 58.3518 7.11282 58.5541 7.86539 58.4477C7.8566 59.5464 7.8578 60.6451 7.86892 61.7438C7.59634 61.7466 7.46336 61.7403 7.19368 61.705C6.97175 61.5368 7.16405 61.4774 7.00365 61.1381C6.84629 61.1385 5.96818 61.5989 5.58422 61.6682C2.31218 62.2589 0.780691 58.686 2.33817 56.1905C2.87397 55.332 3.72791 55.0271 4.70647 54.8565Z" fill="#BBBBBB"/>
<path d="M10.4159 57.0496C11.6656 56.6364 13.0132 57.3118 13.4365 58.5635C13.8596 59.8151 13.2004 61.1757 11.959 61.613C10.7005 62.0563 9.32377 61.3828 8.89477 60.114C8.46577 58.8452 9.14916 57.4684 10.4159 57.0496ZM10.7031 60.9424C10.9971 60.9359 11.3256 60.9442 11.6068 60.8698C11.7669 60.8018 11.9522 60.728 12.0859 60.6147C12.9831 59.8542 12.7415 58.2508 11.6289 57.8331C11.3403 57.7248 11.0571 57.751 10.7559 57.7685C9.81285 58.112 9.5402 59.0441 9.84753 59.9585C10.0228 60.48 10.2737 60.6408 10.7031 60.9424Z" fill="#BBBBBB"/>
<path d="M15.9397 57.0434C17.207 56.6478 18.553 57.3624 18.9419 58.6374C19.3307 59.9124 18.6142 61.262 17.3438 61.6477C16.0805 62.0312 14.7463 61.3161 14.3597 60.0482C13.973 58.7803 14.6795 57.4369 15.9397 57.0434ZM15.1299 59.377C15.2545 59.7298 15.3656 60.1094 15.5877 60.4069L15.6122 60.4404C15.7922 60.6825 16.0493 60.8158 16.3073 60.9671L17.0133 60.9286C17.5798 60.6781 17.7946 60.4233 18.0785 59.8682C18.0699 58.7665 18.108 58.2914 17.0171 57.754L16.3081 57.7704C15.6807 58.0657 15.5236 58.2618 15.2804 58.9342C15.2277 59.081 15.1776 59.2286 15.1299 59.377Z" fill="#BBBBBB"/>
<path d="M88.789 57.0127C89.4233 56.9745 90.1561 56.9017 90.724 57.2385C91.7373 57.8398 91.5553 59.8266 91.4896 60.8868C91.7278 60.9212 91.9369 60.9199 92.0929 61.0962C92.1795 61.3148 92.1725 61.2221 92.1258 61.4466C91.8106 61.8571 91.321 61.8948 90.9116 61.6112C90.6956 61.4619 90.6962 61.2033 90.6589 60.9591C89.856 61.688 89.1883 61.8836 88.1232 61.6036C87.3613 61.2476 87.3967 60.7238 87.3752 59.9766C88.4087 58.2852 90.3109 59.344 90.5762 58.5972C90.5256 58.3252 90.4328 58.2441 90.2748 58.0369C89.5806 57.1271 88.1308 58.5338 87.6311 57.9119C87.5648 57.3037 88.3323 57.1024 88.789 57.0127ZM88.7398 60.9645L89.6867 60.8828C90.1043 60.6643 90.8093 60.3013 90.568 59.7294C90.2401 59.4339 89.82 59.5316 89.3677 59.5548C88.4928 59.7786 87.8585 60.099 88.7398 60.9645Z" fill="#BBBBBB"/>
<path d="M77.9308 57.0073C79.658 56.8656 80.5721 57.4123 80.6731 59.2844C80.7142 60.0464 77.2562 59.0123 77.162 59.8611C77.2865 60.2322 77.8342 60.7219 78.1639 60.9442C78.8519 60.9507 79.1835 60.9326 79.7635 60.5668C79.9132 60.4175 79.9953 60.3185 80.1867 60.2273C80.4419 60.2732 80.5335 60.4248 80.7483 60.6208C79.9391 61.5119 78.9056 62.0458 77.699 61.579C77.1551 61.3674 76.7186 60.9456 76.4874 60.408C76.121 59.562 76.1961 58.3599 76.8462 57.6712C77.1804 57.3173 77.4981 57.1913 77.9308 57.0073ZM77.6737 57.9538C77.4185 58.3002 77.349 58.4465 77.1646 58.8308C77.6143 58.7544 78.2347 58.7826 78.7041 58.788L79.7432 58.7669C79.6719 58.5593 79.5891 58.2937 79.5076 58.0954C79.0989 57.8307 78.9075 57.658 78.4185 57.6934L78.3806 57.6958C78.3591 57.6979 78.337 57.6999 78.3156 57.702L77.6737 57.9538Z" fill="#BBBBBB"/>
<path d="M55.1723 56.9981C55.6752 56.9849 56.4536 56.8927 56.8964 57.0602C57.2464 57.4124 56.831 57.712 56.5605 57.9645C56.9395 58.55 57.4262 60.012 57.6538 60.7211C57.8953 59.7736 58.2941 58.9141 58.558 57.98C58.6067 57.8075 58.3082 57.7565 58.1042 57.4993C58.07 57.2607 58.0646 57.3585 58.1607 57.1098C58.4392 56.9171 59.8996 56.9469 60.1859 57.0845C60.3441 57.2772 60.3046 57.1825 60.3199 57.4515C60.1576 57.7035 59.9768 57.7252 59.6735 57.8401C59.3596 58.1613 58.9474 59.6543 58.7032 60.22C58.3557 61.0845 58.0992 62.1469 57.6605 62.9638C57.3203 63.5973 56.9647 63.7439 56.3395 63.9184C56.0163 63.815 55.0026 63.5477 55.3746 63.0403C55.6772 62.9092 56.241 62.9563 56.5985 62.9635C56.9011 62.8018 57.1454 62.0611 57.2849 61.7273C56.5693 60.5894 56.2646 59.2079 55.684 58.0031C55.4822 57.5844 55.1394 57.9915 54.8945 57.4113C54.9499 57.1699 54.9762 57.205 55.1723 56.9981Z" fill="#BBBBBB"/>
<path d="M61.1294 56.9626C61.5153 56.9573 61.8664 57.0049 62.2487 57.0477C62.4614 58.228 62.0852 59.5247 62.4921 60.6399C62.5379 60.7654 62.8607 60.8942 62.9918 60.92C64.6036 61.2245 64.4362 59.3693 64.4052 58.3289C64.3781 57.413 63.9826 57.9775 63.7167 57.5283C63.6977 57.3371 63.723 57.308 63.8209 57.1398C64.1311 56.8998 64.8405 56.9724 65.2587 56.9787L65.2486 58.452C65.2448 58.8833 65.1961 60.577 65.2953 60.8874C65.4671 60.9267 65.5726 60.9581 65.7369 61.0131C65.9801 61.2599 66.001 61.4973 65.7401 61.7283C65.162 61.9087 64.6295 61.5411 64.3332 61.3866C64.2081 61.3212 63.3509 61.8207 62.8228 61.7498C60.9303 61.5225 61.4515 59.4669 61.408 58.1379C61.3981 57.8366 60.6235 57.6831 60.7073 57.1942C60.8551 57.0204 60.9105 57.018 61.1294 56.9626Z" fill="#BBBBBB"/>
<path d="M73.1861 60.8078C73.3434 60.2718 74.2752 58.0945 74.164 57.824C73.8741 57.5932 73.8412 57.5867 73.8368 57.2231C73.8823 57.1379 73.9385 57.0079 74.0566 57.0158C74.7357 57.0611 75.8419 56.6311 76.0655 57.5023C75.8172 57.7513 75.4237 57.732 75.2575 57.9151C74.8716 58.3405 73.8185 62.962 72.7869 61.6517C72.2809 61.0086 71.7332 58.7372 71.2133 57.9209C71.0098 57.6018 70.8153 57.9874 70.5727 57.5428C70.5563 57.2856 70.5746 57.2501 70.675 57.0133C71.1229 56.9956 72.2531 56.9053 72.6068 57.0766C72.7193 57.2568 72.7066 57.3114 72.6965 57.5162C72.5702 57.7218 72.5323 57.6953 72.2929 57.8305C72.2316 58.3497 73.1103 59.8574 73.1861 60.8078Z" fill="#BBBBBB"/>
<path d="M36.386 54.9534C36.8248 54.9867 37.4203 54.9525 37.9181 54.9777C38.0061 56.5303 37.8108 59.1399 37.9867 60.7622C37.9955 60.8431 38.355 61.0062 38.5172 61.2717C38.5542 61.4501 38.5653 61.4798 38.4847 61.6401C38.3134 61.7643 38.0775 61.7294 37.8559 61.7259C37.3546 61.704 36.7171 61.8936 36.3937 61.5002C36.349 61.3037 36.335 61.2658 36.4078 61.0718C36.5362 60.9045 36.783 60.8738 36.9976 60.8189C36.9642 59.2008 37.051 57.544 36.966 55.9245C36.9592 55.7953 36.5858 55.6288 36.4491 55.5189C36.3388 55.3367 36.3726 55.1684 36.386 54.9534Z" fill="#BBBBBB"/>
<path d="M69.9561 56.9468C70.1001 56.9529 70.1064 56.9639 70.229 57.0495C70.3408 57.2572 70.2871 57.5722 70.2694 57.8187C69.9043 57.8766 69.6838 57.8836 69.3187 57.8938C68.6933 58.2569 68.6396 58.3638 68.253 58.9834C68.2599 59.5368 68.1847 60.1558 68.2909 60.6956C68.354 61.0176 68.8531 60.93 68.9737 61.3838C68.7729 61.8534 67.1367 61.7847 66.7545 61.6341C66.6547 61.4604 66.6768 61.2819 66.6743 61.0743C66.8373 60.9693 67.1247 60.8666 67.3149 60.7913C67.3016 59.9492 67.3445 59.0871 67.325 58.2423C67.3079 57.5019 67.1354 57.9815 66.7191 57.6043C66.6838 57.4885 66.6383 57.135 66.7703 57.0822C67.0919 56.9531 67.9257 56.8672 68.1298 57.1951C68.1759 57.4938 68.066 57.8491 67.9958 58.1509C68.5827 57.3401 68.9599 57.129 69.9561 56.9468Z" fill="#BBBBBB"/>
</svg>
