<svg width="80" height="80" viewBox="0 0 80 80" fill="none" xmlns="http://www.w3.org/2000/svg">
<path d="M10.7013 74.198C9.64364 75.0232 8.97878 75.4961 8.70868 75.6158C8.31096 75.8028 7.87959 75.8968 7.41459 75.8968C7.06138 75.8968 6.73489 75.8325 6.43511 75.7058C6.13533 75.5782 5.87612 75.3981 5.65846 75.1656C5.44079 74.9331 5.27062 74.6531 5.14596 74.3266C5.02229 74.0002 4.95996 73.638 4.95996 73.2403C4.95996 72.9475 4.99954 72.6774 5.0777 72.43C5.15685 72.1827 5.27458 71.9482 5.43189 71.7266C5.5892 71.505 5.79004 71.2932 6.03442 71.0904C6.2778 70.8876 6.56571 70.6887 6.89517 70.4938C7.66786 70.0357 8.93624 69.4886 10.6993 68.8505V68.4448C10.6993 67.9274 10.6558 67.496 10.5697 67.1508C10.4836 66.8055 10.3599 66.5294 10.1987 66.3236C10.0374 66.1179 9.83656 65.9714 9.59615 65.8844C9.35573 65.7983 9.08563 65.7548 8.78585 65.7548C8.54544 65.7548 8.32975 65.7904 8.1388 65.8616C7.94786 65.9328 7.78461 66.0268 7.64907 66.1426C7.51352 66.2593 7.41063 66.3939 7.33939 66.5482C7.26816 66.7026 7.23254 66.8579 7.23254 67.0152L7.2553 67.6682C7.2553 68.0135 7.16724 68.2796 6.99114 68.4676C6.81503 68.6556 6.58352 68.7486 6.29858 68.7486C6.01364 68.7486 5.794 68.6506 5.61789 68.4557C5.44178 68.2608 5.35373 67.9937 5.35373 67.6563C5.35373 67.3407 5.43783 67.03 5.60701 66.7224C5.77619 66.4147 6.01957 66.1366 6.33815 65.8893C6.65673 65.642 7.05149 65.4431 7.52045 65.2927C7.98941 65.1423 8.52367 65.0671 9.12422 65.0671C9.91967 65.0671 10.5944 65.1839 11.1504 65.4164C11.7055 65.6489 12.1072 66.0506 12.3545 66.6204C12.4901 66.9509 12.5573 67.6108 12.5573 68.6012V72.1016C12.5573 72.5972 12.5633 72.995 12.5741 73.2947C12.585 73.5945 12.5989 73.8013 12.6137 73.9141C12.6513 74.1317 12.7127 74.2782 12.7997 74.3534C12.8858 74.4286 12.9857 74.4661 13.0985 74.4661C13.1737 74.4661 13.2449 74.4553 13.3122 74.4325C13.3795 74.4098 13.4586 74.3652 13.5487 74.297C13.6387 74.2287 13.7436 74.1377 13.8643 74.0209C13.984 73.9052 14.1383 73.7528 14.3253 73.5648V74.1951C13.4774 75.321 12.6741 75.8839 11.9162 75.8839C11.5561 75.8839 11.2632 75.7563 11.0386 75.501C10.8131 75.2458 10.7013 74.8104 10.7013 74.1951V74.198ZM10.7013 73.4669V69.5381C10.1314 69.7637 9.66342 69.9546 9.29934 70.1119C8.93525 70.2692 8.67109 70.3969 8.50586 70.4948C7.91323 70.8322 7.48879 71.1795 7.23353 71.5356C6.97827 71.8918 6.85065 72.2846 6.85065 72.712C6.85065 72.9821 6.89418 73.2314 6.98025 73.4609C7.06633 73.6895 7.18307 73.8884 7.3295 74.0575C7.47593 74.2267 7.6461 74.3573 7.84199 74.4513C8.0369 74.5453 8.23972 74.5918 8.44947 74.5918C9.01934 74.5918 9.77028 74.2168 10.7003 73.4659L10.7013 73.4669Z" fill="#BBBBBB"/>
<path d="M23.8491 71.7671C23.7066 72.4498 23.4929 73.0543 23.207 73.5796C22.922 74.105 22.5876 74.5472 22.2057 74.9074C21.8228 75.2675 21.4023 75.5396 20.9453 75.7236C20.4872 75.9076 20.0143 75.9996 19.5265 75.9996C18.9487 75.9996 18.3966 75.872 17.8723 75.6168C17.3469 75.3615 16.8839 74.9974 16.4822 74.5245C16.0805 74.0516 15.76 73.4797 15.5196 72.8079C15.2791 72.1361 15.1594 71.3803 15.1594 70.5403C15.1594 69.7003 15.291 68.989 15.5532 68.3172C15.8154 67.6454 16.1706 67.0696 16.6168 66.5897C17.063 66.1099 17.5854 65.7359 18.181 65.4698C18.7775 65.2036 19.4098 65.0701 20.0776 65.0701C20.5802 65.0701 21.0432 65.1453 21.4676 65.2956C21.8911 65.446 22.2572 65.6409 22.5649 65.8814C22.8725 66.1218 23.114 66.3879 23.291 66.6808C23.4672 66.9736 23.5552 67.2625 23.5552 67.5475C23.5552 67.8324 23.4652 68.0639 23.2851 68.24C23.105 68.4161 22.8458 68.5042 22.5085 68.5042C22.3353 68.5042 22.176 68.4854 22.0306 68.4478C21.8842 68.4102 21.7565 68.3429 21.6477 68.245C21.5389 68.148 21.4508 68.0125 21.3835 67.8393C21.3163 67.6672 21.2708 67.4455 21.248 67.1754C21.2104 66.7332 21.062 66.3968 20.8038 66.1683C20.5446 65.9397 20.1795 65.825 19.7066 65.825C19.2633 65.825 18.8735 65.9249 18.5361 66.1237C18.1988 66.3226 17.9128 66.5927 17.6803 66.934C17.4478 67.2754 17.2727 67.6731 17.157 68.1272C17.0402 68.5813 16.9828 69.0632 16.9828 69.5737C16.9828 70.1742 17.06 70.754 17.2134 71.313C17.3667 71.872 17.5883 72.3696 17.8772 72.805C18.1661 73.2403 18.5173 73.5895 18.9299 73.8517C19.3425 74.1149 19.8114 74.2455 20.3368 74.2455C20.6524 74.2455 20.9522 74.2059 21.2371 74.1277C21.5221 74.0486 21.7961 73.9121 22.0593 73.7172C22.3215 73.5223 22.5747 73.2541 22.8191 72.9128C23.0625 72.5715 23.297 72.1381 23.5226 71.6128L23.8491 71.7701V71.7671Z" fill="#BBBBBB"/>
<path d="M28.3169 61.9851V65.3737H30.726V66.1612H28.3169V72.8474C28.3169 73.1848 28.3436 73.4648 28.3961 73.6864C28.4485 73.908 28.5197 74.0821 28.6098 74.2098C28.6998 74.3374 28.8066 74.4254 28.9303 74.4739C29.054 74.5224 29.1905 74.5471 29.3409 74.5471C29.5883 74.5471 29.8287 74.47 30.0612 74.3166C30.2937 74.1633 30.4737 73.9357 30.6014 73.6359H31.0406C30.9051 74.004 30.7419 74.3265 30.5509 74.6035C30.36 74.8815 30.1512 75.1121 29.9266 75.2961C29.701 75.4801 29.4616 75.6186 29.2064 75.7126C28.9511 75.8066 28.6958 75.8531 28.4406 75.8531C28.2674 75.8531 28.0933 75.8284 27.9172 75.7799C27.7411 75.7314 27.5759 75.6602 27.4215 75.5662C27.2682 75.4722 27.1267 75.3574 26.9991 75.2229C26.8714 75.0873 26.7705 74.93 26.6953 74.75C26.538 74.3898 26.4589 73.8387 26.4589 73.0957V66.1622H24.8264V65.7912C25.239 65.626 25.6614 65.347 26.0928 64.9522C26.5242 64.5585 26.909 64.0915 27.2464 63.5503C27.3285 63.4078 27.4324 63.207 27.5561 62.9478C27.6798 62.6885 27.8163 62.368 27.9667 61.9851H28.3159H28.3169Z" fill="#BBBBBB"/>
<path d="M35.2852 65.07V73.355C35.2852 73.6855 35.296 73.9536 35.3188 74.1594C35.3416 74.3662 35.3752 74.5324 35.4197 74.66C35.4652 74.7876 35.5226 74.8836 35.5938 74.9469C35.6651 75.0112 35.7462 75.0686 35.8362 75.121C36.0312 75.2259 36.3685 75.2784 36.8494 75.2784V75.684H31.8402V75.2784C32.0954 75.2784 32.3032 75.2675 32.4645 75.2447C32.6257 75.222 32.7573 75.1844 32.8582 75.1319C32.9592 75.0795 33.0383 75.0142 33.0947 74.935C33.1511 74.8559 33.2055 74.7609 33.2579 74.6481C33.3628 74.4156 33.4153 73.9843 33.4153 73.354V69.3807C33.4153 68.7277 33.4044 68.2143 33.3816 67.8383C33.3589 67.4633 33.3193 67.1814 33.2629 66.9944C33.2065 66.8064 33.1244 66.6887 33.0156 66.6402C32.9067 66.5917 32.7692 66.567 32.605 66.567C32.3952 66.567 32.14 66.6234 31.8392 66.7361L31.6819 66.3305L34.7885 65.07H35.2842H35.2852ZM34.3502 59.678C34.5075 59.678 34.6559 59.7077 34.7944 59.768C34.933 59.8284 35.0537 59.9085 35.1546 60.0104C35.2555 60.1113 35.3366 60.232 35.397 60.3705C35.4573 60.509 35.487 60.6575 35.487 60.8148C35.487 60.9721 35.4573 61.1205 35.397 61.259C35.3366 61.3975 35.2565 61.5202 35.1546 61.6251C35.0537 61.7299 34.933 61.813 34.7944 61.8724C34.6559 61.9328 34.5075 61.9624 34.3502 61.9624C34.1929 61.9624 34.0445 61.9328 33.906 61.8724C33.7675 61.812 33.6448 61.7299 33.5399 61.6251C33.435 61.5202 33.3519 61.3985 33.2926 61.259C33.2322 61.1205 33.2025 60.9721 33.2025 60.8148C33.2025 60.6575 33.2322 60.509 33.2926 60.3705C33.3529 60.232 33.4331 60.1113 33.535 60.0104C33.6359 59.9095 33.7586 59.8284 33.901 59.768C34.0435 59.7077 34.1939 59.678 34.3512 59.678H34.3502Z" fill="#BBBBBB"/>
<path d="M44.7959 65.0701V68.5823H44.4248C44.2824 68.0273 44.1211 67.5672 43.941 67.2031C43.761 66.8391 43.5562 66.5482 43.3276 66.3305C43.0991 66.1129 42.8438 65.9595 42.5619 65.8685C42.2799 65.7785 41.9673 65.7329 41.622 65.7329C41.3588 65.7329 41.1213 65.7725 40.9076 65.8517C40.6939 65.9308 40.5099 66.0317 40.3556 66.1554C40.2022 66.2791 40.0815 66.4216 39.9954 66.5828C39.9094 66.7441 39.8658 66.9073 39.8658 67.0726C39.8658 67.2823 39.8955 67.4782 39.9559 67.6583C40.0162 67.8383 40.1419 68.0243 40.3328 68.2153C40.5238 68.4062 40.7978 68.611 41.154 68.8287C41.5102 69.0463 41.989 69.3016 42.5896 69.5945C43.1446 69.8646 43.6116 70.1307 43.9905 70.3939C44.3694 70.657 44.6771 70.9192 44.9136 71.1814C45.1501 71.4446 45.3192 71.7157 45.4202 71.9976C45.5211 72.2786 45.5725 72.5695 45.5725 72.8703C45.5725 73.3432 45.4726 73.7726 45.2737 74.1594C45.0749 74.5463 44.8137 74.8737 44.4911 75.1448C44.1686 75.4149 43.8006 75.6247 43.388 75.775C42.9754 75.9254 42.5549 76.0006 42.1275 76.0006C41.8119 76.0006 41.4745 75.9739 41.1144 75.9215C40.7543 75.869 40.3714 75.782 39.9667 75.6623C39.8391 75.6247 39.7263 75.597 39.6294 75.5782C39.5314 75.5594 39.4414 75.5505 39.3593 75.5505C39.1941 75.5505 39.0595 75.6484 38.9536 75.8433H38.5826V72.1629H38.9536C39.0585 72.6882 39.2158 73.1493 39.4266 73.547C39.6363 73.9447 39.8827 74.2752 40.1636 74.5373C40.4446 74.8005 40.7563 74.9984 41.0976 75.1339C41.4389 75.2695 41.7902 75.3368 42.1503 75.3368C42.4055 75.3368 42.64 75.2952 42.8537 75.2131C43.0674 75.131 43.2534 75.0202 43.4107 74.8807C43.5681 74.7421 43.6907 74.5789 43.7768 74.3909C43.8629 74.2039 43.9064 74.0011 43.9064 73.7834C43.9064 73.5282 43.8688 73.2977 43.7936 73.0909C43.7184 72.8851 43.5799 72.6843 43.3771 72.4884C43.1743 72.2935 42.8963 72.0887 42.5441 71.875C42.1909 71.6613 41.7377 71.4159 41.1817 71.1379C40.6257 70.8678 40.1775 70.6165 39.8362 70.384C39.4948 70.1515 39.2267 69.917 39.0318 69.6805C38.8369 69.4441 38.7053 69.1967 38.638 68.9375C38.5707 68.6783 38.5371 68.3845 38.5371 68.054C38.5371 67.6335 38.6143 67.2417 38.7676 66.8776C38.921 66.5136 39.1367 66.1989 39.4147 65.9318C39.6927 65.6657 40.0222 65.4549 40.405 65.3016C40.7879 65.1482 41.2084 65.0711 41.6655 65.0711C41.808 65.0711 41.992 65.0938 42.2166 65.1383C42.4412 65.1829 42.6687 65.2323 42.8973 65.2848C43.1258 65.3372 43.3346 65.3857 43.5216 65.4312C43.7085 65.4767 43.8372 65.4985 43.9044 65.4985C44.0242 65.4985 44.1181 65.4727 44.1864 65.4193C44.2537 65.3669 44.3328 65.2501 44.4229 65.0701H44.7939H44.7959Z" fill="#BBBBBB"/>
<path d="M56.1431 65.3738V71.6207C56.1431 72.8287 56.1688 73.5608 56.2223 73.8161C56.2826 74.0793 56.3746 74.2623 56.4983 74.3672C56.622 74.4721 56.7664 74.5245 56.9317 74.5245C57.1572 74.5245 57.4194 74.4612 57.7192 74.3335L57.8765 74.7273L54.7926 75.9996H54.2861V73.8161C53.3927 74.7768 52.7179 75.3803 52.2599 75.6286C51.7948 75.876 51.3031 75.9996 50.7857 75.9996C50.2079 75.9996 49.7093 75.8364 49.2888 75.5099C48.8683 75.1834 48.5725 74.7501 48.3993 74.2099C48.2341 73.6924 48.152 72.9494 48.152 71.9808V67.3773C48.152 67.0399 48.1243 66.7659 48.0679 66.5551C48.0115 66.3454 47.9195 66.1841 47.7919 66.0713C47.6642 65.9585 47.497 65.8833 47.2912 65.8457C47.0845 65.8081 46.8351 65.7893 46.5423 65.7893H46.4067V65.3728H50.0199V72.2727C50.0199 72.7684 50.0664 73.1691 50.1604 73.4767C50.2544 73.7844 50.38 74.0229 50.5374 74.1911C50.6947 74.3602 50.8767 74.4721 51.0835 74.5284C51.2903 74.5848 51.506 74.6125 51.7305 74.6125C51.8879 74.6125 52.059 74.5898 52.243 74.5453C52.4271 74.4998 52.622 74.4216 52.8287 74.3088C53.0345 74.196 53.2581 74.0466 53.4985 73.8586C53.739 73.6707 54.0011 73.4352 54.2861 73.1493V67.307C54.2861 67.0142 54.2633 66.7728 54.2188 66.5808C54.1733 66.3899 54.0892 66.2356 53.9655 66.1198C53.8419 66.004 53.6727 65.9209 53.459 65.8725C53.2453 65.824 52.9692 65.7953 52.6319 65.7884V65.3718H56.1441L56.1431 65.3738Z" fill="#BBBBBB"/>
<path d="M61.6468 65.0701V67.3892C62.5175 65.8438 63.4029 65.0701 64.3033 65.0701C64.5061 65.0701 64.6931 65.1037 64.8662 65.171C65.0384 65.2383 65.1907 65.3303 65.3223 65.447C65.4539 65.5638 65.5548 65.6963 65.626 65.8467C65.6973 65.9971 65.7329 66.1544 65.7329 66.3196C65.7329 66.6125 65.635 66.8598 65.44 67.0627C65.2451 67.2655 65.0126 67.3664 64.7425 67.3664C64.6149 67.3664 64.4724 67.3248 64.3151 67.2427C64.1578 67.1606 64.0015 67.0726 63.8482 66.9786C63.6938 66.8846 63.5533 66.7965 63.4257 66.7144C63.2981 66.6323 63.2001 66.5907 63.1328 66.5907C63.0349 66.5907 62.9261 66.6343 62.8063 66.7203C62.6866 66.8064 62.562 66.9271 62.4353 67.0805C62.3077 67.2348 62.1761 67.4178 62.0416 67.6325C61.907 67.8472 61.7754 68.0807 61.6478 68.336V73.2779C61.6478 73.5856 61.6666 73.8636 61.7042 74.1109C61.7418 74.3583 61.8219 74.569 61.9466 74.7412C62.0703 74.9143 62.2523 75.0469 62.4927 75.1409C62.7331 75.2349 63.0517 75.2814 63.4494 75.2814V75.687H58.1702V75.2814C58.5006 75.2814 58.7707 75.2586 58.9805 75.2141C59.1902 75.1686 59.3554 75.0785 59.4761 74.944C59.5958 74.8084 59.679 74.6155 59.7235 74.3642C59.769 74.1129 59.7908 73.7805 59.7908 73.3679V69.3719C59.7908 68.1559 59.764 67.4436 59.7116 67.2328C59.6137 66.7906 59.3624 66.569 58.9577 66.569C58.7252 66.569 58.462 66.6254 58.1702 66.7382L58.0574 66.3325L61.1749 65.072H61.6478L61.6468 65.0701Z" fill="#BBBBBB"/>
<path d="M68.0402 69.257C68.0402 70.0227 68.1411 70.7094 68.3439 71.3168C68.5468 71.9243 68.8208 72.4408 69.1661 72.8642C69.5114 73.2886 69.9111 73.6112 70.3652 73.8318C70.8193 74.0534 71.2972 74.1642 71.8008 74.1642C72.4765 74.1642 73.0632 73.9782 73.5619 73.6072C74.0605 73.2362 74.479 72.6 74.8174 71.6997L75.1666 71.9253C75.0835 72.4279 74.9262 72.9236 74.6937 73.4113C74.4612 73.8991 74.1624 74.3344 73.7993 74.7173C73.4352 75.1002 73.0118 75.4099 72.527 75.6463C72.0432 75.8828 71.5159 76.0005 70.946 76.0005C70.3306 76.0005 69.7508 75.8749 69.2067 75.6236C68.6625 75.3723 68.1856 75.0161 67.777 74.5541C67.3674 74.092 67.0429 73.534 66.8035 72.8771C66.5631 72.2201 66.4434 71.483 66.4434 70.6648C66.4434 69.7714 66.5651 68.978 66.8094 68.2844C67.0528 67.5909 67.3892 67.0032 67.8166 66.5233C68.244 66.0435 68.7486 65.6794 69.3303 65.4311C69.9121 65.1837 70.5364 65.0601 71.2042 65.0601C71.7741 65.0601 72.3014 65.16 72.7862 65.3589C73.27 65.5577 73.6885 65.8407 74.0417 66.2087C74.3939 66.5768 74.67 67.017 74.8688 67.5315C75.0677 68.046 75.1666 68.6218 75.1666 69.2589H68.0412L68.0402 69.257ZM68.0402 68.604H72.8129C72.7832 67.9441 72.7041 67.4781 72.5765 67.208C72.3885 66.7875 72.1095 66.458 71.7375 66.2176C71.3665 65.9772 70.9776 65.8575 70.572 65.8575C70.2643 65.8575 69.9675 65.9198 69.6826 66.0435C69.3976 66.1672 69.1384 66.3472 68.9059 66.5837C68.6734 66.8201 68.4795 67.1071 68.3261 67.4444C68.1718 67.7818 68.0768 68.1687 68.0392 68.604H68.0402Z" fill="#BBBBBB"/>
<path d="M32.0529 11.0994C31.9045 9.67673 30.931 8.39847 29.5181 8.04922C27.4118 7.53178 29.4766 5.73311 30.272 5.19786C27.4939 5.93593 24.1291 9.00396 24.4427 11.8148C24.5218 12.5311 24.7603 13.2078 25.1728 13.843C25.6279 14.4218 26.1513 14.8482 26.7717 15.1113C27.3781 15.3725 28.0133 15.4556 28.6742 15.3864C30.833 15.1618 32.2646 13.1801 32.0519 11.0994H32.0529ZM29.1501 20.3718C32.7217 18.8878 36.0935 19.4191 39.6246 21.1693C43.0389 22.8967 42.8746 20.4945 42.8746 17.7223C42.8746 10.6641 42.0218 1.59062 32.2191 4.30248C36.0025 1.58567 41.4163 1.64503 44.4873 3.31014C45.9763 4.10955 47.1339 5.24139 47.9887 6.7017C48.8425 8.17685 49.449 9.91418 49.8081 11.9404C50.1524 13.9538 50.3315 16.1858 50.3187 18.6394V31.2875C50.3187 33.3642 50.3681 36.0138 52.2212 37.3761C55.2556 39.6071 57.2264 35.5359 58.2128 33.6106C57.542 36.6756 56.5863 39.3776 53.7231 40.92C50.29 42.7019 45.4223 41.8115 43.6038 38.1765C43.1348 37.2396 42.8756 36.0118 42.8736 34.5238C42.8667 31.2024 43.1556 28.5747 42.1138 26.2279C40.2756 22.0824 35.4346 19.985 31.1269 21.2039C27.1001 22.3436 24.1825 26.6177 26.7222 30.5861C28.0747 32.6974 30.6371 34.0855 33.4647 35.3845C34.0267 35.6427 34.5996 35.898 35.1754 36.1542C36.8029 36.8795 38.4541 37.6165 39.9609 38.4803C43.8967 40.738 46.4176 43.7506 45.3708 48.4402C43.1754 42.8543 36.0846 41.8866 31.2258 39.8743C27.48 38.3229 24.0133 35.9386 22.8914 32.3303C21.3301 27.3083 24.4249 22.3377 29.1501 20.3738V20.3718Z" fill="#BBBBBB"/>
<path fill-rule="evenodd" clip-rule="evenodd" d="M41.347 45.382C43.8847 49.3484 41.0462 53.9242 37.0225 55.064C32.0271 56.4768 27.8184 53.8767 25.0363 49.8183C24.5505 49.1406 24.1092 48.3501 23.7016 47.4508C23.5839 47.1886 23.4632 46.8997 23.3395 46.5851H21.7446L21.9049 56.4224H22.6746C23.2732 55.5171 23.8233 54.8671 24.315 54.4605C24.8146 54.0538 25.3133 53.854 25.8347 53.854C26.3561 53.854 27.204 54.1686 28.4456 54.7949C30.8726 55.9979 33.3153 56.7835 35.765 56.6727C38.4076 56.5549 41.4845 55.2589 42.9795 52.9982C44.8603 50.1547 44.3003 46.3664 40.7643 44.5964C40.976 44.8477 41.1719 45.1079 41.347 45.382Z" fill="#BBBBBB"/>
</svg>
