<svg width="120" height="40" viewBox="0 0 120 40" fill="none" xmlns="http://www.w3.org/2000/svg">
<path d="M57.4131 14.8136C57.242 15.8353 56.7431 16.6441 55.9164 17.2117C56.7574 17.8786 57.0995 18.8009 56.9284 20.0212C56.7859 21.0854 56.3155 21.9367 55.4888 22.5895C54.6764 23.2422 53.5504 23.5543 52.1108 23.5543H47.0508L49.2601 11.1812H53.9495C55.0755 11.1812 55.9735 11.5217 56.6434 12.2028C57.3133 12.8839 57.5698 13.7494 57.4131 14.8136ZM53.6359 20.5746C53.8924 20.3617 54.0635 20.0637 54.1205 19.7232C54.1775 19.3685 54.1205 19.0847 53.9352 18.8718C53.7499 18.659 53.4648 18.5455 53.08 18.5455H50.7994L50.3718 20.9151H52.6524C53.0372 20.9151 53.3651 20.8016 53.6359 20.5887V20.5746ZM53.5504 13.8346H51.6261L51.227 16.0197H53.1655C53.5219 16.0197 53.8212 15.9204 54.0635 15.7218C54.3201 15.5231 54.4626 15.2535 54.5196 14.9272C54.5766 14.615 54.5196 14.3596 54.3628 14.1467C54.1918 13.9339 53.921 13.8346 53.5504 13.8346Z" fill="#BBBBBB"/>
<path d="M67.1339 13.9055H62.245L61.8744 15.9771H66.3358L65.8654 18.6306H61.4183L61.0192 20.8441H65.9937L65.5091 23.5685H57.7124L59.9074 11.1953H67.6186L67.1482 13.9197L67.1339 13.9055Z" fill="#BBBBBB"/>
<path d="M79.0641 11.1812L73.8331 18.1624L72.8781 23.5543H70.0416L70.9966 18.134L68.2314 11.1812H71.3102L72.764 15.3528L75.6718 11.1812H79.0641Z" fill="#BBBBBB"/>
<path d="M83.0122 23.7956C81.2163 23.7956 79.7909 23.1429 78.7219 21.8516C77.6671 20.5604 77.2966 18.9995 77.6244 17.1833C77.938 15.3387 78.7932 13.8488 80.1758 12.6852C81.5583 11.5217 83.2117 10.9399 85.136 10.9399C87.0602 10.9399 88.3287 11.5927 89.3835 12.8839C90.4383 14.1751 90.8089 15.736 90.4953 17.5522C90.1532 19.3968 89.3122 20.8867 87.9297 22.0645C86.5613 23.228 84.9079 23.8098 82.9979 23.8098L83.0122 23.7956ZM83.3115 21.0428C84.352 21.0428 85.2928 20.7023 86.1337 20.0212C86.9747 19.3401 87.4735 18.4603 87.6588 17.3678C87.8441 16.2894 87.6588 15.3954 87.1029 14.7143C86.5471 14.0332 85.7489 13.6927 84.7226 13.6927C83.6964 13.6927 82.7699 14.0332 81.9717 14.7143C81.1735 15.3954 80.6746 16.2752 80.4751 17.3678C80.2898 18.4603 80.4608 19.3543 80.9882 20.0212C81.5298 20.7023 82.2995 21.0428 83.3115 21.0428Z" fill="#BBBBBB"/>
<path d="M91.0371 23.5543L93.2464 11.1812H95.3702L98.9335 18.134L100.145 11.1812H102.967L100.801 23.5543H98.677L95.1279 16.6157L93.8735 23.5543H91.0514H91.0371Z" fill="#BBBBBB"/>
<path d="M110.108 11.1812C111.733 11.1812 113.059 11.8055 114.042 13.0542C115.04 14.3028 115.368 15.7927 115.068 17.538C114.755 19.2975 113.942 20.7306 112.617 21.8658C111.291 22.9868 109.738 23.5543 107.927 23.5543H102.939L105.134 11.1812H110.108ZM112.303 17.2826C112.489 16.2326 112.346 15.4096 111.847 14.8136C111.348 14.2177 110.607 13.9197 109.609 13.9197H107.486L106.246 20.8442H108.213C109.267 20.8442 110.165 20.5178 110.906 19.8793C111.648 19.2266 112.118 18.3752 112.303 17.2968V17.2826Z" fill="#BBBBBB"/>
<path d="M57.5841 26.1653L57.1138 28.8897H53.921L52.2106 38.5385H49.3884L51.0988 28.8897H47.906L48.3764 26.1653H57.5984H57.5841Z" fill="#BBBBBB"/>
<path d="M63.8413 38.5243L63.5277 36.5804H58.7528L57.755 38.5243H54.6763L61.0191 26.1511H64.7107L66.7632 38.5243H63.8413ZM60.1068 33.9411H63.0858L62.5014 29.2586L60.1068 33.9411Z" fill="#BBBBBB"/>
<path d="M78.1804 29.7836C78.0094 30.8053 77.5105 31.6141 76.6838 32.1816C77.5247 32.8485 77.8668 33.7708 77.6958 34.9911C77.5532 36.0553 77.0829 36.9067 76.2562 37.5594C75.4437 38.2121 74.3177 38.5243 72.8781 38.5243H67.8181L70.0274 26.1511H74.7168C75.8428 26.1511 76.7408 26.4917 77.4107 27.1728C78.0806 27.8539 78.3372 28.7194 78.1804 29.7836ZM74.4032 35.5587C74.6598 35.3459 74.8308 35.0479 74.8878 34.7073C74.9449 34.3526 74.8878 34.0688 74.7025 33.856C74.5172 33.6431 74.2322 33.5296 73.8473 33.5296H71.5668L71.1392 35.8993H73.4197C73.8046 35.8993 74.1324 35.7857 74.4032 35.5729V35.5587ZM74.3177 28.8045H72.3935L71.9944 30.9897H73.9329C74.2892 30.9897 74.5885 30.8904 74.8308 30.6917C75.0874 30.4931 75.2299 30.2235 75.2869 29.8971C75.344 29.585 75.2869 29.3296 75.1301 29.1167C74.9591 28.9039 74.6883 28.8045 74.3177 28.8045Z" fill="#BBBBBB"/>
<path d="M81.7865 35.8141H86.2194L85.749 38.5385H78.4797L78.9644 35.7999L80.6748 26.1653H83.5112L81.8008 35.8141H81.7865Z" fill="#BBBBBB"/>
<path d="M96.4247 28.8755H91.5358L91.1652 30.9471H95.6265L95.1562 33.6005H90.7091L90.31 35.8141H95.2844L94.7998 38.5385H87.0032L89.1982 26.1653H96.9093L96.439 28.8897L96.4247 28.8755Z" fill="#BBBBBB"/>
<path d="M106.93 26.1653L106.459 28.8897H103.266L101.556 38.5385H98.7338L100.444 28.8897H97.2515L97.7218 26.1653H106.944H106.93Z" fill="#BBBBBB"/>
<path d="M110.137 38.7797C108.84 38.7797 107.785 38.5101 106.972 37.9567C106.16 37.4033 105.647 36.6654 105.419 35.7147L107.999 34.3951C108.312 35.5019 109.096 36.0553 110.379 36.0553C111.662 36.0553 112.075 35.7147 112.203 35.0195C112.275 34.6647 112.161 34.3809 111.847 34.1823C111.533 33.9694 110.978 33.7424 110.194 33.4728C109.025 33.0897 108.141 32.5931 107.571 31.9829C107.001 31.3728 106.801 30.5214 107.001 29.4288C107.186 28.2795 107.714 27.3997 108.597 26.818C109.467 26.2362 110.493 25.9382 111.633 25.9382C112.773 25.9382 113.529 26.1795 114.284 26.6619C115.04 27.1443 115.581 27.8396 115.895 28.7335L113.415 30.039C112.973 29.1167 112.303 28.6626 111.391 28.6626C110.479 28.6626 110.621 28.7477 110.379 28.9322C110.122 29.1167 109.966 29.3295 109.909 29.5991C109.837 29.9397 109.951 30.2234 110.251 30.4363C110.55 30.6491 111.077 30.9045 111.819 31.1741C112.047 31.2593 112.232 31.316 112.374 31.3728C112.517 31.4295 112.702 31.5005 112.916 31.5856C113.13 31.6708 113.301 31.7559 113.443 31.8268C113.586 31.912 113.743 31.9971 113.914 32.1106C114.099 32.2241 114.242 32.3377 114.356 32.4512C114.47 32.5647 114.584 32.7066 114.712 32.8485C114.826 32.9904 114.926 33.1607 114.997 33.3309C115.054 33.5012 115.111 33.6857 115.168 33.8701C115.211 34.0688 115.239 34.2816 115.225 34.5086C115.225 34.7499 115.182 35.0053 115.14 35.2749C114.94 36.41 114.384 37.2756 113.5 37.8857C112.602 38.4959 111.491 38.7939 110.137 38.7939V38.7797Z" fill="#BBBBBB"/>
<path d="M35.4056 12.2739C34.9067 15.3814 33.3958 17.8078 30.8872 19.5531C33.4386 21.5538 34.4506 24.3917 33.9517 28.0667C33.5241 31.2735 32.0703 33.8702 29.5902 35.8283C27.1101 37.8007 23.7035 38.7797 19.3704 38.7797H4.03369L10.7043 1.29126H24.915C28.3216 1.29126 31.044 2.3129 33.0965 4.37037C35.1348 6.42783 35.9187 9.05288 35.4056 12.2739ZM23.96 29.7553C24.7725 29.0884 25.2571 28.2228 25.4424 27.1586C25.6134 26.0802 25.4424 25.2146 24.8723 24.5619C24.3164 23.895 23.4469 23.5687 22.2639 23.5687H15.3224L14.0396 30.7485H20.9668C22.1499 30.7485 23.1476 30.4222 23.96 29.7553ZM23.732 9.32248H17.8738L16.6908 15.9631H22.5632C23.6322 15.9631 24.5444 15.6652 25.2999 15.055C26.0553 14.4449 26.5257 13.6503 26.6967 12.6428C26.882 11.7205 26.711 10.9259 26.2121 10.2874C25.7132 9.64883 24.8865 9.32248 23.732 9.32248Z" fill="#BBBBBB"/>
<path d="M31.4431 1.2771C32.4694 1.8163 33.3673 2.4832 34.1798 3.292C35.8902 5.0373 36.8737 7.13733 37.0447 9.53535H38.4843L35.5766 25.8674L34.4934 31.8553L33.2818 38.7798H41.8482L47.0507 9.53535H56.7288L58.1684 1.2771H31.4431Z" fill="#BBBBBB"/>
</svg>
