<svg width="92" height="59" viewBox="0 0 92 59" fill="none" xmlns="http://www.w3.org/2000/svg">
<path d="M86.5283 58.46L84.9666 53.707H85.7338L86.9085 57.3668H86.7048L87.8523 53.707H88.3955L89.543 57.3668H89.3393L90.514 53.707H91.2813L89.7196 58.46H89.1764L88.0221 54.807H88.2258L87.0715 58.46H86.5283Z" fill="#BBBBBB"/>
<path d="M82.307 58.528C81.9675 58.528 81.6507 58.4646 81.3564 58.3378C81.0622 58.2111 80.8042 58.0368 80.5824 57.815C80.3606 57.5887 80.1863 57.3284 80.0596 57.0342C79.9373 56.7354 79.8762 56.4163 79.8762 56.0768C79.8762 55.7373 79.9373 55.4204 80.0596 55.1262C80.1863 54.8319 80.3583 54.5739 80.5756 54.3521C80.7974 54.1258 81.0532 53.9515 81.3429 53.8293C81.6371 53.7025 81.954 53.6392 82.2935 53.6392C82.633 53.6392 82.9476 53.7025 83.2373 53.8293C83.5315 53.9515 83.7895 54.1258 84.0113 54.3521C84.2331 54.5739 84.4051 54.8342 84.5274 55.133C84.6541 55.4272 84.7175 55.7441 84.7175 56.0836C84.7175 56.4231 84.6541 56.7422 84.5274 57.041C84.4051 57.3352 84.2331 57.5932 84.0113 57.815C83.794 58.0368 83.5383 58.2111 83.2441 58.3378C82.9544 58.4646 82.642 58.528 82.307 58.528ZM82.2935 57.7811C82.6149 57.7811 82.8955 57.7086 83.1354 57.5638C83.3799 57.4189 83.57 57.2198 83.7058 56.9663C83.8461 56.7082 83.9163 56.4117 83.9163 56.0768C83.9163 55.8278 83.8755 55.6015 83.794 55.3978C83.7171 55.1895 83.6062 55.0107 83.4613 54.8614C83.3165 54.7075 83.1445 54.5898 82.9453 54.5083C82.7507 54.4268 82.5334 54.3861 82.2935 54.3861C81.9766 54.3861 81.6959 54.4585 81.4515 54.6033C81.2116 54.7437 81.0215 54.9406 80.8811 55.1941C80.7453 55.4476 80.6774 55.7418 80.6774 56.0768C80.6774 56.3257 80.7159 56.5566 80.7929 56.7694C80.8744 56.9776 80.9853 57.1564 81.1256 57.3058C81.2704 57.4551 81.4424 57.5728 81.6416 57.6588C81.8408 57.7403 82.0581 57.7811 82.2935 57.7811Z" fill="#BBBBBB"/>
<path d="M76.5459 56.4434V55.7984H77.7478C77.9877 55.7984 78.1733 55.7372 78.3045 55.615C78.4403 55.4883 78.5082 55.314 78.5082 55.0922C78.5082 54.893 78.4426 54.7255 78.3113 54.5897C78.1801 54.4539 77.9945 54.386 77.7546 54.386H76.5459V53.707H77.7885C78.0873 53.707 78.3498 53.7681 78.5761 53.8904C78.8025 54.0081 78.9768 54.171 79.099 54.3792C79.2257 54.5829 79.2891 54.8161 79.2891 55.0786C79.2891 55.3547 79.2257 55.5947 79.099 55.7984C78.9768 56.0021 78.8025 56.1605 78.5761 56.2737C78.3498 56.3868 78.0873 56.4434 77.7885 56.4434H76.5459ZM76.0095 58.46V53.707H76.7904V58.46H76.0095ZM78.6169 58.46L76.9533 56.3959L77.6799 56.1311L79.6014 58.46H78.6169Z" fill="#BBBBBB"/>
<path d="M72.9102 58.528C72.5842 58.528 72.2764 58.4646 71.9867 58.3378C71.697 58.2111 71.4435 58.0368 71.2262 57.815C71.0089 57.5887 70.8369 57.3284 70.7102 57.0342C70.588 56.7354 70.5269 56.4163 70.5269 56.0768C70.5269 55.7373 70.588 55.4204 70.7102 55.1262C70.8369 54.8319 71.0089 54.5739 71.2262 54.3521C71.448 54.1258 71.7061 53.9515 72.0003 53.8293C72.299 53.7025 72.6204 53.6392 72.9645 53.6392C73.3402 53.6392 73.6887 53.7116 74.0101 53.8564C74.3315 54.0013 74.6009 54.2073 74.8181 54.4743L74.2885 55.004C74.1482 54.8048 73.9603 54.6531 73.725 54.549C73.4896 54.4404 73.2361 54.3861 72.9645 54.3861C72.6385 54.3861 72.3511 54.4585 72.1021 54.6033C71.8577 54.7437 71.6676 54.9406 71.5318 55.1941C71.396 55.4476 71.3281 55.7418 71.3281 56.0768C71.3281 56.4117 71.396 56.7082 71.5318 56.9663C71.6721 57.2198 71.86 57.4189 72.0953 57.5638C72.3307 57.7086 72.5978 57.7811 72.8966 57.7811C73.2134 57.7811 73.485 57.7245 73.7114 57.6113C73.9422 57.4936 74.1188 57.3216 74.241 57.0953C74.3632 56.8644 74.4243 56.5815 74.4243 56.2465L74.9132 56.5996H72.883V55.8867H75.2323V55.9953C75.2323 56.5611 75.1305 57.0319 74.9268 57.4076C74.7276 57.7833 74.4537 58.064 74.1052 58.2496C73.7566 58.4352 73.3583 58.528 72.9102 58.528Z" fill="#BBBBBB"/>
<path d="M67.7295 56.6812C67.5892 56.6812 67.4647 56.6495 67.3561 56.5861C67.2474 56.5227 67.1614 56.4367 67.098 56.3281C67.0392 56.2149 67.0098 56.0927 67.0098 55.9614C67.0098 55.8302 67.0392 55.7102 67.098 55.6016C67.1614 55.4929 67.2474 55.4069 67.3561 55.3435C67.4647 55.2756 67.5892 55.2417 67.7295 55.2417C67.8698 55.2417 67.9921 55.2756 68.0962 55.3435C68.2048 55.4069 68.2885 55.4929 68.3474 55.6016C68.4108 55.7102 68.4425 55.8302 68.4425 55.9614C68.4425 56.0927 68.4108 56.2149 68.3474 56.3281C68.2885 56.4367 68.2048 56.5227 68.0962 56.5861C67.9921 56.6495 67.8698 56.6812 67.7295 56.6812Z" fill="#BBBBBB"/>
<path d="M61.72 58.46V53.707H62.5008V58.46H61.72ZM62.2564 58.46V57.7471H64.9181V58.46H62.2564ZM62.2564 56.3755V55.6897H64.6872V56.3755H62.2564ZM62.2564 54.42V53.707H64.8841V54.42H62.2564Z" fill="#BBBBBB"/>
<path d="M58.6208 58.528C58.2949 58.528 57.9871 58.4646 57.6974 58.3378C57.4077 58.2111 57.1542 58.0368 56.9369 57.815C56.7196 57.5887 56.5476 57.3284 56.4209 57.0342C56.2987 56.7354 56.2375 56.4163 56.2375 56.0768C56.2375 55.7373 56.2987 55.4204 56.4209 55.1262C56.5476 54.8319 56.7196 54.5739 56.9369 54.3521C57.1587 54.1258 57.4167 53.9515 57.711 53.8293C58.0097 53.7025 58.3311 53.6392 58.6752 53.6392C59.0509 53.6392 59.3994 53.7116 59.7208 53.8564C60.0422 54.0013 60.3116 54.2073 60.5288 54.4743L59.9992 55.004C59.8589 54.8048 59.671 54.6531 59.4356 54.549C59.2003 54.4404 58.9468 54.3861 58.6752 54.3861C58.3492 54.3861 58.0618 54.4585 57.8128 54.6033C57.5684 54.7437 57.3783 54.9406 57.2425 55.1941C57.1067 55.4476 57.0388 55.7418 57.0388 56.0768C57.0388 56.4117 57.1067 56.7082 57.2425 56.9663C57.3828 57.2198 57.5707 57.4189 57.806 57.5638C58.0414 57.7086 58.3085 57.7811 58.6073 57.7811C58.9241 57.7811 59.1957 57.7245 59.4221 57.6113C59.6529 57.4936 59.8295 57.3216 59.9517 57.0953C60.0739 56.8644 60.135 56.5815 60.135 56.2465L60.6239 56.5996H58.5937V55.8867H60.943V55.9953C60.943 56.5611 60.8412 57.0319 60.6375 57.4076C60.4383 57.7833 60.1644 58.064 59.8159 58.2496C59.4673 58.4352 59.069 58.528 58.6208 58.528Z" fill="#BBBBBB"/>
<path d="M51.6926 58.46L53.6482 53.707H54.1914L56.1333 58.46H55.2913L53.7704 54.6101H54.0555L52.521 58.46H51.6926ZM52.6568 57.5434V56.8644H55.1759V57.5434H52.6568Z" fill="#BBBBBB"/>
<path d="M49.165 58.528C48.8391 58.528 48.5313 58.4646 48.2416 58.3378C47.9519 58.2111 47.6984 58.0368 47.4811 57.815C47.2638 57.5887 47.0918 57.3284 46.9651 57.0342C46.8428 56.7354 46.7817 56.4163 46.7817 56.0768C46.7817 55.7373 46.8428 55.4204 46.9651 55.1262C47.0918 54.8319 47.2638 54.5739 47.4811 54.3521C47.7029 54.1258 47.9609 53.9515 48.2552 53.8293C48.5539 53.7025 48.8753 53.6392 49.2193 53.6392C49.5951 53.6392 49.9436 53.7116 50.265 53.8564C50.5864 54.0013 50.8557 54.2073 51.073 54.4743L50.5434 55.004C50.4031 54.8048 50.2152 54.6531 49.9798 54.549C49.7444 54.4404 49.4909 54.3861 49.2193 54.3861C48.8934 54.3861 48.606 54.4585 48.357 54.6033C48.1126 54.7437 47.9225 54.9406 47.7867 55.1941C47.6509 55.4476 47.583 55.7418 47.583 56.0768C47.583 56.4117 47.6509 56.7082 47.7867 56.9663C47.927 57.2198 48.1148 57.4189 48.3502 57.5638C48.5856 57.7086 48.8527 57.7811 49.1514 57.7811C49.4683 57.7811 49.7399 57.7245 49.9662 57.6113C50.1971 57.4936 50.3736 57.3216 50.4959 57.0953C50.6181 56.8644 50.6792 56.5815 50.6792 56.2465L51.1681 56.5996H49.1379V55.8867H51.4872V55.9953C51.4872 56.5611 51.3854 57.0319 51.1817 57.4076C50.9825 57.7833 50.7086 58.064 50.3601 58.2496C50.0115 58.4352 49.6132 58.528 49.165 58.528Z" fill="#BBBBBB"/>
<path d="M42.1523 58.46V53.707H42.6955L42.9332 54.6033V58.46H42.1523ZM45.4455 58.46L42.6005 54.7459L42.6955 53.707L45.5406 57.4212L45.4455 58.46ZM45.4455 58.46L45.2078 57.6249V53.707H45.9887V58.46H45.4455Z" fill="#BBBBBB"/>
<path d="M38.1475 58.46V53.707H38.9283V58.46H38.1475ZM38.6839 58.46V57.7471H41.3456V58.46H38.6839ZM38.6839 56.3755V55.6897H41.1147V56.3755H38.6839ZM38.6839 54.42V53.707H41.3116V54.42H38.6839Z" fill="#BBBBBB"/>
<path d="M35.1123 56.6812C34.972 56.6812 34.8475 56.6495 34.7389 56.5861C34.6302 56.5227 34.5442 56.4367 34.4808 56.3281C34.422 56.2149 34.3926 56.0927 34.3926 55.9614C34.3926 55.8302 34.422 55.7102 34.4808 55.6016C34.5442 55.4929 34.6302 55.4069 34.7389 55.3435C34.8475 55.2756 34.972 55.2417 35.1123 55.2417C35.2526 55.2417 35.3749 55.2756 35.479 55.3435C35.5876 55.4069 35.6714 55.4929 35.7302 55.6016C35.7936 55.7102 35.8253 55.8302 35.8253 55.9614C35.8253 56.0927 35.7936 56.2149 35.7302 56.3281C35.6714 56.4367 35.5876 56.5227 35.479 56.5861C35.3749 56.6495 35.2526 56.6812 35.1123 56.6812Z" fill="#BBBBBB"/>
<path d="M29.1028 58.46V53.707H29.8836V58.46H29.1028ZM29.6392 58.46V57.7471H32.3009V58.46H29.6392ZM29.6392 56.3755V55.6897H32.07V56.3755H29.6392ZM29.6392 54.42V53.707H32.2669V54.42H29.6392Z" fill="#BBBBBB"/>
<path d="M26.094 58.46V53.8428H26.8749V58.46H26.094ZM24.5459 54.42V53.707H28.423V54.42H24.5459Z" fill="#BBBBBB"/>
<path d="M20.428 58.46L22.3835 53.707H22.9267L24.8686 58.46H24.0267L22.5057 54.6101H22.7909L21.2564 58.46H20.428ZM21.3922 57.5434V56.8644H23.9112V57.5434H21.3922Z" fill="#BBBBBB"/>
<path d="M18.2585 58.46L16.3369 53.707H17.1857L18.6863 57.557H18.3875L19.9017 53.707H20.7368L18.8017 58.46H18.2585Z" fill="#BBBBBB"/>
<path d="M13.7309 58.528C13.3914 58.528 13.0745 58.4646 12.7803 58.3378C12.486 58.2111 12.228 58.0368 12.0062 57.815C11.7844 57.5887 11.6101 57.3284 11.4834 57.0342C11.3612 56.7354 11.3 56.4163 11.3 56.0768C11.3 55.7373 11.3612 55.4204 11.4834 55.1262C11.6101 54.8319 11.7821 54.5739 11.9994 54.3521C12.2212 54.1258 12.477 53.9515 12.7667 53.8293C13.0609 53.7025 13.3778 53.6392 13.7173 53.6392C14.0568 53.6392 14.3714 53.7025 14.6611 53.8293C14.9553 53.9515 15.2134 54.1258 15.4352 54.3521C15.657 54.5739 15.829 54.8342 15.9512 55.133C16.0779 55.4272 16.1413 55.7441 16.1413 56.0836C16.1413 56.4231 16.0779 56.7422 15.9512 57.041C15.829 57.3352 15.657 57.5932 15.4352 57.815C15.2179 58.0368 14.9621 58.2111 14.6679 58.3378C14.3782 58.4646 14.0658 58.528 13.7309 58.528ZM13.7173 57.7811C14.0387 57.7811 14.3193 57.7086 14.5592 57.5638C14.8037 57.4189 14.9938 57.2198 15.1296 56.9663C15.2699 56.7082 15.3401 56.4117 15.3401 56.0768C15.3401 55.8278 15.2994 55.6015 15.2179 55.3978C15.1409 55.1895 15.03 55.0107 14.8852 54.8614C14.7403 54.7075 14.5683 54.5898 14.3691 54.5083C14.1745 54.4268 13.9572 54.3861 13.7173 54.3861C13.4004 54.3861 13.1198 54.4585 12.8753 54.6033C12.6354 54.7437 12.4453 54.9406 12.305 55.1941C12.1692 55.4476 12.1013 55.7418 12.1013 56.0768C12.1013 56.3257 12.1397 56.5566 12.2167 56.7694C12.2982 56.9776 12.4091 57.1564 12.5494 57.3058C12.6943 57.4551 12.8663 57.5728 13.0654 57.6588C13.2646 57.7403 13.4819 57.7811 13.7173 57.7811Z" fill="#BBBBBB"/>
<path d="M6.67725 58.46V53.707H7.22045L7.4581 54.6033V58.46H6.67725ZM9.9704 58.46L7.12539 54.7459L7.22045 53.707L10.0655 57.4212L9.9704 58.46ZM9.9704 58.46L9.73275 57.6249V53.707H10.5136V58.46H9.9704Z" fill="#BBBBBB"/>
<path d="M1.8103 58.46V53.707H2.3535L2.59115 54.6033V58.46H1.8103ZM5.10345 58.46L2.25844 54.7459L2.3535 53.707L5.19851 57.4212L5.10345 58.46ZM5.10345 58.46L4.8658 57.6249V53.707H5.64665V58.46H5.10345Z" fill="#BBBBBB"/>
<path d="M0 58.46V53.707H0.78085V58.46H0Z" fill="#BBBBBB"/>
<path d="M9.25404 31.79C11.124 31.79 12.824 32.53 14.074 33.7C15.434 32.53 17.104 31.79 18.974 31.79C23.014 31.79 26.274 35.09 26.274 39.13V47.17C26.274 48.49 25.184 49.58 23.904 49.58C22.624 49.58 21.414 48.49 21.414 47.17V39.13C21.414 37.73 20.324 36.64 18.964 36.64C17.604 36.64 16.554 37.73 16.554 39.13V47.17C16.554 48.49 15.464 49.58 14.064 49.58C12.664 49.58 11.654 48.49 11.654 47.17V39.13C11.654 37.73 10.564 36.64 9.24404 36.64C7.92404 36.64 6.75404 37.73 6.75404 39.13V47.17C6.75404 48.49 5.66404 49.58 4.34404 49.58C3.02404 49.58 1.89404 48.49 1.89404 47.17V39.13C1.89404 35.09 5.15404 31.79 9.23404 31.79H9.25404Z" fill="#BBBBBB"/>
<path d="M31.694 25.6899C33.214 25.6899 34.414 26.8599 34.414 28.3299C34.414 29.7999 33.214 31.0099 31.694 31.0099C30.174 31.0099 29.094 29.8099 29.094 28.3299C29.094 26.8499 30.224 25.6899 31.694 25.6899ZM31.694 31.7899C33.094 31.7899 34.184 32.9199 34.184 34.2399V47.1799C34.184 48.4999 33.094 49.5899 31.694 49.5899C30.294 49.5899 29.284 48.4999 29.284 47.1799V34.2399C29.284 32.9199 30.414 31.7899 31.694 31.7899Z" fill="#BBBBBB"/>
<path d="M45.344 31.79C49.854 31.79 53.544 35.48 53.544 40.03V47.18C53.544 48.5 52.414 49.59 51.094 49.59C49.774 49.59 48.644 48.5 48.644 47.18V40.03C48.644 38.13 47.124 36.65 45.344 36.65C43.564 36.65 42.004 38.13 42.004 40.03V47.18C42.004 48.5 40.914 49.59 39.554 49.59C38.194 49.59 37.104 48.5 37.104 47.18V40.03C37.104 35.48 40.794 31.79 45.344 31.79Z" fill="#BBBBBB"/>
<path d="M55.7139 40.6899C55.7139 35.7599 59.6739 31.7899 64.5739 31.7899C69.4739 31.7899 67.3739 32.1399 68.5739 32.7199V28.0999C68.5739 26.7399 69.7039 25.6899 71.0639 25.6899C72.4239 25.6899 73.4739 26.7399 73.4739 28.0999V40.6899C73.4739 45.6199 69.5139 49.5899 64.5739 49.5899C59.6339 49.5899 55.7139 45.6299 55.7139 40.6899ZM60.5739 40.6899C60.5739 42.9399 62.3639 44.7299 64.5739 44.7299C66.8239 44.7299 68.5739 42.9399 68.5739 40.6899C68.5739 38.4399 66.8239 36.6499 64.5739 36.6499C62.3239 36.6499 60.5739 38.4799 60.5739 40.6899Z" fill="#BBBBBB"/>
<path d="M26.2742 0C27.7342 0 28.8942 1.12 28.8942 2.55C28.8942 3.98 27.7342 5.14 26.2742 5.14C24.8142 5.14 23.7642 3.98 23.7642 2.55C23.7642 1.12 24.8542 0 26.2742 0ZM26.2742 5.88C27.6242 5.88 28.6742 6.97 28.6742 8.24V20.72C28.6742 21.99 27.6242 23.04 26.2742 23.04C24.9242 23.04 23.9542 21.99 23.9542 20.72V8.24C23.9542 6.97 25.0442 5.88 26.2742 5.88Z" fill="#BBBBBB"/>
<path d="M39.654 5.87988C44.374 5.87988 48.194 9.69988 48.194 14.4599C48.194 19.2199 44.374 23.0399 39.654 23.0399C34.934 23.0399 31.074 19.2199 31.074 14.4599C31.074 9.69988 34.894 5.87988 39.654 5.87988ZM39.654 10.5599C37.484 10.5599 35.724 12.3199 35.724 14.4599C35.724 16.5999 37.484 18.3599 39.654 18.3599C41.824 18.3599 43.514 16.6399 43.514 14.4599C43.514 12.2799 41.754 10.5599 39.654 10.5599Z" fill="#BBBBBB"/>
<path d="M58.2339 5.87988C62.5839 5.87988 66.1439 9.43988 66.1439 13.8199V20.7099C66.1439 21.9799 65.0539 23.0299 63.7839 23.0299C62.5139 23.0299 61.4239 21.9799 61.4239 20.7099V13.8199C61.4239 11.9799 59.9639 10.5599 58.2339 10.5599C56.5039 10.5599 55.0139 11.9799 55.0139 13.8199V20.7099C55.0139 21.9799 53.9639 23.0299 52.6539 23.0299C51.3439 23.0299 50.2939 21.9799 50.2939 20.7099V13.8199C50.2939 9.43988 53.8539 5.87988 58.2339 5.87988Z" fill="#BBBBBB"/>
<path d="M71.3039 0C72.7639 0 73.9239 1.12 73.9239 2.55C73.9239 3.98 72.7639 5.14 71.3039 5.14C69.8439 5.14 68.7939 3.98 68.7939 2.55C68.7939 1.12 69.8839 0 71.3039 0ZM71.3039 5.88C72.6539 5.88 73.7039 6.97 73.7039 8.24V20.72C73.7039 21.99 72.6539 23.04 71.3039 23.04C69.9539 23.04 68.9839 21.99 68.9839 20.72V8.24C68.9839 6.97 70.0739 5.88 71.3039 5.88Z" fill="#BBBBBB"/>
<path d="M76.104 14.4599C76.104 9.69988 79.924 5.87988 84.644 5.87988C89.364 5.87988 89.144 6.84988 90.714 8.38988C91.654 9.28988 91.654 10.7499 90.714 11.7199C90.264 12.1699 89.664 12.3999 89.064 12.3999C88.464 12.3999 87.864 12.1799 87.414 11.6499C86.704 10.9799 85.694 10.5599 84.644 10.5599C82.504 10.5599 80.784 12.3199 80.784 14.4599C80.784 16.5999 82.504 18.3599 84.644 18.3599C86.784 18.3599 86.704 17.9099 87.414 17.2399C87.904 16.7499 88.504 16.5299 89.064 16.5299C89.624 16.5299 90.304 16.7499 90.714 17.2399C91.654 18.1399 91.654 19.5999 90.714 20.5699C89.144 22.1099 87.044 23.0399 84.644 23.0399C79.924 23.0399 76.104 19.2199 76.104 14.4599Z" fill="#BBBBBB"/>
<path d="M13.134 5.97998C8.424 5.97998 4.604 9.79998 4.604 14.51C4.604 19.22 8.424 23.04 13.134 23.04C17.844 23.04 21.664 19.22 21.664 14.51C21.664 9.79998 17.844 5.97998 13.134 5.97998ZM13.134 17.82C11.304 17.82 9.824 16.34 9.824 14.51C9.824 12.68 11.304 11.2 13.134 11.2C14.964 11.2 16.444 12.68 16.444 14.51C16.444 16.34 14.964 17.82 13.134 17.82Z" fill="#BBBBBB"/>
<path d="M8.99406 3.54C8.99406 1.58491 7.40915 0 5.45406 0C3.49897 0 1.91406 1.58491 1.91406 3.54V19C1.91406 20.9551 3.49897 22.54 5.45406 22.54C7.40915 22.54 8.99406 20.9551 8.99406 19V3.54Z" fill="#BBBBBB"/>
<path d="M8.994 7.05005V19C8.994 19.92 8.644 20.7501 8.074 21.3801C5.964 19.8301 4.604 17.33 4.604 14.51C4.604 11.69 6.374 8.51005 8.994 7.05005Z" fill="#BBBBBB"/>
<path d="M8.994 7.05005V19C8.994 19.92 8.644 20.7501 8.074 21.3801C5.964 19.8301 4.604 17.33 4.604 14.51C4.604 11.69 6.374 8.51005 8.994 7.05005Z" fill="#BBBBBB"/>
<path d="M82.8139 31.79C86.4139 31.79 90.0439 33.22 90.0439 35.39C90.0439 37.56 89.2939 37.46 88.0639 37.46C86.2139 37.46 86.1539 35.29 83.1739 35.29C80.1939 35.29 80.4539 35.74 80.4539 36.75C80.4539 37.76 81.5239 38.11 82.9839 38.44L84.9639 38.89C87.6539 39.51 90.8639 40.64 90.8639 43.95C90.8639 47.26 87.1339 49.59 83.5739 49.59C80.0139 49.59 75.7339 47.68 75.7339 45.34C75.7339 43 76.3139 43.36 77.6439 43.36C79.6839 43.36 79.8839 46.28 83.3839 46.28C86.8839 46.28 86.1439 45.53 86.1439 44.56C86.1439 43.59 85.1039 43.17 83.4239 42.74L80.6339 42.06C77.8739 41.38 75.7439 40.24 75.7439 37.07C75.7439 33.9 79.5639 31.79 82.8439 31.79H82.8139Z" fill="#BBBBBB"/>
</svg>
