<svg width="167" height="30" viewBox="0 0 167 30" fill="none" xmlns="http://www.w3.org/2000/svg">
<g clip-path="url(#clip0_111_1557)">
<path d="M145.659 7.60767C145.936 7.38995 146.216 7.17716 146.5 6.96941C147.683 6.12039 149.196 5.30352 150.702 5.55069C151.335 5.65453 152.305 6.11531 152.676 6.64669C153.161 7.33951 153.111 8.6691 153.042 9.46414C152.94 10.6499 152.637 11.8129 152.381 12.973C152.003 14.6805 151.616 16.3819 151.297 18.1017C150.052 18.1667 148.791 18.126 147.544 18.125C147.87 15.2242 149.065 12.4126 149.193 9.48381C148.937 9.11382 148.725 8.87585 148.27 8.7482C147.335 8.48568 146.366 9.12861 145.585 9.55821C145.531 10.9215 145.054 12.3875 144.74 13.7176C144.475 14.8394 144.261 15.9714 143.991 17.0918L143.849 18.1244C142.633 18.1768 141.385 18.1374 140.168 18.1054C140.153 17.2614 140.443 16.4616 140.633 15.6456C140.84 14.7554 140.981 13.8501 141.163 12.9546C141.396 11.8081 141.772 10.6093 141.743 9.43308C141.48 9.06869 141.191 8.82715 140.735 8.74861C140.062 8.63268 139.246 8.81804 138.687 9.20812C138.469 9.35991 138.25 9.57341 138.153 9.82495C137.868 10.5591 137.811 11.5472 137.637 12.3311C137.209 14.2622 136.679 16.1847 136.329 18.131C135.485 18.1354 133.429 18.326 132.728 17.9905C132.75 17.3084 132.998 16.5858 133.133 15.9132C133.516 13.9923 133.928 12.0879 134.349 10.1756C134.654 8.78975 134.805 7.28694 135.293 5.95376C136.483 5.86384 137.724 5.92546 138.922 5.9222C138.838 6.22312 138.719 6.54638 138.745 6.8613C139.088 6.98928 141.238 5.76064 141.764 5.54855L143.475 5.55267C144.722 6.25052 144.895 6.39187 145.659 7.60767Z" fill="#BBBBBB"/>
<path d="M83.5008 1.21916C84.432 1.13831 86.1192 1.1788 87.1026 1.17533C87.1213 2.14724 86.2415 5.95211 85.9284 7.01833C87.3097 6.32289 88.0061 5.58147 89.6826 5.53154C92.1207 5.45889 93.1677 7.25706 93.2566 9.48917C93.3341 11.4217 92.897 13.3795 91.9585 15.0834C91.6331 15.6747 90.7883 16.5082 90.3154 17.0105C89.7372 17.4884 89.0775 17.8578 88.3673 18.1004C86.6231 18.6975 85.3918 18.3982 83.8074 17.6283C83.5049 17.6652 83.6835 17.7448 83.3581 18.0584C82.864 18.1371 80.4649 18.2096 80.0342 18.0535C79.9469 17.8404 79.9568 17.5499 80.008 17.3245C80.9882 13.0073 81.8382 8.66462 82.7987 4.34342C83.0336 3.28561 83.2301 2.26828 83.5008 1.21916ZM86.2129 15.5908C87.1605 15.4347 87.8536 14.958 88.4146 14.1805C89.1958 13.0973 89.5937 11.3527 89.3735 10.0372C89.2708 9.42616 89.0466 9.00006 88.5288 8.63275C88.4978 8.61063 88.4652 8.58925 88.4334 8.56868C88.0444 8.51974 87.6481 8.44982 87.2559 8.47584C86.7471 8.61616 85.8044 8.87291 85.5206 9.36324C85.3461 9.66364 84.1458 14.8775 84.176 15.208C84.3782 15.4768 84.7729 15.5296 85.0868 15.5735C85.4366 15.6222 85.8648 15.6507 86.2129 15.5908Z" fill="#BBBBBB"/>
<path d="M71.4008 5.56493C72.0457 5.52194 72.7057 5.52728 73.352 5.53029C74.8247 5.53715 76.6755 5.60327 77.7811 6.72387C78.2477 7.1969 78.4358 7.90036 78.4279 8.55041C78.4154 9.58082 76.8719 17.6487 76.492 18.0198C75.6093 18.2254 74.3909 18.2038 73.4884 18.109C73.2949 18.0885 73.1795 18.1006 73.0521 17.9442C72.9972 17.5971 73.1223 17.2115 73.1952 16.8722C72.267 17.355 71.5444 17.9963 70.5118 18.3203C69.2198 18.7258 68.2376 18.4985 67.0712 17.8906C66.8775 17.7468 66.6694 17.5972 66.5147 17.4112C65.9393 16.7191 65.6569 15.7749 65.7455 14.8847C66.0719 11.605 69.3549 10.6179 72.1645 10.3392C72.7572 10.2803 74.1401 10.3372 74.5616 9.98066C74.6601 9.89741 74.6839 9.70619 74.6923 9.58171C74.7135 9.26806 74.683 8.98261 74.4656 8.74001C74.1818 8.42301 73.7046 8.32602 73.3012 8.26066C71.9192 8.0368 70.7907 8.30407 69.4835 8.71115C69.073 8.83895 68.6155 9.01643 68.181 8.99261C67.944 8.4731 68.4993 6.79354 68.6694 6.20844C69.5207 5.80465 70.508 5.85358 71.4008 5.56493ZM70.5583 15.7498C71.5372 15.9296 72.4669 15.6862 73.2843 15.1242C73.4028 15.0424 73.517 14.9547 73.6266 14.8615C73.7466 14.3011 74.1973 13.0168 73.9253 12.5194C73.7422 12.4172 73.5804 12.4446 73.3801 12.465C72.2988 12.6155 70.6804 12.6634 69.9588 13.6244C69.6865 13.987 69.5981 14.452 69.664 14.8963C69.7024 15.1541 69.8271 15.3826 70.0439 15.5351C70.1853 15.6347 70.3918 15.7006 70.5583 15.7498Z" fill="#BBBBBB"/>
<path d="M104.638 5.93428C105.866 5.90089 107.117 5.90889 108.345 5.95732C108.113 7.36257 107.691 8.73749 107.439 10.1424C106.663 12.7272 106.361 15.4791 105.691 18.0997C104.482 18.1615 103.262 18.1274 102.051 18.1229L102.255 16.8514C101.592 17.2679 100.915 17.7116 100.199 18.0303C99.175 18.4857 98.0203 18.7225 96.9415 18.3085C96.2394 18.0389 95.455 17.4014 95.1533 16.7025C94.8809 16.0714 94.9502 15.1397 95.022 14.4747C95.1786 13.0172 95.6303 11.5581 95.9426 10.125C96.2378 8.76676 96.4001 7.24014 96.904 5.94846C97.9673 5.88818 99.2851 5.79493 100.331 5.9628C100.788 6.38236 99.5224 10.7099 99.3617 11.481C99.1579 12.4573 98.9165 13.5122 99.0046 14.5114L99.3511 15.077C99.5754 15.1816 99.8037 15.2811 100.048 15.3267C100.882 15.4819 101.974 14.9824 102.642 14.5291C103.263 13.3143 103.36 11.6194 103.631 10.2742C103.925 8.82318 104.249 7.36281 104.638 5.93428Z" fill="#BBBBBB"/>
<path d="M56.5705 1.95818C57.3088 1.90115 59.775 1.82193 60.374 2.06381C60.3037 3.41265 59.732 5.30381 59.4349 6.69354L58.4132 11.4822C58.1717 12.6011 57.965 13.7531 57.5764 14.8317C59.7436 15.2838 62.2202 14.6591 64.3987 14.9968C64.5091 15.1406 64.5167 15.2412 64.5058 15.4243C64.4747 15.9495 64.1855 17.8164 63.8336 18.1253C62.763 18.1394 53.2164 18.2087 53.0462 18.0469C53.0096 17.3305 53.8544 14.3266 54.0562 13.386L55.632 6.00361C55.8802 4.80944 56.0775 3.58718 56.3572 2.40192C56.3944 2.24478 56.4855 2.09367 56.5705 1.95818Z" fill="#BBBBBB"/>
<path d="M119.78 2.4581C120.638 2.38101 121.549 2.38121 122.411 2.3811C122.698 2.38107 122.978 2.39376 123.193 2.60797C123.392 2.97093 122.817 5.32672 122.739 5.93066C123.584 5.94801 125.206 5.73574 125.937 6.03699C126.019 6.07046 126.018 6.11753 126.05 6.19499C125.997 6.6917 125.804 7.80578 125.512 8.20729C124.95 8.9829 123.595 8.28087 122.796 8.40916C122.537 8.45062 122.322 8.57575 122.172 8.7903C122.062 8.94558 121.987 9.12745 121.939 9.3103C121.722 10.1399 121.624 11.0327 121.449 11.8776C121.293 12.6309 121.047 13.3846 120.935 14.1438C120.895 14.4192 120.878 14.7252 120.928 15.0003C120.969 15.2231 121.075 15.4274 121.267 15.5558C121.832 15.9351 122.784 15.6123 123.404 15.4983C123.635 15.4557 123.791 15.4308 123.988 15.5651L123.807 16.5659C123.752 17.2147 123.637 17.5811 123.237 18.1011C121.726 18.3248 120.235 18.6411 118.731 18.1575C118.108 17.957 117.588 17.5953 117.287 17.0028C117.059 16.5536 116.989 16.0388 117 15.5401C117.032 14.1087 117.993 9.98282 118.469 8.5377C118.156 8.52818 117.837 8.53949 117.525 8.51461C117.26 8.49355 117.15 8.38501 116.99 8.19786C116.881 7.84952 117.327 6.41624 117.389 5.95174L118.763 5.92312C119.478 4.8889 119.421 2.86971 119.78 2.4581Z" fill="#BBBBBB"/>
<path d="M116.197 1.177C116.645 1.50081 114.564 9.34767 114.402 10.4474C114.151 12.168 113.7 14.0374 113.292 15.7409C113.106 16.5217 113.012 17.3694 112.721 18.1098C111.637 18.1597 110.31 18.1252 109.208 18.126C108.914 17.7647 110.4 12.1544 110.575 11.2234C111.207 7.8696 111.986 4.52885 112.71 1.1979L116.197 1.177Z" fill="#BBBBBB"/>
<path d="M128.23 5.96002C129.411 5.85513 130.653 5.93007 131.84 5.9289C131.783 7.64746 131.117 9.44495 130.757 11.1313C130.268 13.4237 129.978 15.795 129.272 18.0377C128.565 18.1945 126.476 18.2622 125.809 18.0466C125.729 18.0207 125.715 17.9465 125.677 17.8742C125.809 15.8328 126.8 12.5122 127.262 10.3858C127.504 9.26577 127.773 6.9116 128.23 5.96002Z" fill="#BBBBBB"/>
<path d="M119.146 22.9686C120.013 22.8312 120.847 23.073 121.724 22.997C121.676 24.3469 121.827 25.7182 121.726 27.0644C121.687 27.5817 121.607 28.0129 121.19 28.3666C120.684 28.795 119.875 28.9473 119.226 28.8941C118.917 28.8687 118.52 28.7792 118.311 28.5363C118.201 28.317 118.245 28.0823 118.268 27.8477C118.625 28.0158 119.121 28.1382 119.518 28.1269C119.961 28.1144 120.579 27.9548 120.879 27.6173C121.004 27.477 121.01 27.3769 121.001 27.1973C120.975 27.1589 120.869 26.9707 120.84 26.9573C120.837 26.956 119.467 27.3104 118.899 27.1181C118.519 26.9894 118.257 26.7266 118.082 26.3695C117.763 25.7199 117.818 24.8564 118.053 24.1901C118.286 23.5303 118.519 23.2696 119.146 22.9686ZM120.96 25.7304C121.042 25.3418 121.027 24.887 121.002 24.4947L121.024 23.9282C120.546 23.6943 120.122 23.4912 119.561 23.6653C118.514 23.9899 118.235 25.8608 119.277 26.346C119.832 26.6047 120.75 26.3795 120.96 25.7304Z" fill="#BBBBBB"/>
<path d="M121.024 23.9282L121.002 24.4948C120.81 24.757 121.009 25.2304 120.857 25.6433L120.764 25.5306C120.688 24.9359 120.671 24.4408 121.024 23.9282Z" fill="#BBBBBB" fill-opacity="0.505882"/>
<path d="M120.857 25.6432C121.009 25.2302 120.81 24.7568 121.002 24.4946C121.027 24.8869 121.042 25.3417 120.96 25.7302L120.857 25.6432Z" fill="#BBBBBB" fill-opacity="0.0745098"/>
<path d="M162.311 21.2776C162.351 21.2855 162.39 21.2944 162.43 21.3043C162.579 21.3419 162.792 21.3861 162.871 21.5235C163.032 21.8047 162.968 26.7399 162.845 27.1757C162.815 27.281 162.697 27.3154 162.603 27.3675C162.371 27.3897 162.173 27.2153 161.993 27.0894C161.167 27.3821 160.64 27.5186 159.791 27.2129C159.261 26.6992 158.948 26.0023 158.918 25.2657C158.887 24.6421 159.083 23.9646 159.512 23.5003C160.278 22.6717 160.992 22.9973 161.962 22.9625C162.125 22.6852 161.859 22.1549 161.905 21.8169C161.941 21.5588 162.112 21.4246 162.311 21.2776ZM160.902 26.7347C161.262 26.5907 161.647 26.4594 161.815 26.0779C162.079 25.4757 162.068 24.6621 161.824 24.0568C161.75 23.8752 161.657 23.7381 161.471 23.6589C161.309 23.5899 161.109 23.598 160.936 23.5978C160.536 23.6875 160.305 23.8664 160.087 24.2124C159.824 24.6291 159.746 25.1704 159.858 25.6486C159.947 26.0343 160.16 26.3883 160.505 26.5968C160.628 26.6708 160.763 26.7067 160.902 26.7347Z" fill="#BBBBBB"/>
<path d="M108.686 22.8745C109.138 22.891 109.56 22.9497 109.951 23.1954C110.46 23.5143 110.793 24.0248 110.923 24.6067C111.063 25.2396 110.974 25.9584 110.62 26.5096C110.244 27.0958 109.748 27.305 109.088 27.4479C108.599 27.4352 108.146 27.3874 107.729 27.1015C107.223 26.7543 106.923 26.2259 106.817 25.6285C106.704 24.9858 106.785 24.2673 107.168 23.7238C107.553 23.1793 108.049 22.9868 108.686 22.8745ZM107.959 23.9466C107.703 24.579 107.491 25.2858 107.771 25.9534C107.901 26.2615 108.155 26.5405 108.471 26.6642C108.663 26.7393 108.866 26.7688 109.069 26.7924C109.418 26.6595 109.746 26.3417 109.896 25.9995C110.204 25.3004 110.002 24.5991 109.764 23.9198C109.467 23.7483 109.188 23.582 108.852 23.4943C108.523 23.6168 108.247 23.7442 107.959 23.9466Z" fill="#BBBBBB"/>
<path d="M63.9364 22.8616C64.3457 22.8308 64.876 22.933 65.2269 23.1426C65.6902 23.4193 65.9838 23.8801 66.1088 24.3956C66.2768 25.0883 66.2186 25.9495 65.8394 26.5667C65.507 27.1077 65.068 27.2788 64.4835 27.4208C63.5955 27.4119 63.193 27.1936 62.4787 26.7121C62.3484 26.3891 62.202 26.0571 62.1276 25.716C61.9883 25.0767 62.0662 24.3067 62.4321 23.7521C62.7975 23.1982 63.3092 22.9912 63.9364 22.8616ZM64.309 26.7643C64.7731 26.578 65.0686 26.2416 65.3798 25.8651C65.3331 25.2277 65.4089 24.266 64.8731 23.8139C64.6752 23.6469 64.4294 23.5701 64.1862 23.4941C63.7419 23.6105 63.4772 23.7537 63.2371 24.168C62.9739 24.6264 62.9016 25.1696 63.036 25.6807C63.1333 26.0377 63.3521 26.4209 63.6856 26.6072C63.8722 26.7114 64.0996 26.7399 64.309 26.7643Z" fill="#BBBBBB"/>
<path d="M54.8736 21.5833C55.5431 21.584 56.2365 21.5579 56.9035 21.6083C57.4416 21.649 58.0048 21.7927 58.3668 22.2213C58.8233 22.7619 58.7554 23.3149 58.7033 23.9669C58.5868 24.1455 58.4656 24.3358 58.3167 24.4893C57.7377 25.0859 57.0944 25.1537 56.3048 25.1668C56.2664 25.1599 56.2268 25.1545 56.1876 25.1566C55.3317 25.2007 56.0429 26.7619 55.5948 27.2913C55.3816 27.3847 55.211 27.3523 54.9874 27.3147C54.7472 27.0166 54.7281 26.352 54.7131 25.9825C54.6871 25.3419 54.5756 21.9051 54.8736 21.5833ZM57.4462 24.2762C57.6813 23.9098 57.8941 23.5597 57.7933 23.1035C57.7382 22.8545 57.5625 22.6636 57.3503 22.5316C56.9137 22.2602 56.4475 22.2685 55.9542 22.2801C55.7377 22.5674 55.6308 23.4098 55.6824 23.7708C55.7135 23.9889 55.8256 24.2151 56.0066 24.346C56.2763 24.541 56.5658 24.4963 56.874 24.4427C57.0703 24.4084 57.2596 24.3449 57.4462 24.2762Z" fill="#BBBBBB"/>
<path d="M114.614 22.9428C115.115 22.8909 115.675 22.8362 116.153 23.0248C116.627 23.2119 116.965 23.5449 117.163 24.0126C117.442 24.6741 117.468 25.5514 117.192 26.2174C116.947 26.8061 116.548 27.1434 115.972 27.3801C115.564 27.4215 115.016 27.4638 114.633 27.3006C114.077 27.0639 113.671 26.6311 113.452 26.0719C113.2 25.4304 113.192 24.6539 113.472 24.0197C113.701 23.5007 114.09 23.1446 114.614 22.9428ZM115.498 26.7474C115.977 26.5035 116.338 26.1981 116.509 25.6734C116.656 25.2232 116.645 24.7073 116.428 24.2819C116.262 23.9583 115.996 23.6855 115.644 23.5741C115.56 23.5478 115.475 23.5248 115.388 23.5051C114.932 23.6172 114.63 23.7187 114.371 24.145C114.108 24.5783 114.031 25.1399 114.156 25.6298C114.25 25.994 114.456 26.3546 114.791 26.5477C115.002 26.6697 115.259 26.7174 115.498 26.7474Z" fill="#BBBBBB"/>
<path d="M135.451 21.5683C136.82 21.6187 138.992 21.2183 139.448 22.9383C139.428 23.0971 139.374 23.4436 139.373 23.5882C139.053 25.2192 137.743 25.1253 136.436 25.1705C136.293 25.8783 136.523 26.7735 136.156 27.2818C135.921 27.3894 136.007 27.3898 135.774 27.3197C135.138 26.6817 135.545 22.7002 135.451 21.5683ZM136.356 24.3602C136.891 24.4434 137.354 24.5052 137.889 24.3739C138.21 24.0718 138.53 23.8205 138.547 23.3457C138.555 23.1268 138.472 22.9218 138.323 22.7626C138.01 22.428 137.533 22.2943 137.088 22.2833C136.948 22.2796 136.808 22.2805 136.668 22.2859C136.465 22.4314 136.421 22.4962 136.382 22.7553C136.303 23.2847 136.407 23.8296 136.356 24.3602Z" fill="#BBBBBB"/>
<path d="M142.867 23.0214C143.211 23.0652 143.613 23.1506 143.937 23.0397C144.512 22.568 143.998 22.0824 144.615 21.7993C144.713 21.7541 145.08 21.7693 145.239 21.7332L145.234 22.9894C145.608 22.9889 146.158 22.9454 146.463 23.1278L146.598 23.2886C146.419 23.7934 145.685 23.6864 145.23 23.6891C145.225 24.4098 145.111 26.0397 145.521 26.59C146.084 26.848 146.127 26.231 146.627 26.9327L146.646 27.118C146.087 27.7538 144.884 27.3208 144.387 26.6524C144.236 25.8415 144.306 25.0046 144.281 24.1821C144.268 23.7419 144.091 23.7119 143.768 23.4407C143.1 23.8097 142.359 27.7648 141.637 27.3016C140.663 26.6776 140.422 24.4775 139.699 23.4167L139.537 22.9938C139.814 23.003 140.298 22.978 140.503 23.1288C140.931 23.8467 141.16 25.5681 141.682 25.8584C142.224 25.7502 142.124 25.0201 142.278 24.5849C142.464 24.0597 142.668 23.5425 142.867 23.0214Z" fill="#BBBBBB"/>
<path d="M129.063 1.23422C130.337 1.1405 131.644 1.19193 132.923 1.18659C132.942 1.67062 132.631 3.79882 132.408 4.17253C131.773 4.27816 130.049 4.23209 129.329 4.281C129.105 4.29621 128.865 4.18026 128.708 4.00287C128.47 3.50451 128.933 1.87433 129.063 1.23422Z" fill="#BBBBBB"/>
<path d="M126.423 22.8663C126.796 22.8585 127.313 22.9287 127.618 23.1484C127.962 23.3964 128.398 24.1113 128.46 24.5323C128.485 24.6959 128.46 24.8565 128.356 24.9896C127.939 25.5266 126.456 25.2223 125.83 25.3007C125.615 25.3275 125.434 25.3694 125.297 25.547C125.289 25.704 125.284 25.7765 125.364 25.917C125.527 26.2017 125.931 26.582 126.251 26.6612C126.799 26.7967 127.352 26.6122 127.817 26.3365L127.988 26.263C128.168 26.3522 128.169 26.3551 128.242 26.5424C128.232 26.6808 128.204 26.7946 128.126 26.9111C127.947 27.178 127.653 27.341 127.341 27.4015C126.677 27.5301 125.811 27.3755 125.25 26.9939C124.785 26.6778 124.506 26.2018 124.404 25.6579C124.287 25.03 124.359 24.3033 124.732 23.769C125.167 23.1461 125.719 22.9876 126.423 22.8663ZM126.371 24.6961C126.673 24.708 127.026 24.7626 127.296 24.6033C127.442 24.4293 127.467 24.3896 127.488 24.1642C127.339 23.802 127.084 23.6497 126.737 23.5041C126.612 23.4511 126.49 23.4096 126.353 23.3964C125.97 23.6168 125.5 23.8589 125.339 24.2957C125.369 24.4313 125.36 24.5021 125.485 24.5813C125.663 24.6947 126.154 24.6956 126.371 24.6961Z" fill="#BBBBBB" fill-opacity="0.988235"/>
<path d="M72.6267 22.8577C73.1062 22.8836 73.6569 22.9737 74.0028 23.3341C74.2586 23.6008 74.5756 24.2634 74.559 24.6374C74.5028 25.9044 72.1356 24.8808 71.4471 25.4938C71.4439 25.686 71.4594 25.7599 71.5553 25.9308C71.7404 26.2605 72.1321 26.5841 72.5048 26.683C73.0773 26.835 73.6202 26.5491 74.0947 26.268C74.2055 26.2473 74.2779 26.2988 74.3787 26.3425L74.4294 26.5556C74.3694 26.867 74.2109 27.0478 74.0109 27.28C73.9482 27.2912 73.8854 27.3018 73.8226 27.312C72.9749 27.4497 72.0832 27.4681 71.3568 26.942C70.8859 26.601 70.6135 26.0861 70.5261 25.5202C70.4306 24.9025 70.5248 24.2474 70.9056 23.7357C71.3555 23.131 71.9147 22.9639 72.6267 22.8577ZM72.6075 24.7026C72.8964 24.706 73.25 24.753 73.495 24.577C73.6241 24.395 73.6373 24.3582 73.6339 24.1353C73.4646 23.782 73.1615 23.5994 72.8 23.4721C72.7328 23.4477 72.6633 23.4304 72.5926 23.4202C72.187 23.5758 71.6975 23.82 71.4798 24.215C71.4788 24.4193 71.4962 24.4297 71.6266 24.5736C71.9192 24.7181 72.2874 24.6927 72.6075 24.7026Z" fill="#BBBBBB" fill-opacity="0.988235"/>
<path d="M91.1154 22.8647L91.2002 22.8682C91.7188 22.8917 92.3011 22.9813 92.6664 23.3884C93.1385 23.9148 93.0594 24.5973 93.026 25.2457C92.4283 25.286 90.4158 25.1194 90.0391 25.4233C90.0195 25.6071 90.0431 25.7483 90.1214 25.9169C90.2657 26.2269 90.5544 26.4956 90.8773 26.6104C91.568 26.8556 92.2293 26.516 92.8368 26.2218C92.9697 26.3204 93.0301 26.3971 93.1051 26.5421C93.0994 26.7442 93.1059 26.8357 92.9583 26.9919C92.6745 27.2923 92.0173 27.3681 91.6218 27.3824C90.6849 27.4164 90.0847 27.1182 89.4104 26.4922C89.3182 26.2245 89.222 25.9519 89.1739 25.6724C89.0605 25.0128 89.1331 24.2591 89.5327 23.703C89.9371 23.1417 90.4582 22.9714 91.1154 22.8647ZM91.5851 24.7034C91.8673 24.6758 91.9684 24.675 92.1975 24.5139C92.2538 24.3327 92.275 24.2382 92.1779 24.0632C92.0369 23.8091 91.696 23.5713 91.4171 23.4995C91.2663 23.4605 91.126 23.4727 90.9752 23.5015C90.6563 23.6426 90.2152 23.8539 90.0774 24.1951C90.0521 24.2574 90.0986 24.3546 90.1165 24.4196C90.5332 24.7737 91.0706 24.7012 91.5851 24.7034Z" fill="#BBBBBB" fill-opacity="0.988235"/>
<path d="M97.6568 21.4016L98.5823 21.355V23.2675C99.255 22.9764 99.7598 22.8932 100.496 22.8753L101.239 23.5751C101.459 24.3729 101.597 26.4395 101.185 27.1686C101.101 27.3164 101.07 27.361 100.908 27.4057C100.886 27.3899 100.865 27.3734 100.846 27.3538C100.389 26.8875 100.542 25.3802 100.55 24.7765C100.55 24.7612 100.551 24.7457 100.55 24.7303C100.547 24.4221 100.499 24.0272 100.267 23.8068C100.12 23.6678 99.9334 23.6116 99.7337 23.6202C99.2224 23.6421 98.9256 23.9461 98.6002 24.2938C98.5497 25.0572 98.6222 25.8223 98.5929 26.5866C98.5831 26.8399 98.5749 27.1174 98.3849 27.293C98.1664 27.2841 98.0001 27.2825 97.8174 27.1508C97.5165 26.3777 97.6902 22.5682 97.6568 21.4016Z" fill="#BBBBBB" fill-opacity="0.984314"/>
<path d="M102.473 22.9549C103.434 23.1379 103.786 22.9406 104.694 22.9315C105.244 22.926 105.578 23.1676 105.952 23.5333C106.066 24.4757 106.14 25.4918 106.107 26.4409C106.098 26.6966 106.097 27.0419 105.897 27.2273C105.711 27.3172 105.595 27.3285 105.391 27.2998C104.996 26.8708 105.186 25.1682 105.192 24.5763C105.174 24.3754 105.173 24.1265 105.092 23.9408C105.037 23.8123 104.975 23.7419 104.841 23.6916C104.569 23.5891 104.043 23.6326 103.787 23.7505C102.679 24.261 103.489 26.2924 103.134 27.2182C103.076 27.3699 103.012 27.3778 102.873 27.4392C102.701 27.3612 102.619 27.3265 102.517 27.1581C102.265 26.7412 102.336 23.5164 102.473 22.9549Z" fill="#BBBBBB"/>
<path d="M129.841 22.9589C130.393 22.8783 131 22.8546 131.545 22.993C131.809 23.0599 131.928 23.1543 132.061 23.3775C132.061 23.5731 132.087 23.8018 131.972 23.9692C131.514 23.7914 131.053 23.6458 130.581 23.5083C130.245 23.5779 129.972 23.6268 129.748 23.8957C129.591 25.0977 131.293 24.4507 131.944 25.3194C132.251 25.7292 132.136 26.1714 132.072 26.6398C131.777 26.9199 131.503 27.1653 131.143 27.3608C130.652 27.4158 130.023 27.4509 129.545 27.3047C129.202 27.1996 128.935 26.8784 128.775 26.5709L128.824 26.4622C129.449 26.3173 130.149 26.7798 130.818 26.6443C131.059 26.5955 131.188 26.4994 131.323 26.2979C131.467 25.4935 129.392 25.5363 128.972 24.7553C128.821 24.4714 128.825 24.1318 128.919 23.8299C129.07 23.3462 129.423 23.174 129.841 22.9589Z" fill="#BBBBBB"/>
<path d="M79.8325 22.935C80.5711 22.8947 81.2663 22.809 81.887 23.2934C81.9767 23.4905 81.9743 23.55 81.9441 23.7633C81.6302 24.1071 80.7532 23.4778 80.2834 23.511C80.102 23.5238 79.9512 23.6034 79.8337 23.7417C79.681 23.9214 79.6945 24.1279 79.7103 24.3499C80.0394 24.8965 80.965 24.7796 81.5296 25.0153C81.7664 25.1141 81.9653 25.267 82.0624 25.509C82.1887 25.8221 82.1512 26.2435 82.0143 26.5476C81.8096 27.0014 81.3657 27.19 80.9319 27.3594C80.6573 27.3834 80.3732 27.3889 80.0977 27.3827C79.6504 27.3727 79.2101 27.3101 78.8876 26.9746C78.7856 26.7689 78.7812 26.6506 78.8282 26.4276C79.2491 26.1975 80.2065 26.8407 80.7923 26.6786C80.934 26.6393 81.0675 26.5305 81.1367 26.4014C81.234 26.2197 81.2182 26.159 81.1619 25.9704C80.8049 25.5986 80.1165 25.4785 79.6484 25.2893C79.3199 25.1566 78.9829 24.9107 78.8449 24.5749C78.7228 24.2779 78.7616 23.9292 78.8875 23.6401C79.0705 23.2197 79.436 23.0915 79.8325 22.935Z" fill="#BBBBBB" fill-opacity="0.988235"/>
<path d="M85.5696 21.6125C86.4087 21.6038 89.0784 21.4791 89.7201 21.7592L89.8008 21.8956C89.4885 22.5234 88.3306 22.263 87.6742 22.3923C87.7827 23.4182 87.9653 26.3465 87.6122 27.2203C87.3929 27.3671 87.4565 27.3275 87.176 27.3408C86.9428 27.1841 86.8523 27.0603 86.796 26.7722C86.6688 26.12 86.9379 22.5428 86.7185 22.3835C86.5236 22.2421 85.8721 22.2731 85.6226 22.273C85.5786 22.1851 85.5745 21.7408 85.5696 21.6125Z" fill="#BBBBBB"/>
<path d="M76.0184 22.9585C76.5367 22.8711 77.1958 22.8462 77.7002 23.0113C77.9247 23.0848 78.0784 23.1802 78.1873 23.3926C78.2037 23.6 78.2134 23.6512 78.1105 23.8418C77.7673 23.9577 77.1496 23.6135 76.8209 23.4862C76.519 23.5541 76.2155 23.6041 75.9584 23.7868C75.8453 23.9863 75.8478 24.0494 75.8626 24.2772C76.1847 24.8276 77.2895 24.7388 77.8391 25.0499C78.0544 25.1719 78.2182 25.3562 78.2807 25.5983C78.3715 25.9496 78.2743 26.4175 78.091 26.7267C77.8593 27.1173 77.4815 27.2831 77.0627 27.3918C76.5445 27.3981 76.0607 27.3674 75.5489 27.2859C75.2801 27.0802 75.0215 26.862 74.9263 26.5276C75.1473 26.1547 76.7877 26.9007 77.3235 26.6051C77.3995 26.5632 77.4782 26.5088 77.5003 26.4225C77.5449 26.249 77.4746 26.0454 77.3803 25.898C77.1376 25.5182 75.9938 25.3656 75.5628 25.2646C75.4145 25.0828 75.2379 24.8838 75.1495 24.6654C75.0326 24.3768 75.009 24.0015 75.1358 23.7123C75.3094 23.3163 75.6306 23.1109 76.0184 22.9585Z" fill="#BBBBBB"/>
<path d="M152.614 21.5359C152.799 21.5397 152.93 21.5517 153.098 21.6345C153.358 22.0495 153.177 25.7272 153.223 26.5356C153.805 26.5087 154.396 26.4341 154.977 26.4465C155.339 26.4543 155.615 26.4989 155.869 26.762C155.913 26.9471 155.929 27.0596 155.865 27.2442L155.674 27.3089C155.034 27.3016 152.784 27.4956 152.368 27.1229C152.268 26.7127 152.227 22.0584 152.314 21.7833C152.365 21.6234 152.472 21.6073 152.614 21.5359Z" fill="#BBBBBB"/>
<path d="M94.982 22.9549C95.4027 22.9074 95.8316 22.8578 96.2499 22.9488C96.6104 23.027 96.9284 23.1353 97.1322 23.4508C97.1445 23.6585 97.1559 23.7028 97.0409 23.8869C96.5174 24.1401 96.0771 23.5591 95.5911 23.5435C95.5495 23.5422 95.5087 23.5413 95.4679 23.544C94.9444 23.7109 94.7226 24.1055 94.4462 24.5433C94.4169 24.945 94.4307 25.3538 94.4315 25.7566C94.5212 25.9043 94.615 26.0525 94.7275 26.1842C94.9371 26.4288 95.2747 26.7045 95.6106 26.7257C95.8169 26.7387 96.1064 26.7139 96.2687 26.5735C96.3559 26.5064 96.4546 26.4249 96.5557 26.3809C96.731 26.3048 96.8485 26.3334 97.0164 26.4021C97.0491 26.4714 97.1037 26.5475 97.0939 26.624C97.0678 26.8348 96.9569 26.9844 96.7881 27.1104C96.192 27.5545 95.3856 27.3836 94.7104 27.2827C94.3598 26.9978 94.0303 26.733 93.8151 26.3266C93.4938 25.7329 93.4261 25.0356 93.6267 24.3914C93.8583 23.6538 94.3215 23.3043 94.982 22.9549Z" fill="#BBBBBB"/>
<path d="M68.1411 22.9437C68.356 22.9271 68.5713 22.9169 68.7867 22.9133C69.2608 22.9096 69.8687 22.9627 70.2199 23.3088C70.2872 23.5233 70.2796 23.5934 70.2314 23.8139C69.9494 23.9964 69.3487 23.7316 68.9932 23.684C68.6422 23.6369 68.2306 23.6768 67.9427 23.9009C67.7049 24.0862 67.5875 24.3709 67.5511 24.6628C67.4917 25.1387 67.5365 25.8691 67.8438 26.2519C68.0465 26.5042 68.3747 26.6662 68.6953 26.6989C68.9486 26.7246 69.2266 26.6987 69.4202 26.5391C69.5298 26.4784 69.6501 26.406 69.7698 26.3687C69.9491 26.3128 70.0585 26.3419 70.2166 26.4271C70.23 26.4809 70.2763 26.5993 70.2597 26.6481C70.159 26.943 69.9524 27.1303 69.6737 27.2637C69.17 27.5047 68.5123 27.4885 67.99 27.3039C67.5137 27.1356 67.1435 26.7943 66.9279 26.3405C66.6301 25.7136 66.5947 24.9213 66.8301 24.2689C67.0787 23.5796 67.4914 23.2493 68.1411 22.9437Z" fill="#BBBBBB"/>
<path d="M156.442 23.7786C156.225 23.652 156.081 23.6149 155.966 23.4165C156.092 22.9592 156.266 23.0351 156.51 22.7305C156.608 22.6084 156.463 21.9732 156.618 21.7192C156.846 21.6657 156.894 21.6799 157.117 21.7544C157.455 22.1225 157.295 22.4832 157.354 23.0013C157.804 22.9847 158.342 22.8977 158.674 23.2087C158.695 23.2283 158.715 23.2489 158.734 23.2703C158.641 23.7781 157.786 23.6809 157.384 23.6806C157.33 24.4001 157.151 25.8668 157.486 26.4421C158.023 26.8259 158.421 26.3082 158.78 26.9737C158.747 27.2171 158.791 27.1359 158.6 27.2978C157.572 27.5038 156.788 27.4993 156.533 26.3005C156.65 25.8231 156.809 24.1389 156.442 23.7786Z" fill="#BBBBBB"/>
<path d="M112.022 21.2834C112.204 21.3056 112.332 21.3365 112.492 21.4285C112.661 22.1264 112.573 26.0019 112.53 26.9127C112.518 27.1786 112.438 27.2551 112.25 27.4208C112.163 27.3937 111.734 27.273 111.697 27.2157C111.53 26.962 111.559 22.1142 111.672 21.6573C111.73 21.4268 111.829 21.3978 112.022 21.2834ZM111.888 26.6243C111.993 25.9968 112.144 22.5113 111.843 22.1195C111.832 22.106 111.828 22.1022 111.817 22.091C111.625 22.5749 111.576 25.9282 111.8 26.4591C111.823 26.5168 111.853 26.5721 111.888 26.6243Z" fill="#BBBBBB"/>
<path d="M111.817 22.0911C111.828 22.1023 111.832 22.106 111.843 22.1195C112.144 22.5113 111.993 25.9968 111.887 26.6243C111.853 26.5721 111.823 26.5168 111.799 26.4591C111.576 25.9282 111.625 22.575 111.817 22.0911Z" fill="#BBBBBB" fill-opacity="0.690196"/>
<path d="M59.4296 23.012C60.029 22.9689 59.9414 23.0992 60.4045 23.3579C60.669 23.2644 60.9351 23.1687 61.2032 23.0863C61.497 22.9959 61.643 23.0115 61.9067 23.1508C61.9943 23.3309 61.9873 23.3589 61.9477 23.5454C61.8136 23.7304 60.685 24.0493 60.3964 24.1773C60.3054 24.5821 60.276 24.9747 60.2562 25.3884C60.2705 25.8892 60.3519 26.5211 60.2494 27.0067C60.2083 27.2019 60.1895 27.2553 60.0236 27.3639C59.8147 27.3235 59.6774 27.2881 59.5178 27.1427C59.2152 25.8495 59.4114 24.338 59.4296 23.012Z" fill="#BBBBBB"/>
<path d="M122.809 22.9939C123.091 22.982 123.357 22.964 123.586 23.1508C123.697 23.6785 123.732 26.9161 123.544 27.3618C123.285 27.348 123.125 27.3635 122.897 27.2237C122.492 26.2734 122.755 24.0378 122.809 22.9939Z" fill="#BBBBBB"/>
<path d="M164.157 26.0935C164.395 26.0951 164.699 26.0879 164.92 26.1835C165.079 26.2523 165.213 26.364 165.27 26.5301C165.35 26.7676 165.229 27.0425 165.128 27.2532C164.917 27.3113 164.712 27.3277 164.495 27.342C164.435 27.316 164.276 27.2664 164.241 27.2206C163.994 26.9008 164.107 26.4637 164.157 26.0935Z" fill="#BBBBBB" fill-opacity="0.988235"/>
<path d="M147.351 26.1028C147.54 26.1092 147.735 26.1116 147.921 26.138C148.16 26.1716 148.243 26.276 148.377 26.454C148.456 26.7521 148.336 27.0838 148.265 27.3755C148.118 27.3678 147.97 27.3565 147.823 27.3416C147.695 27.3273 147.537 27.2863 147.452 27.179C147.213 26.8738 147.31 26.4615 147.351 26.1028Z" fill="#BBBBBB" fill-opacity="0.988235"/>
<path d="M156.442 23.7786C156.81 24.1389 156.651 25.8231 156.533 26.3005C156.509 26.2527 156.487 26.2035 156.469 26.1531C156.262 25.5936 156.192 24.3124 156.442 23.7786Z" fill="#BBBBBB" fill-opacity="0.215686"/>
<path d="M122.948 21.5295C123.241 21.5615 123.511 21.5781 123.719 21.7951C123.735 22.0271 123.609 22.1804 123.485 22.3641C123.327 22.341 123.125 22.3249 122.98 22.2618C122.804 22.1855 122.761 22.0998 122.698 21.9277C122.734 21.7368 122.811 21.6575 122.948 21.5295Z" fill="#BBBBBB"/>
<path d="M85.6226 22.273C85.4661 22.2846 85.2443 22.2677 85.0828 22.2606C84.826 22.0982 84.8798 22.178 84.7729 21.9136L84.8594 21.7356C85.0526 21.5644 85.3111 21.604 85.5696 21.6126C85.5745 21.7408 85.5786 22.1852 85.6226 22.273Z" fill="#BBBBBB" fill-opacity="0.972549"/>
<path d="M139.448 22.9382L139.537 22.9938L139.699 23.4167L139.373 23.5882C139.374 23.4435 139.428 23.0971 139.448 22.9382Z" fill="#BBBBBB" fill-opacity="0.0666667"/>
<path d="M33.1585 9.59783C33.2517 8.69255 33.1167 5.58048 33.3752 5.13641L33.505 5.12695C33.6862 5.38322 33.606 9.00702 33.6028 9.54588C34.6081 10.5053 35.9723 11.2334 37.0787 12.1351C37.2773 12.9634 37.1457 14.4595 37.2294 15.3253C37.2299 15.8721 37.2396 16.447 37.2136 16.991C37.753 16.9929 39.4351 16.8995 39.7662 17.2079C39.7983 17.436 39.788 17.3767 39.7025 17.6039C39.2904 17.8152 37.6217 17.6962 37.0612 17.6755C34.3122 19.8875 33.2039 19.2718 33.6448 23.2999C33.6966 23.7731 33.6467 24.4279 33.4532 24.8743L33.3399 24.8991L33.4405 24.8941L33.3518 24.9256C33.1734 24.3413 33.2459 21.2493 33.166 20.2656C32.4954 19.7845 30.2403 17.9195 29.5448 17.7255C29.4702 17.5333 29.3283 17.3962 29.2147 17.1067L29.3489 17.0024L29.5012 16.9578C29.6543 16.7657 29.6157 16.6728 29.6404 16.3967C29.6468 15.7956 29.7442 13.1727 29.5113 12.7959L29.2607 12.774C28.8383 12.6325 28.0572 12.8255 27.5143 12.6128L27.4489 12.4402C27.8319 11.9692 28.6887 12.4304 29.3889 12.1312C30.6443 11.5948 31.99 10.3958 33.1585 9.59783ZM30.0593 12.6317C30.0029 14.1513 30.0665 15.6816 30.044 17.2034C31.0308 18.1561 32.2262 18.9135 33.3716 19.6622C34.4239 18.9396 35.8616 18.1609 36.6892 17.1947C36.7254 15.6147 36.7903 14.0067 36.659 12.4312C35.5922 11.6543 34.486 10.9309 33.4255 10.1461C32.2582 10.906 31.0354 11.6308 30.0593 12.6317Z" fill="#BBBBBB" fill-opacity="0.980392"/>
<path d="M24.5591 18.6292C24.8001 18.9412 24.934 19.0952 25.3226 19.2019C26.4222 18.9106 25.5361 16.3931 26.075 15.6039C26.1719 15.4619 26.2411 15.4609 26.3997 15.4299C26.5215 15.4686 26.633 15.5072 26.7327 15.5896C26.9162 15.7412 26.8822 15.8479 26.9032 16.0772C26.9074 16.6787 26.9246 17.2861 26.8995 17.8869C26.8777 18.4105 26.7794 18.9942 26.3717 19.3633C25.8678 19.8194 25.2779 19.7626 24.6485 19.7369C24.3952 19.6052 24.1598 19.4416 23.9481 19.2503C23.5721 18.9069 23.5733 18.4433 23.5545 17.9705C23.5332 17.4342 23.3853 15.8207 23.7366 15.4406C23.9755 15.4302 24.1849 15.4412 24.4196 15.4881C24.7083 15.9093 24.5626 18.0228 24.5591 18.6292Z" fill="#BBBBBB"/>
<path d="M24.5862 10.2909C24.7861 10.287 24.9208 10.3009 25.1023 10.3885C25.6965 11.045 24.7755 12.8125 24.7852 13.6592C24.9893 14.0843 25.8976 13.6774 26.3609 13.9031C26.525 14.1379 26.4869 14.2934 26.4846 14.5709C25.8065 14.5765 25.1058 14.6139 24.43 14.5686C24.2343 14.5555 23.9742 14.5449 23.8386 14.3896C23.7025 13.3468 24.3088 11.3497 24.5862 10.2909Z" fill="#BBBBBB" fill-opacity="0.984314"/>
<path d="M12.7423 12.8271C12.9445 12.8605 13.066 12.8738 13.2706 12.8825C13.4467 13.3933 13.4369 16.583 13.2804 17.0148C13.1169 16.3406 13.2969 13.9565 13.1596 13.5813C13.1546 14.5443 13.2737 16.8527 12.8974 17.6431C12.1705 17.5744 11.1076 17.8704 10.2699 17.6432C10.0738 17.3202 10.0332 17.0834 10.5046 17.0351C11.2252 16.9613 11.9951 17.0058 12.7233 17.017C12.7183 15.685 12.6762 14.1431 12.7423 12.8271Z" fill="#BBBBBB" fill-opacity="0.968627"/>
<path d="M16.2604 20.2436L16.3569 20.5506L16.3887 20.4897L16.4714 20.493L16.3284 20.395L16.4929 20.4784C16.6133 20.3626 16.8637 20.1828 17.0055 20.0747C16.9391 20.4763 17.0314 23.9968 17.0166 24.7551C16.7875 24.7924 16.4693 24.8764 16.2733 24.7748C16.2122 24.3534 16.1703 20.5783 16.2604 20.2436Z" fill="#BBBBBB" fill-opacity="0.764706"/>
<path d="M15.9781 9.79712C15.9035 9.96679 15.8279 10.1361 15.7515 10.3049C15.9218 10.3955 15.9741 10.3338 16.2116 10.2744C15.4313 11.0702 14.0242 11.7013 13.2868 12.5653C13.2805 12.6881 13.2751 12.7938 13.2705 12.8825C13.0659 12.8738 12.9445 12.8605 12.7423 12.8271C12.4465 12.3465 10.1308 13.1224 9.9104 12.4113C10.1633 12.102 12.2217 12.199 12.7253 12.1904C13.7606 11.4336 15.0633 10.6475 15.9781 9.79712Z" fill="#BBBBBB" fill-opacity="0.972549"/>
<path d="M15.9781 9.79722C16.6556 9.23934 15.9561 6.24533 16.2892 5.26451C16.4487 5.10373 16.3782 5.13138 16.5732 5.11084L16.7353 5.26312C17.0984 6.35278 17.0274 7.58813 16.8671 8.7095L16.862 8.40787C16.7068 8.8469 16.7819 9.1586 16.8911 9.60316C16.8194 9.74129 16.6824 10.0254 16.5893 10.1309L16.2115 10.2745C15.9741 10.3339 15.9218 10.3956 15.7515 10.305C15.8279 10.1362 15.9035 9.9669 15.9781 9.79722Z" fill="#BBBBBB" fill-opacity="0.960784"/>
<path d="M19.8845 17.2483C20.1654 16.9818 20.2096 16.9672 20.5404 16.9661L20.6346 17.0219L20.8167 17.1007C20.6435 17.3187 20.499 17.1702 20.2698 17.6226L20.286 17.7205C19.3171 18.4448 17.8332 19.319 17.0054 20.0747C16.8636 20.1827 16.6133 20.3626 16.4928 20.4783L16.3284 20.3949L16.4714 20.493L16.3886 20.4897L16.3568 20.5505L16.2604 20.2435C16.077 20.047 15.8695 19.8564 15.6738 19.6707C15.7718 19.4938 15.8907 19.4596 16.0729 19.3778C16.0832 19.3861 16.0934 19.3943 16.1039 19.4023C16.2281 19.4983 16.5104 19.6519 16.6252 19.5984C17.1838 19.3385 19.5267 17.6278 19.8845 17.2483Z" fill="#BBBBBB" fill-opacity="0.980392"/>
<path d="M19.8368 12.5522C20.0427 12.8101 20.0926 12.874 20.3869 13.0191L20.5379 12.9998C20.5653 14.2069 20.5892 15.7566 20.5404 16.9662C20.2096 16.9674 20.1654 16.9819 19.8845 17.2484C19.7347 16.2789 19.8221 13.6225 19.8368 12.5522Z" fill="#BBBBBB" fill-opacity="0.717647"/>
<path d="M12.8975 17.6431C13.2737 16.8527 13.1546 14.5443 13.1596 13.5813C13.2969 13.9565 13.117 16.3406 13.2805 17.0148C13.1944 17.6936 15.6164 18.8467 16.073 19.3778C15.8907 19.4597 15.7719 19.4938 15.6739 19.6707C14.8645 19.1592 13.6194 18.2674 12.8975 17.6431Z" fill="#BBBBBB" fill-opacity="0.980392"/>
<path d="M16.8911 9.60327C18.0522 10.5597 18.9422 11.1683 20.1537 12.0326L19.6994 12.3608C19.2748 12.1772 17.2728 10.5405 16.5894 10.131C16.6825 10.0255 16.8194 9.7414 16.8911 9.60327Z" fill="#BBBBBB" fill-opacity="0.988235"/>
<path d="M37.0787 12.135C37.8634 12.2833 39.3399 12.0466 39.7921 12.4003L39.8268 12.5409C39.4874 12.9134 38.1201 12.4594 37.4233 12.891C37.0626 13.2956 37.2409 14.6498 37.2294 15.3253C37.1457 14.4594 37.2773 12.9633 37.0787 12.135Z" fill="#BBBBBB" fill-opacity="0.956863"/>
<path d="M29.2607 12.7742L29.5113 12.796C29.7442 13.1729 29.6469 15.7957 29.6404 16.3969C29.5689 16.5368 29.5485 16.5573 29.4319 16.664C29.0958 16.3834 29.3113 13.4179 29.2607 12.7742Z" fill="#BBBBBB" fill-opacity="0.145098"/>
<path d="M29.5447 17.7255C28.8839 17.7389 28.072 17.8454 27.5288 17.4483L27.5212 17.2614C27.9841 16.9191 28.7719 16.9967 29.3489 17.0024L29.2147 17.1067C29.3282 17.3963 29.4702 17.5333 29.5447 17.7255Z" fill="#BBBBBB" fill-opacity="0.784314"/>
<path d="M20.1536 12.0325C20.7129 12.2565 21.1954 12.2155 21.7966 12.1991L21.7819 12.695C21.498 12.6787 20.7608 12.5956 20.5638 12.7638L20.5379 12.9997L20.3869 13.019C20.0926 12.8739 20.0426 12.81 19.8368 12.5521L19.6993 12.3606L20.1536 12.0325Z" fill="#BBBBBB" fill-opacity="0.968627"/>
<path d="M22.6982 17.062C22.7121 17.2861 22.7383 17.4082 22.6156 17.5982C22.147 17.9008 20.9231 17.7123 20.286 17.7206L20.2699 17.6227C20.5749 17.5516 20.8459 17.4601 21.1497 17.3858C21.8142 17.2231 22.2676 17.6384 22.6982 17.062Z" fill="#BBBBBB" fill-opacity="0.737255"/>
<path d="M20.6346 17.0221C21.0875 17.0033 22.3127 16.9564 22.6982 17.062C22.2676 17.6384 21.8142 17.2231 21.1497 17.3857C20.8459 17.4601 20.5749 17.5516 20.2699 17.6227C20.499 17.1704 20.6435 17.3189 20.8168 17.1009L20.6346 17.0221Z" fill="#BBBBBB" fill-opacity="0.847059"/>
<path d="M32.964 5.50928C32.9766 5.52028 32.9855 5.52672 32.9954 5.53946C33.2492 5.86917 33.1184 8.52038 33.0652 9.04851C33.0144 9.03794 32.983 8.98518 32.949 8.94656C32.8761 7.82787 32.8794 6.62696 32.964 5.50928Z" fill="#BBBBBB" fill-opacity="0.458824"/>
<path d="M32.9764 20.9578C32.982 20.9647 32.9879 20.9714 32.9932 20.9786C33.2541 21.3282 33.1078 23.7987 33.0499 24.3168C33.0097 24.3134 32.9768 24.263 32.949 24.2331C32.9117 23.151 32.8709 22.036 32.9764 20.9578Z" fill="#BBBBBB" fill-opacity="0.454902"/>
<path d="M21.7967 12.1991C22.2005 12.1981 22.2099 12.1412 22.5388 12.3191L22.5939 12.4668C22.3486 12.7804 22.1594 12.712 21.782 12.695L21.7967 12.1991Z" fill="#BBBBBB" fill-opacity="0.980392"/>
<path d="M21.2993 2.03942C25.0105 1.87922 28.6684 1.81679 32.3395 2.33997C32.4813 2.36083 32.6542 2.35341 32.7926 2.38492C37.3073 3.41284 41.6303 4.7787 45.1462 7.88787C50.4868 12.6105 49.4097 18.7343 44.0042 22.7591C40.6765 25.2368 34.9767 27.4891 30.8718 27.6533C30.8343 27.6548 30.7968 27.656 30.7593 27.6566C30.5115 27.6322 30.228 27.6304 30.0337 27.4804C30.1792 27.3156 30.6327 27.2993 30.8703 27.2665C31.5719 27.2332 32.5291 26.9492 33.2464 26.7786C37.576 25.7487 41.8061 24.2538 45.0812 21.1427C49.0582 17.3647 49.1555 12.4017 45.1619 8.65744C41.1503 4.83067 35.4656 3.21853 30.0627 2.66236C29.6242 2.61722 29.3668 2.42558 28.9419 2.37159C26.817 2.31895 24.6648 2.38388 22.542 2.3686C22.1916 2.34202 21.4622 2.36936 21.2993 2.03942Z" fill="#BBBBBB" fill-opacity="0.968627"/>
<path d="M2.32668 17.2875C2.16756 16.9731 2.10073 16.8497 2.05842 16.4932C1.72953 13.8579 2.55429 11.5933 4.26563 9.56095C7.84251 5.3233 13.3899 3.51258 18.6439 2.38401C19.094 2.28735 20.0295 2.27398 20.5394 2.23022L20.8002 2.51157L20.7896 2.62327C20.5527 2.67714 20.3347 2.7124 20.0947 2.75059C19.1638 2.7811 17.9718 3.11955 17.0434 3.33122C11.294 4.64205 3.96188 7.75714 2.61987 14.1749C2.371 15.3651 2.84725 16.0076 2.7127 16.7721C2.45204 16.9256 2.3985 16.9664 2.32668 17.2875Z" fill="#BBBBBB" fill-opacity="0.976471"/>
<path d="M2.32678 17.2876C2.39861 16.9665 2.45215 16.9257 2.71281 16.7722C3.20365 19.2158 5.4402 21.62 7.4532 22.9858C10.4777 25.0378 14.1751 26.3053 17.7596 26.9451C18.4301 27.0648 18.1937 27.2438 19.1829 27.2664C19.4677 27.4341 20.0523 27.2143 20.2282 27.5689C19.9489 27.765 20.0351 27.7072 19.6377 27.7351C14.3673 27.2373 8.31334 25.0992 4.58664 21.2031C3.82049 20.4021 2.45169 18.3977 2.32678 17.2876Z" fill="#BBBBBB" fill-opacity="0.976471"/>
<path d="M19.1829 27.2664C20.5348 27.1507 20.8158 27.5495 21.6165 27.5498C23.6446 27.5505 27.113 27.745 29.0738 27.4744C29.2447 27.5604 29.4216 27.6442 29.5821 27.7477C29.4595 27.8059 29.2758 27.8812 29.1813 27.9704C27.6988 28.0479 20.6766 28.2432 19.6377 27.7351C20.0351 27.7072 19.9489 27.765 20.2282 27.5689C20.0524 27.2143 19.4677 27.4341 19.1829 27.2664Z" fill="#BBBBBB" fill-opacity="0.972549"/>
<path d="M20.5395 2.23026C20.7248 1.96181 21.0073 2.02569 21.2994 2.03947C21.4623 2.36941 22.1916 2.34207 22.5421 2.36865C21.3748 2.48717 21.6439 2.82148 20.0948 2.75062C20.3348 2.71243 20.5528 2.67718 20.7898 2.62331L20.8004 2.5116L20.5395 2.23026Z" fill="#BBBBBB" fill-opacity="0.788235"/>
<path d="M29.0737 27.4743C29.8497 27.2154 30.0356 27.2261 30.8703 27.2665C30.6327 27.2994 30.1792 27.3156 30.0337 27.4805C30.2281 27.6305 30.5115 27.6323 30.7593 27.6567C29.9244 27.7993 30.132 28.0073 29.1813 27.9703C29.2758 27.8811 29.4594 27.8058 29.5821 27.7476C29.4216 27.6442 29.2446 27.5603 29.0737 27.4743Z" fill="#BBBBBB" fill-opacity="0.839216"/>
<path d="M161.626 17.0105C159.968 17.7978 158.634 19.0278 156.589 18.3741C154.507 17.7087 153.936 15.6355 154.548 13.7126C155.356 11.1715 158.527 10.5806 160.834 10.3339C161.455 10.2675 162.56 10.2868 163.07 10.0321C163.176 9.87386 163.18 9.83297 163.184 9.63825C163.214 7.59437 159.769 8.14842 158.59 8.51029C158.068 8.67086 157.141 9.0546 156.77 9.03996C156.639 8.72842 157.08 6.24764 157.343 6.16065C159.391 5.48296 162.116 5.32229 164.233 5.72648C165.817 6.02892 166.243 6.5069 167 7.75986V9.74638C166.553 10.3071 165.522 16.8298 165.09 18.1143C163.901 18.1356 162.712 18.1339 161.524 18.1091C161.521 17.7706 161.585 17.3522 161.626 17.0105ZM158.241 13.9413C158.166 14.382 158.027 14.9178 158.311 15.3136C158.496 15.5726 158.816 15.6895 159.118 15.7523C159.862 15.9041 160.764 15.8052 161.411 15.3835C162.08 14.9471 162.31 14.2717 162.46 13.5329C162.5 13.3342 162.68 12.7078 162.591 12.5446C162.367 12.4683 162.18 12.4591 161.945 12.4657C160.384 12.6762 159.307 12.6242 158.241 13.9413Z" fill="#BBBBBB"/>
<path d="M0 13.2596C0.51698 12.753 0.519134 11.6459 0.931376 10.8578C3.58743 5.78065 9.12808 2.92579 14.4434 1.41049C15.3156 1.16181 16.4278 0.792295 17.315 0.720703C17.0296 0.919064 16.8446 1.15515 16.687 1.46406C16.3627 1.56415 16.0408 1.58419 15.7084 1.66272C8.29325 3.41476 -1.62934 8.81033 0.993356 17.9524C1.33217 19.1334 2.46974 20.7707 3.28608 21.7159C3.39165 22.1275 3.62832 22.3054 3.60488 22.552L3.47888 22.6045C2.58727 21.8442 1.1014 19.7034 0.687485 18.6121C0.459082 18.0099 0.450069 17.2481 0 16.6452V13.2596Z" fill="#BBBBBB" fill-opacity="0.980392"/>
<path d="M46.4944 22.6554C46.8498 22.7987 46.8764 22.6082 47.2103 22.6335C43.5508 26.3984 38.1574 28.2787 33.137 29.3306C32.4254 29.4797 29.9925 29.6624 29.9729 29.6918C29.9374 29.7452 29.9699 29.9209 29.9325 30H28.7247C28.6614 29.6249 28.6124 29.5556 28.2877 29.3904C29.0232 29.1398 31.5047 29.1358 32.7652 28.8686C36.9015 27.9916 40.6549 26.7822 44.2162 24.4334C44.8974 23.984 45.7185 23.2066 46.4944 22.6554Z" fill="#BBBBBB" fill-opacity="0.972549"/>
<path d="M34.7385 1.02539C39.355 2.30954 44.2303 4.10935 47.5367 7.77315C47.5716 8.04816 47.6327 8.14587 47.5186 8.36164L47.4252 8.39392C44.2549 4.83779 38.7966 2.35356 34.1656 1.50828C34.2265 1.40034 34.5587 1.20576 34.7385 1.02539Z" fill="#BBBBBB" fill-opacity="0.984314"/>
<path d="M8.41325 25.6785C9.05507 25.9425 9.66558 26.2358 10.2939 26.5293C12.7606 27.6818 15.4404 28.3851 18.1073 28.9011C19.5809 29.1861 21.0555 29.1181 22.5121 29.4263L22.0377 29.4779C22.0476 29.6849 22.0756 29.8302 21.9556 30H21.1229C20.8288 29.2794 19.8832 29.7014 19.0723 29.5781C15.3683 29.015 11.4172 27.8979 8.16919 26.0615L8.41325 25.6785Z" fill="#BBBBBB" fill-opacity="0.976471"/>
<path d="M49.1405 10.7945C49.1798 10.6156 49.3152 10.528 49.4557 10.408C50.5858 12.0638 50.853 14.8381 50.5086 16.7826C50.1685 18.7017 49.1681 20.3797 47.9218 21.8458C47.7703 22.0241 47.3686 22.5278 47.2102 22.6334C46.8764 22.6081 46.8498 22.7986 46.4944 22.6554C49.873 19.0823 51.3445 15.5757 49.1405 10.7945Z" fill="#BBBBBB" fill-opacity="0.988235"/>
<path d="M22.5116 0H29.76L29.6401 0.355871C29.1521 -0.00461354 28.5573 0.330727 28.0816 0.501857C27.8541 0.583714 27.4616 0.543028 27.2125 0.576768C26.1612 0.571007 25.11 0.570765 24.0586 0.576043C23.5857 0.52219 22.6882 0.700201 22.4279 0.443377L22.5116 0Z" fill="#BBBBBB" fill-opacity="0.980392"/>
<path d="M22.5121 29.4262C24.2953 29.4627 26.5171 29.5587 28.2877 29.3904C28.6124 29.5556 28.6614 29.6249 28.7247 30H21.9556C22.0756 29.8301 22.0475 29.6849 22.0377 29.4779L22.5121 29.4262Z" fill="#BBBBBB" fill-opacity="0.980392"/>
<path d="M20.9255 0H22.5115L22.4278 0.443377C22.6882 0.700201 23.5856 0.52219 24.0586 0.576043C22.1119 0.795941 18.535 0.720128 16.687 1.46405C16.8446 1.15515 17.0296 0.919057 17.315 0.720696C18.5902 0.498118 19.4158 0.452784 20.6959 0.358501C20.8745 0.233203 20.8342 0.231293 20.9255 0Z" fill="#BBBBBB" fill-opacity="0.94902"/>
<path d="M27.2124 0.576718C27.4615 0.542977 27.854 0.583663 28.0815 0.501806C28.5572 0.330676 29.152 -0.00466399 29.64 0.35582C30.7523 0.473807 33.7628 0.525355 34.7384 1.0254C34.5586 1.20578 34.2264 1.40036 34.1656 1.50829C33.6779 1.46161 32.2027 0.988697 31.4482 0.900218C30.0197 0.732682 28.6078 0.740303 27.2124 0.576718Z" fill="#BBBBBB" fill-opacity="0.964706"/>
<path d="M3.28613 21.7158C4.51636 23.1488 6.2355 24.3609 7.85512 25.3197C8.04988 25.435 8.23157 25.541 8.41325 25.6783L8.16919 26.0613C6.89011 25.341 4.35851 23.7731 3.47893 22.6044L3.60493 22.5519C3.62837 22.3053 3.3917 22.1274 3.28613 21.7158Z" fill="#BBBBBB" fill-opacity="0.980392"/>
<path d="M48.4867 8.94434C48.7123 9.24393 49.3842 10.0894 49.4556 10.4081C49.3151 10.5281 49.1797 10.6157 49.1405 10.7947C48.8125 10.2551 48.4667 9.72661 48.1036 9.20986C48.174 9.12913 48.3868 9.00702 48.4867 8.94434Z" fill="#BBBBBB" fill-opacity="0.984314"/>
<path d="M47.5366 7.77319C47.7868 8.02545 48.3694 8.60868 48.4868 8.94429C48.3869 9.00697 48.1741 9.12909 48.1037 9.20982L47.4252 8.39397L47.5185 8.36169C47.6327 8.14592 47.5716 8.04821 47.5366 7.77319Z" fill="#BBBBBB" fill-opacity="0.980392"/>
</g>
<defs>
<clipPath id="clip0_111_1557">
<rect width="167" height="30" fill="white"/>
</clipPath>
</defs>
</svg>
