<svg width="184" height="52" viewBox="0 0 184 52" fill="none" xmlns="http://www.w3.org/2000/svg">
<path fill-rule="evenodd" clip-rule="evenodd" d="M0.89383 23.088C-0.105027 19.24 0.998972 14.04 5.7304 9.41201C11.9864 3.22401 21.7647 2.44401 28.8618 7.12401L21.239 15.132L0.89383 23.088Z" fill="#BBBBBB"/>
<path fill-rule="evenodd" clip-rule="evenodd" d="M31.6481 9.41202C33.3304 11.076 34.5921 12.948 35.4858 14.976L27.6527 20.592L24.4458 21.32C24.2355 20.956 23.8675 20.748 23.4469 20.748H18.7155H13.9841C13.5635 20.748 13.1429 20.956 12.9327 21.32C12.7224 21.684 12.7224 22.152 12.9327 22.516C14.2469 24.804 14.1944 25.636 17.2961 24.492L11.6184 27.716C6.62408 30.576 2.15551 27.872 0.893799 23.088L16.0344 14.456L28.8618 7.12402C29.8607 7.80002 30.7544 8.52802 31.6481 9.41202Z" fill="#BBBBBB"/>
<path fill-rule="evenodd" clip-rule="evenodd" d="M35.4859 14.9761C37.0104 18.4601 37.3784 22.3081 36.5899 26.0001L28.0733 32.3961L11.1979 40.5081C9.51558 38.8441 8.77958 36.6601 9.09501 34.3201C9.41044 31.9801 10.6722 30.0561 12.775 28.9121L20.6082 24.4401C19.4516 25.4801 15.8767 27.6121 16.823 29.2761L17.6642 30.6801C17.8744 31.0441 18.2424 31.2521 18.7156 31.2521C19.1362 31.2521 19.5567 31.0441 19.767 30.6801L22.1327 26.6241L24.4984 22.5681C24.7087 22.2041 24.7087 21.7361 24.4984 21.3721V21.3201L35.4859 14.9761Z" fill="#BBBBBB"/>
<path fill-rule="evenodd" clip-rule="evenodd" d="M36.5898 26C35.9063 29.328 34.224 32.5 31.648 35.048L18.6629 47.892L11.1978 40.508L36.5898 26Z" fill="#BBBBBB"/>
<path d="M49.8379 16.068H44.791V14.872C44.791 14.404 44.9487 13.988 45.3167 13.624C45.6847 13.26 46.1053 13.104 46.5784 13.104H58.4596V16.12H53.4127V30.056H49.8904V16.068H49.8379Z" fill="#BBBBBB"/>
<path d="M58.5648 23.1919C58.6699 18.9279 60.9305 16.7959 65.3991 16.7959H65.8722V20.2799H64.7156C62.8231 20.2799 61.9293 21.2159 61.9293 23.1399V30.0039H58.5122V23.1919H58.5648Z" fill="#BBBBBB"/>
<path d="M72.6014 30.2639C71.2871 30.3679 70.1831 30.1599 69.2368 29.7439C67.8699 29.0679 67.1865 27.8719 67.1865 26.1559C67.2391 24.8039 67.6597 23.8159 68.5534 23.1399C69.4471 22.4639 70.9191 21.9959 72.9168 21.8399C74.3362 21.6839 75.0722 21.2159 75.0722 20.5399C75.0197 19.8119 74.2837 19.3959 72.9168 19.3959C71.7602 19.3959 71.0768 19.7079 70.9191 20.3319H67.5545C67.9225 17.8879 69.7099 16.6919 72.7591 16.6919C76.4391 16.6919 78.3317 17.8879 78.3842 20.3319V24.8039C78.3842 27.0399 77.5431 28.5999 75.9134 29.4839C75.0722 29.8479 73.9682 30.1599 72.6014 30.2639ZM72.4962 24.1279C71.1294 24.3879 70.4985 25.0119 70.4985 25.9999C70.5511 27.0399 71.1294 27.5599 72.1808 27.5599C73.0745 27.5599 73.8631 27.2999 74.3888 26.7799C74.9145 26.2599 75.1774 25.5319 75.1774 24.5959V23.3999C74.3888 23.7119 73.4951 23.9719 72.4962 24.1279Z" fill="#BBBBBB"/>
<path d="M83.9567 30.0039L79.2778 16.7959H82.9578L85.6915 26.0519L88.0047 17.9399C88.2675 17.1599 88.7933 16.7959 89.6344 16.7959H92.263L87.5315 30.0039H83.9567Z" fill="#BBBBBB"/>
<path d="M105.038 23.4519C105.038 27.9759 103.04 30.2639 98.9922 30.2639C94.9442 30.2639 92.9465 27.9759 92.9465 23.4519C92.9465 18.8759 94.9442 16.5879 98.9922 16.5879C103.04 16.5879 105.038 18.8759 105.038 23.4519ZM96.3637 23.4519C96.4162 25.9999 97.2574 27.2999 98.9922 27.2999C100.675 27.2999 101.568 25.9999 101.621 23.3479C101.621 20.7999 100.78 19.4999 99.0448 19.4999C97.2574 19.4999 96.3637 20.8519 96.3637 23.4519Z" fill="#BBBBBB"/>
<path d="M111.819 21.32L106.457 13.052H110.505L114.027 18.98L117.024 13.936C117.339 13.364 117.813 13.052 118.549 13.052H121.598L116.183 21.32L121.545 30.004H117.445L113.922 24.128L110.4 30.004H106.352L111.819 21.32Z" fill="#BBBBBB"/>
<path d="M126.382 33.4879C126.382 34.5799 125.804 35.1519 124.7 35.1519H123.017V22.5679C123.175 18.6159 125.278 16.6919 129.273 16.6919C133.426 16.6919 135.477 18.9279 135.477 23.3479C135.477 27.8199 133.689 30.1599 130.167 30.2639C128.485 30.2639 127.223 29.5879 126.382 28.2359V33.4879ZM132.06 23.4519C132.06 20.7999 131.113 19.4479 129.221 19.4479C127.328 19.4479 126.382 20.7999 126.434 23.4519C126.54 25.9999 127.486 27.2479 129.273 27.2479C131.061 27.2479 132.007 25.9999 132.06 23.4519Z" fill="#BBBBBB"/>
<path d="M137.054 23.1919C137.159 18.9279 139.42 16.7959 143.888 16.7959H144.361V20.2799H143.205C141.312 20.2799 140.418 21.2159 140.418 23.1399V30.0039H137.001V23.1919H137.054Z" fill="#BBBBBB"/>
<path d="M157.767 25.9479C157.346 27.4559 156.716 28.5479 155.822 29.2239C154.718 29.9519 153.456 30.3159 151.984 30.3159C147.936 30.1599 145.938 27.8719 145.938 23.3999C145.938 18.9279 147.989 16.6399 152.037 16.6399C156.295 16.6399 158.24 19.2399 157.977 24.3879H149.356C149.461 26.4159 150.354 27.4039 152.037 27.4039C152.825 27.4039 153.561 27.0919 154.192 26.4679C154.508 26.1559 154.876 25.9999 155.349 25.9999H157.767V25.9479ZM154.402 21.9439C154.192 20.1759 153.404 19.2919 151.932 19.2919C150.46 19.2919 149.618 20.1759 149.356 21.9439H154.402Z" fill="#BBBBBB"/>
<path d="M162.604 25.6359C162.656 26.3119 162.867 26.7799 163.34 27.0919C163.76 27.4039 164.444 27.5599 165.337 27.5599C166.757 27.5599 167.44 27.1439 167.44 26.3119C167.44 25.6359 166.284 25.1159 163.971 24.6999C161.027 24.1799 159.502 22.8799 159.502 20.7999C159.502 19.4999 159.975 18.4599 160.921 17.6799C161.815 16.9519 163.129 16.5879 164.812 16.5359C166.494 16.5359 167.861 16.8999 168.912 17.6799C169.911 18.4599 170.437 19.5519 170.489 20.9039H168.387C167.598 20.8519 167.125 20.5919 166.915 20.0719C166.704 19.4999 166.021 19.1879 164.917 19.1879C163.603 19.1879 162.972 19.5519 162.972 20.2279C162.972 20.9039 163.865 21.4239 165.6 21.7359C167.861 22.2039 169.385 22.7759 170.069 23.4519C170.7 24.0759 171.015 24.8559 171.015 25.7919C171.015 27.2479 170.489 28.3399 169.438 29.1199C168.439 29.8479 166.915 30.2639 164.917 30.2639C163.024 30.2639 161.657 29.8479 160.711 29.1199C159.712 28.3919 159.187 27.2479 159.187 25.6879H162.604V25.6359Z" fill="#BBBBBB"/>
<path d="M175.484 25.6359C175.536 26.3119 175.746 26.7799 176.22 27.0919C176.64 27.4039 177.324 27.5599 178.217 27.5599C179.637 27.5599 180.32 27.1439 180.32 26.3119C180.32 25.6359 179.164 25.1159 176.85 24.6999C173.906 24.1799 172.382 22.8799 172.382 20.7999C172.382 19.4999 172.855 18.4599 173.801 17.6799C174.695 16.9519 176.009 16.5879 177.692 16.5359C179.374 16.5359 180.741 16.8999 181.792 17.6799C182.791 18.4599 183.317 19.5519 183.369 20.9039H181.266C180.478 20.8519 180.005 20.5919 179.794 20.0719C179.584 19.4999 178.901 19.1879 177.797 19.1879C176.482 19.1879 175.852 19.5519 175.852 20.2279C175.852 20.9039 176.745 21.4239 178.48 21.7359C180.741 22.2039 182.265 22.7759 182.949 23.4519C183.58 24.0759 183.895 24.8559 183.895 25.7919C183.895 27.2479 183.369 28.3399 182.318 29.1199C181.319 29.8479 179.794 30.2639 177.797 30.2639C175.904 30.2639 174.537 29.8479 173.591 29.1199C172.592 28.3919 172.066 27.2479 172.066 25.6879H175.484V25.6359Z" fill="#BBBBBB"/>
<path d="M75.703 41.496L74.7042 40.144L73.7053 41.496H72.9167L74.2836 39.624L73.0219 37.856H73.8105L74.7567 39.156L75.703 37.856H76.439L75.1773 39.624L76.5442 41.496H75.703Z" fill="#BBBBBB"/>
<path d="M80.7499 39.156C80.7499 39.936 80.1716 40.456 79.1728 40.456H78.3316V41.496H77.6482V37.856H79.1728C80.1191 37.856 80.7499 38.324 80.7499 39.156ZM80.0665 39.156C80.0665 38.688 79.7511 38.428 79.1728 38.428H78.3316V39.884H79.1202C79.7511 39.884 80.0665 39.572 80.0665 39.156Z" fill="#BBBBBB"/>
<path d="M82.2219 37.856H82.9054V40.924H84.7979V41.496H82.2219V37.856Z" fill="#BBBBBB"/>
<path d="M85.7966 39.676C85.7966 38.584 86.6378 37.804 87.7943 37.804C88.9509 37.804 89.7921 38.584 89.7921 39.676C89.7921 40.768 88.9509 41.548 87.7943 41.548C86.6378 41.548 85.7966 40.716 85.7966 39.676ZM89.0561 39.676C89.0561 38.948 88.5303 38.428 87.7943 38.428C87.0583 38.428 86.5326 38.948 86.5326 39.676C86.5326 40.404 87.0583 40.924 87.7943 40.924C88.5303 40.924 89.0561 40.404 89.0561 39.676Z" fill="#BBBBBB"/>
<path d="M93.63 41.496L92.894 40.456C92.8414 40.456 92.7888 40.456 92.7362 40.456H91.8951V41.496H91.2117V37.856H92.7362C93.6825 37.856 94.3134 38.324 94.3134 39.156C94.3134 39.728 94.0505 40.092 93.5248 40.3L94.366 41.496H93.63ZM92.7362 38.428H91.9477V39.884H92.7362C93.3145 39.884 93.63 39.624 93.63 39.156C93.63 38.688 93.3145 38.428 92.7362 38.428Z" fill="#BBBBBB"/>
<path d="M98.5716 40.924V41.496H95.8379V37.856H98.519V38.428H96.5213V39.364H98.3087V39.936H96.5213V40.924H98.5716Z" fill="#BBBBBB"/>
<path d="M103.093 38.428H101.884V37.856H104.985V38.428H103.776V41.496H103.093V38.428Z" fill="#BBBBBB"/>
<path d="M109.559 37.856V41.496H108.876V39.936H106.983V41.496H106.3V37.856H106.983V39.364H108.876V37.856H109.559Z" fill="#BBBBBB"/>
<path d="M114.08 40.924V41.496H111.346V37.856H114.028V38.428H111.977V39.364H113.765V39.936H111.977V40.924H114.08Z" fill="#BBBBBB"/>
<path d="M117.813 39.884V37.856H118.496V39.884C118.496 40.612 118.812 40.924 119.442 40.924C120.073 40.924 120.389 40.612 120.389 39.884V37.856H121.072V39.884C121.072 40.924 120.494 41.496 119.495 41.496C118.391 41.548 117.813 40.976 117.813 39.884Z" fill="#BBBBBB"/>
<path d="M126.014 37.856V41.496H125.436L123.438 39.052V41.496H122.754V37.856H123.333L125.33 40.3V37.856H126.014Z" fill="#BBBBBB"/>
<path d="M130.062 41.496L129.063 40.144L128.064 41.496H127.276L128.642 39.624L127.381 37.856H128.169L129.116 39.156L130.062 37.856H130.798L129.536 39.624L130.903 41.496H130.062Z" fill="#BBBBBB"/>
<path d="M135.109 39.156C135.109 39.936 134.531 40.456 133.532 40.456H132.691V41.496H132.007V37.856H133.532C134.531 37.856 135.109 38.324 135.109 39.156ZM134.425 39.156C134.425 38.688 134.11 38.428 133.532 38.428H132.743V39.884H133.532C134.11 39.884 134.425 39.572 134.425 39.156Z" fill="#BBBBBB"/>
<path d="M136.581 37.856H137.264V40.924H139.157V41.496H136.581V37.856Z" fill="#BBBBBB"/>
<path d="M140.156 39.676C140.156 38.584 140.997 37.804 142.153 37.804C143.31 37.804 144.151 38.584 144.151 39.676C144.151 40.768 143.31 41.548 142.153 41.548C140.997 41.548 140.156 40.716 140.156 39.676ZM143.415 39.676C143.415 38.948 142.889 38.428 142.153 38.428C141.417 38.428 140.892 38.948 140.892 39.676C140.892 40.404 141.417 40.924 142.153 40.924C142.889 40.924 143.415 40.404 143.415 39.676Z" fill="#BBBBBB"/>
<path d="M147.989 41.496L147.253 40.456C147.2 40.456 147.148 40.456 147.095 40.456H146.254V41.496H145.623V37.856H147.148C148.094 37.856 148.725 38.324 148.725 39.156C148.725 39.728 148.462 40.092 147.936 40.3L148.777 41.496H147.989ZM147.095 38.428H146.306V39.884H147.095C147.673 39.884 147.989 39.624 147.989 39.156C147.989 38.688 147.673 38.428 147.095 38.428Z" fill="#BBBBBB"/>
<path d="M152.983 40.924V41.496H150.249V37.856H152.93V38.428H150.88V39.364H152.668V39.936H150.88V40.924H152.983Z" fill="#BBBBBB"/>
<path d="M154.508 37.856H156.085C157.294 37.856 158.082 38.584 158.082 39.676C158.082 40.768 157.294 41.496 156.085 41.496H154.508V37.856ZM156.085 40.924C156.926 40.924 157.452 40.456 157.452 39.676C157.452 38.948 156.926 38.428 156.085 38.428H155.191V40.924H156.085Z" fill="#BBBBBB"/>
</svg>
