<svg width="131" height="50" viewBox="0 0 131 50" fill="none" xmlns="http://www.w3.org/2000/svg">
<g clip-path="url(#clip0_111_51)">
<path d="M99.2317 43.9254C99.2317 44.098 99.1805 44.2763 99.0779 44.4605C98.9753 44.6447 98.8376 44.8202 98.6647 44.9839C98.4918 45.1477 98.2881 45.2895 98.0536 45.4094C97.8192 45.5278 97.5745 45.6038 97.3195 45.6374C97.2037 46.1389 97.022 46.6082 96.77 47.0468C96.5194 47.4854 96.2146 47.867 95.8571 48.1915C95.4996 48.5161 95.0922 48.7705 94.635 48.9547C94.1778 49.1389 93.6913 49.231 93.1726 49.231C92.777 49.231 92.437 49.171 92.1484 49.0526C91.8597 48.9342 91.6238 48.7763 91.4391 48.5789C91.2545 48.3816 91.1182 48.152 91.0318 47.8889C90.9453 47.6257 90.9028 47.3509 90.9028 47.0643C90.9028 46.7442 90.9541 46.4137 91.0567 46.0731C91.1593 45.7325 91.3102 45.4137 91.5065 45.1184C91.7044 44.8231 91.9447 44.5643 92.2289 44.3421C92.5132 44.1199 92.8312 43.9649 93.1858 43.8743C92.9221 43.6857 92.7316 43.462 92.6114 43.2032C92.4927 42.9444 92.4326 42.6754 92.4326 42.3977C92.4326 42.0775 92.4986 41.7617 92.6305 41.4488C92.7623 41.1374 92.9484 40.8538 93.1917 40.5994C93.4349 40.345 93.7207 40.1403 94.0489 39.9839C94.3771 39.8275 94.7405 39.75 95.1347 39.75C95.3809 39.75 95.6109 39.7836 95.8263 39.848C96.0403 39.9137 96.2278 40.0117 96.3875 40.1433C96.5473 40.2748 96.6733 40.4342 96.7641 40.6243C96.855 40.8129 96.9004 41.0351 96.9004 41.2895C96.9004 41.6594 96.8096 41.9649 96.6293 42.2061C96.4476 42.4488 96.2337 42.5687 95.9875 42.5687C95.7648 42.5687 95.5714 42.4576 95.4072 42.2368C95.482 42.212 95.5508 42.1637 95.6168 42.0906C95.6827 42.0175 95.7399 41.9298 95.7897 41.8275C95.8395 41.7251 95.8776 41.6184 95.9069 41.5029C95.9362 41.3889 95.9494 41.2792 95.9494 41.1725C95.9494 40.9196 95.8776 40.7427 95.734 40.6404C95.5904 40.538 95.4351 40.4868 95.271 40.4868C95.0893 40.4868 94.9207 40.5365 94.7654 40.6345C94.6086 40.7325 94.4753 40.864 94.3639 41.0278C94.2526 41.1915 94.1661 41.3787 94.1046 41.5877C94.043 41.7968 94.0123 42.0073 94.0123 42.2208C94.0123 42.4006 94.0342 42.5775 94.0797 42.75C94.1251 42.9225 94.1983 43.0819 94.3024 43.2295C94.405 43.3772 94.5339 43.5058 94.6907 43.617C94.8475 43.7281 95.0365 43.8114 95.2578 43.8684C94.9281 43.943 94.6292 44.0833 94.3566 44.2924C94.0855 44.5015 93.8525 44.7456 93.6591 45.0234C93.4657 45.3012 93.3148 45.5994 93.2093 45.9152C93.1023 46.231 93.0481 46.5278 93.0481 46.807C93.0481 47.1506 93.1389 47.4444 93.3192 47.6857C93.4994 47.9284 93.7998 48.0482 94.2203 48.0482C94.912 48.0482 95.4644 47.8538 95.8805 47.4634C96.2967 47.0731 96.6264 46.4722 96.874 45.6594C96.7099 45.6506 96.5473 45.6374 96.3861 45.6155C96.2264 45.595 96.0666 45.5848 95.9113 45.5848C95.3677 45.5848 94.9823 45.769 94.7508 46.1389L94.6643 46.1272C94.7874 45.6184 95.0556 45.2018 95.4659 44.8772C95.8776 44.5526 96.4037 44.3903 97.0455 44.3903C97.2184 44.3903 97.3781 44.4006 97.5261 44.421C97.6741 44.4415 97.8265 44.4518 97.9833 44.4518C98.2133 44.4518 98.439 44.4108 98.6617 44.3289C98.8845 44.2471 99.0486 44.1111 99.1555 43.9225H99.2303L99.2317 43.9254Z" fill="#BBBBBB"/>
<path d="M108.462 49.0103L109.252 43.4825L106.932 49.0103H105.241L105.487 43.4577L103.429 49.0103H102.451L105.574 40.5527C104.957 40.7574 104.476 41.0951 104.13 41.5615C103.785 42.0293 103.612 42.617 103.612 43.3217C103.612 43.4693 103.621 43.5907 103.637 43.6857C103.653 43.7808 103.669 43.8582 103.686 43.9196C103.703 43.981 103.722 44.0322 103.742 44.0731C103.763 44.1141 103.777 44.1477 103.786 44.1711C103.395 44.1711 103.078 44.0863 102.838 43.9182C102.598 43.75 102.478 43.465 102.478 43.0629C102.478 42.6609 102.593 42.2749 102.825 41.8802C103.056 41.4854 103.357 41.1331 103.726 40.8217C104.095 40.5103 104.511 40.2574 104.976 40.0644C105.44 39.8714 105.903 39.7749 106.364 39.7749C106.701 39.7749 107.022 39.8319 107.326 39.9474L107.042 46.4357L109.757 39.9474H111.535L110.239 49.0088H108.462V49.0103Z" fill="#BBBBBB"/>
<path d="M114.915 42.7925C115.951 42.7925 116.479 43.4372 116.495 44.7252C116.527 44.734 116.572 44.7369 116.631 44.7369C116.77 44.7369 116.926 44.7164 117.094 44.6755C117.263 44.6346 117.431 44.579 117.6 44.5088C117.768 44.4387 117.932 44.3597 118.093 44.2691C118.255 44.1784 118.4 44.0893 118.532 43.9986L118.643 44.3305C118.404 44.5849 118.093 44.7998 117.711 44.9767C117.329 45.1536 116.915 45.2778 116.471 45.3524C116.422 45.927 116.312 46.4445 116.139 46.9036C115.966 47.3641 115.747 47.7559 115.485 48.079C115.221 48.4036 114.921 48.6521 114.584 48.8232C114.247 48.9957 113.889 49.0819 113.51 49.0819C113.223 49.0819 112.956 49.0469 112.714 48.9767C112.471 48.9065 112.264 48.7939 112.091 48.6375C111.919 48.4811 111.784 48.2808 111.684 48.0337C111.586 47.7881 111.536 47.4884 111.536 47.1346C111.536 46.8963 111.561 46.6258 111.611 46.3217C111.661 46.0176 111.74 45.7047 111.851 45.3802C111.963 45.0556 112.105 44.7398 112.278 44.4314C112.45 44.1243 112.663 43.8466 112.914 43.601C113.164 43.3553 113.454 43.158 113.784 43.0103C114.112 42.8626 114.492 42.7881 114.92 42.7881L114.915 42.7925ZM114.002 47.927C114.15 47.927 114.3 47.8641 114.452 47.7369C114.605 47.6097 114.744 47.4328 114.871 47.2077C114.999 46.9825 115.112 46.7135 115.21 46.4007C115.308 46.0893 115.383 45.753 115.432 45.3904C115.301 45.3583 115.213 45.2939 115.167 45.1989C115.122 45.1053 115.1 44.9957 115.1 44.8729C115.1 44.7004 115.135 44.5586 115.205 44.4474C115.276 44.3363 115.368 44.2603 115.482 44.2194C115.466 43.965 115.422 43.7866 115.353 43.6843C115.283 43.5819 115.17 43.5308 115.013 43.5308C114.791 43.5308 114.581 43.6521 114.385 43.8933C114.187 44.136 114.014 44.4314 113.866 44.7793C113.718 45.1287 113.599 45.4971 113.508 45.8875C113.418 46.2778 113.372 46.6243 113.372 46.9284C113.372 47.1331 113.382 47.2998 113.403 47.427C113.423 47.5542 113.459 47.655 113.508 47.7281C113.558 47.8027 113.624 47.8539 113.706 47.8817C113.788 47.9109 113.887 47.924 114.002 47.924V47.927Z" fill="#BBBBBB"/>
<path d="M119.741 42.8539L119.568 43.6302C119.806 43.4007 120.056 43.2033 120.313 43.0396C120.573 42.8758 120.826 42.7939 121.072 42.7939C121.352 42.7939 121.563 42.889 121.708 43.0776C121.852 43.2662 121.924 43.4796 121.924 43.7179C121.924 43.8246 121.905 43.9314 121.868 44.0381C121.832 44.1448 121.776 44.2413 121.701 44.3276C121.626 44.4138 121.534 44.484 121.424 44.5366C121.313 44.5907 121.184 44.617 121.036 44.617C120.863 44.617 120.746 44.5761 120.684 44.4942C120.623 44.4124 120.579 44.3246 120.555 44.2296C120.53 44.1346 120.508 44.0469 120.488 43.965C120.467 43.8831 120.412 43.8422 120.321 43.8422C120.164 43.8422 120.016 43.8875 119.877 43.9782C119.736 44.0688 119.585 44.1872 119.42 44.3349L118.432 49.0132H116.655L117.963 42.8568H119.741V42.8539Z" fill="#BBBBBB"/>
<path d="M123.455 46.5235C123.446 46.5893 123.44 46.6521 123.436 46.7135C123.432 46.7749 123.43 46.8393 123.43 46.9051C123.43 47.0279 123.44 47.1492 123.461 47.2691C123.481 47.3875 123.519 47.4972 123.578 47.5951C123.635 47.6931 123.713 47.772 123.811 47.829C123.909 47.886 124.035 47.9153 124.192 47.9153C124.429 47.9153 124.681 47.8495 124.947 47.7179C125.212 47.5863 125.443 47.4343 125.64 47.2618C125.574 47.6156 125.473 47.908 125.338 48.1419C125.202 48.3758 125.039 48.5629 124.85 48.7018C124.661 48.8407 124.451 48.9401 124.22 48.9972C123.99 49.0542 123.751 49.0834 123.505 49.0834C122.929 49.0834 122.466 48.9314 122.117 48.6287C121.767 48.3246 121.593 47.8246 121.593 47.1258C121.593 46.8875 121.617 46.617 121.667 46.3129C121.717 46.0089 121.793 45.6975 121.896 45.3773C121.998 45.0571 122.136 44.7428 122.309 44.4358C122.482 44.1287 122.692 43.851 122.938 43.6053C123.184 43.3597 123.473 43.1624 123.802 43.0147C124.13 42.867 124.506 42.7925 124.925 42.7925C125.196 42.7925 125.42 42.8261 125.597 42.8904C125.775 42.9562 125.914 43.0439 126.016 43.1551C126.119 43.2662 126.189 43.3904 126.226 43.5308C126.263 43.6711 126.282 43.8188 126.282 43.9738C126.282 44.3276 126.204 44.6536 126.049 44.9533C125.893 45.253 125.684 45.5162 125.421 45.7413C125.159 45.9679 124.859 46.1477 124.519 46.2837C124.179 46.4197 123.824 46.4986 123.456 46.5235H123.455ZM125.331 43.9591C125.331 43.8042 125.307 43.6814 125.263 43.5922C125.218 43.503 125.137 43.4577 125.023 43.4577C124.866 43.4577 124.714 43.5337 124.566 43.6843C124.418 43.8349 124.277 44.0293 124.147 44.2662C124.015 44.503 123.896 44.7691 123.789 45.0629C123.682 45.3568 123.596 45.6463 123.53 45.9328C123.769 45.9255 123.997 45.8641 124.215 45.7486C124.434 45.6346 124.624 45.4869 124.79 45.3071C124.954 45.1273 125.086 44.9211 125.186 44.6887C125.284 44.4562 125.334 44.2135 125.334 43.9591H125.331Z" fill="#BBBBBB"/>
<path d="M9.91586 44.8553L14.2093 38.8685C14.2342 38.8217 14.2884 38.7164 14.3704 38.5351C14.5668 38.1068 14.7705 37.6594 14.9859 37.1799C15.172 36.7705 15.3258 36.4269 15.4519 36.136C14.3763 36.3685 13.2641 36.4869 12.127 36.4869C10.6427 36.4869 9.2257 36.348 7.91716 36.0746C6.33608 35.7442 4.95134 35.1565 3.80253 34.3261L3.76443 34.2983C2.7431 33.5337 1.96501 32.5673 1.43896 31.4182C0.952473 30.3553 0.706299 29.2398 0.706299 28.1009C0.706299 26.6126 1.12831 25.215 1.95769 23.9474C2.62148 22.9342 3.90657 21.6053 6.25109 21.0351L6.35952 21.0103L6.41667 20.9986C6.64672 20.9533 6.86799 20.9196 7.07606 20.8962C7.33396 20.8685 7.58453 20.8538 7.82191 20.8538C8.8916 20.8538 9.88949 21.0907 10.7936 21.5585C10.354 21.0805 9.93345 20.6155 9.53341 20.1682C8.69525 19.2296 7.99775 18.1857 7.46291 17.0658C6.83722 15.7573 6.51924 14.2939 6.51924 12.7179C6.51924 11.2266 6.83575 9.7632 7.45998 8.367C8.10033 6.93425 9.0352 5.69741 10.2353 4.68863C11.5189 3.5936 13.0136 2.80998 14.6694 2.36992C16.0922 1.99127 17.5898 1.79974 19.1196 1.79974C21.1681 1.79974 22.8327 2.09068 24.2072 2.68863C25.778 3.37431 26.9781 4.3436 27.7738 5.57021C28.5606 6.78805 28.9592 8.117 28.9592 9.52343C28.9592 10.7325 28.6896 11.9079 28.1592 13.0132C28.0815 13.1755 27.9994 13.3334 27.9115 13.4883C28.4068 13.4299 28.9446 13.4006 29.5322 13.4006H32.3075C32.7896 13.3027 33.279 13.253 33.7626 13.253C34.2461 13.253 34.693 13.3027 35.137 13.4006H37.0082C37.4552 12.9781 37.968 12.6316 38.5395 12.3641L38.7403 12.2705L38.9498 12.2003C39.5623 11.9971 40.1807 11.8933 40.7902 11.8933C42.3596 11.8933 43.7561 12.4591 44.8287 13.5278L45.1437 13.8421C45.9072 13.503 46.7277 13.3261 47.5615 13.3261C47.8912 13.3261 48.3176 13.3392 48.9052 13.367C49.0854 13.3758 49.2393 13.3816 49.3683 13.3816C49.38 13.3816 49.4298 13.3816 49.4415 13.3816L50.4189 13.2997L50.5742 13.75L52.4103 11.253L49.7448 3.61115L57.4451 6.1477L63.9057 1.25735L63.8676 9.34799L69.4007 13.1857C69.5179 13.1813 69.6337 13.1784 69.748 13.1784C71.4917 13.1784 72.9805 13.7544 74.0311 14.7734C74.3022 14.1404 74.5762 13.5439 74.8488 12.9869C75.1492 12.3319 75.5067 11.5878 75.9126 10.772C76.3566 9.86992 76.8739 8.91086 77.4497 7.92548C78.0432 6.89916 78.7246 5.89331 79.4719 4.9401C80.3408 3.83337 81.3138 2.91378 82.3644 2.20325C83.7257 1.27781 85.2145 0.808517 86.7853 0.808517C89.2485 0.808517 90.623 1.84214 91.3439 2.7091C92.1997 3.75004 92.6496 5.03805 92.6496 6.4401C92.6496 6.80267 92.6232 7.16963 92.5719 7.53805C92.9397 6.93717 93.3251 6.36115 93.7251 5.8129C94.7039 4.47372 95.7809 3.35822 96.9254 2.49711C98.4537 1.34945 100.142 0.769043 101.943 0.769043C104.476 0.769043 105.874 1.88893 106.601 2.82898C107.414 3.87431 107.845 5.1477 107.845 6.51173C107.845 7.47665 107.672 8.45472 107.334 9.41963C107.068 10.1565 106.806 10.7647 106.529 11.2895C106.164 12.0147 105.711 12.8188 105.182 13.6799C105.899 13.5424 106.635 13.4723 107.389 13.4723C109.378 13.4723 111.054 14.022 112.377 15.1082C112.848 14.6974 113.384 14.3202 113.982 13.9796L114.04 13.9459C115.479 13.1667 117.11 12.7764 118.905 12.7764C120.076 12.7764 121.165 12.9416 122.144 13.2661C123.155 13.6024 124.05 14.155 124.805 14.9079C125.805 15.9065 126.361 17.1974 126.421 18.655C128.046 18.7442 130.289 19.9635 130.289 23.1068C130.289 23.5951 130.222 24.1024 130.083 24.6579C129.954 25.174 129.763 25.6857 129.516 26.1784L129.448 26.3114L129.372 26.4386C128.932 27.1696 128.499 27.8758 128.083 28.5381C127.627 29.2632 127.074 30.0483 126.441 30.8728C124.966 32.8246 123.294 34.269 121.478 35.1579C119.677 36.0395 117.585 36.4854 115.261 36.4854C114.056 36.4854 112.893 36.3202 111.801 35.9927C110.739 35.6755 109.8 35.1916 109 34.5512C108.843 34.6404 108.685 34.7266 108.526 34.8085C106.856 35.6755 105.061 36.1155 103.194 36.1155C101.468 36.1155 99.8384 35.6886 98.3526 34.8465C97.8236 34.5468 97.3386 34.1886 96.9019 33.7764C96.2923 34.2179 95.6491 34.6126 94.9809 34.9562C93.6723 35.6287 92.3506 35.9693 91.0494 35.9693C89.5181 35.9693 88.1656 35.4503 87.1385 34.4869C86.6505 34.7968 86.1201 35.0761 85.531 35.3348C84.4452 35.8056 83.3447 36.0439 82.256 36.0439C81.1673 36.0439 80.1972 35.8027 79.2682 35.3261C78.6601 35.0103 78.1253 34.6024 77.6637 34.1038C77.627 34.1389 77.5919 34.174 77.5552 34.2076C76.2452 35.481 74.8473 35.7486 73.9051 35.7486H69.3948C68.8351 35.8948 68.2739 35.9679 67.7229 35.9679C65.0296 35.9679 63.5922 34.5804 62.9562 33.7106L62.3569 35.7471H53.3539C52.7942 35.8933 52.2315 35.9679 51.6805 35.9679C50.8101 35.9679 49.9646 35.7837 49.166 35.4196C48.8114 35.2588 48.363 34.9986 47.9059 34.5921C47.8135 34.6535 47.7212 34.715 47.6289 34.7734C46.3512 35.5907 45.028 36.0044 43.696 36.0044C41.4951 36.0044 39.5872 34.8597 38.5923 32.943L38.5498 32.8626L38.5117 32.7793C38.4076 32.5512 38.3124 32.3173 38.2303 32.0761C37.4742 32.8261 36.6712 33.5015 35.8257 34.0951C33.6746 35.6068 31.1103 36.3728 28.206 36.3728H27.6712C27.3576 36.3728 27.0426 36.3553 26.7099 36.3173C26.6982 36.3173 26.685 36.3144 26.6733 36.3144L26.0125 38.3728C25.7106 39.3334 25.4278 40.1287 25.1508 40.7983C24.6644 41.9723 23.9742 42.9182 23.1009 43.6068C22.0517 44.4342 20.7241 44.8553 19.1533 44.8553H9.9144H9.91586Z" fill="#BBBBBB"/>
<path d="M12.127 32.6506C10.9005 32.6506 9.75903 32.5409 8.70547 32.3202C7.65043 32.0994 6.76684 31.7325 6.05616 31.2193C5.56528 30.8524 5.19162 30.3874 4.93372 29.8246C4.67582 29.2617 4.54688 28.6871 4.54688 28.0994C4.54688 27.3655 4.75495 26.6798 5.17257 26.0439C5.59019 25.4079 6.25105 24.9795 7.15955 24.7588C7.28264 24.7354 7.3984 24.7164 7.50976 24.7032C7.61966 24.6915 7.7237 24.6842 7.82334 24.6842C8.31422 24.6842 8.74943 24.7939 9.12894 25.0146C9.50846 25.2354 9.77369 25.4927 9.92022 25.7851C9.82204 25.8582 9.68723 25.9869 9.51579 26.1711C9.34435 26.3538 9.23298 26.5073 9.18463 26.6301C8.81683 27.2427 8.6322 27.8538 8.6322 28.4664C8.6322 29.2983 8.9575 29.9781 9.60664 30.5044C10.2558 31.0307 11.1086 31.2939 12.1636 31.2939C13.1205 31.2939 14.0217 31.0556 14.8686 30.5775C15.7156 30.0994 16.4014 29.4576 16.9289 28.6506C17.4564 27.8421 17.7201 26.9138 17.7201 25.8597C17.7201 25.076 17.5355 24.2442 17.1677 23.3626C16.8483 22.6038 16.4131 21.9313 15.8621 21.3436C15.3097 20.7559 14.788 20.2062 14.2986 19.6915C13.6363 18.9825 13.0047 18.2909 12.4039 17.617C11.8032 16.9445 11.3123 16.2105 10.9328 15.4138C10.5518 14.6184 10.3627 13.7193 10.3627 12.7149C10.3627 11.7105 10.565 10.8304 10.9694 9.92545C11.3738 9.02048 11.957 8.25001 12.7175 7.61258C13.5762 6.87867 14.558 6.36405 15.6614 6.07019C16.7648 5.77633 17.918 5.63013 19.121 5.63013C20.6171 5.63013 21.8011 5.82019 22.6715 6.19884C23.5419 6.57896 24.1676 7.06141 24.5486 7.64913C24.9281 8.23685 25.1186 8.86112 25.1186 9.52194C25.1186 10.1828 24.9764 10.7705 24.6951 11.3582C24.4123 11.9459 24.0269 12.4415 23.536 12.845C23.0451 13.2485 22.5059 13.5 21.9168 13.598C21.8187 13.6228 21.7205 13.6345 21.6223 13.6345H21.2911C20.7504 13.6345 20.2786 13.5117 19.8742 13.2676C19.4697 13.0234 19.2675 12.6067 19.2675 12.019C19.2675 11.9459 19.2734 11.8597 19.2866 11.7617C19.2983 11.6638 19.3173 11.5658 19.3423 11.4678C19.7833 11.4678 20.2376 11.3085 20.7035 10.9898C21.1695 10.6725 21.4758 10.3173 21.6238 9.92545C21.7469 9.6082 21.8084 9.31434 21.8084 9.04387C21.8084 8.38305 21.508 7.86258 20.9072 7.48393C20.3064 7.10527 19.6016 6.91521 18.7913 6.91521C17.8344 6.91521 16.9816 7.11697 16.2343 7.52048C15.4855 7.92399 14.9038 8.4503 14.4862 9.09943C14.0686 9.74855 13.8605 10.4518 13.8605 11.2105C13.8605 11.9693 14.0935 12.7032 14.5594 13.4138C14.9521 13.9766 15.443 14.5585 16.0306 15.1579C16.6197 15.7573 17.2205 16.3333 17.833 16.8831C18.4455 17.4342 18.973 17.9415 19.4155 18.4064C20.4207 19.386 21.1446 20.3831 21.5871 21.3991C22.0282 22.4152 22.2495 23.4123 22.2495 24.3918C22.2495 25.5176 21.9857 26.576 21.4582 27.5673C20.9307 28.5585 20.2009 29.4342 19.269 30.1915C18.337 30.9503 17.2571 31.5497 16.0306 31.9898C14.8041 32.4298 13.5044 32.6506 12.1299 32.6506H12.127Z" fill="white"/>
<path d="M43.699 32.1739C42.9136 32.1739 42.3495 31.8435 42.0066 31.1827C41.7369 30.595 41.6021 29.8976 41.6021 29.0906C41.6021 28.1856 41.7369 27.1812 42.0066 26.0804C42.2762 24.9795 42.644 23.8538 43.11 22.7032C43.2814 22.288 43.5085 21.7617 43.7913 21.1242C44.0727 20.4883 44.4112 19.864 44.8039 19.2514C44.4595 19.5453 44.0551 19.7836 43.5891 19.9678C43.1231 20.152 42.6689 20.2427 42.2278 20.2427C41.8835 20.2427 41.6021 20.1944 41.3809 20.0965C41.1845 20.4883 40.8651 21.1242 40.424 22.0058C39.983 22.8874 39.3939 23.9269 38.6583 25.1272C38.585 25.25 38.5162 25.2441 38.4561 25.1081C38.3945 24.9736 38.3638 24.7836 38.3638 24.5394C38.3638 24.3435 38.3872 24.1359 38.437 23.9152C38.4854 23.6944 38.5601 23.4868 38.6583 23.2909C38.903 22.826 39.1492 22.3421 39.3939 21.8406C39.6386 21.3391 39.8599 20.8918 40.0562 20.5C40.2526 20.1081 40.3625 19.864 40.3874 19.766C39.9463 19.5453 39.6152 19.2339 39.3939 18.8304C39.1726 18.4269 39.0627 18.0292 39.0627 17.6374C39.0627 17.2456 39.155 16.8903 39.3382 16.5731C39.5228 16.2558 39.7983 16.0102 40.1661 15.8391C40.3874 15.766 40.5955 15.7295 40.7918 15.7295C41.3311 15.7295 41.7721 15.9005 42.1165 16.2441C42.0916 16.3421 42.074 16.4459 42.0608 16.557C42.0476 16.6666 42.0417 16.7836 42.0417 16.9064C42.0417 17.6652 42.348 18.228 42.962 18.595C43.5745 18.9619 44.2368 19.0965 44.9489 18.9985C45.2918 18.5087 45.6845 18.0804 46.1271 17.7134C46.5681 17.3465 47.0473 17.1622 47.5616 17.1622C47.8312 17.1622 48.2181 17.1754 48.7207 17.1988C49.2233 17.2236 49.5852 17.2236 49.8065 17.1988C49.66 17.2967 49.487 17.4927 49.2907 17.7865C49.0943 18.0804 48.9097 18.3859 48.7383 18.7046C48.5668 19.0234 48.4305 19.2675 48.3338 19.4386C47.6715 20.7119 47.0575 21.978 46.4934 23.2383C45.9292 24.4985 45.4999 25.7046 45.2054 26.8552C45.1555 27.076 45.1131 27.2777 45.0764 27.4605C45.0398 27.6447 45.0207 27.8348 45.0207 28.0292C45.0207 28.7631 45.2654 29.1301 45.7563 29.1301C46.0992 29.1301 46.5901 28.8859 47.2275 28.3962C47.7917 27.9312 48.2943 27.4181 48.7368 26.8538C49.2277 26.2178 49.6937 25.5321 50.1347 24.7982C50.5758 24.0643 50.9568 23.3903 51.2747 22.7792C51.3978 22.5833 51.4828 22.4853 51.5326 22.4853C51.6792 22.4853 51.7539 22.7061 51.7539 23.1462C51.7539 23.3172 51.729 23.5263 51.6806 23.7704C51.6308 24.016 51.5458 24.2485 51.4227 24.4678C51.0549 25.0804 50.6373 25.747 50.1714 26.4693C49.7054 27.1915 49.2262 27.8947 48.7368 28.5804C48.4174 29.0204 47.9704 29.5234 47.3931 30.0862C46.8158 30.6491 46.2033 31.1388 45.5527 31.5541C44.902 31.9693 44.2837 32.1783 43.6946 32.1783L43.699 32.1739Z" fill="white"/>
<path d="M51.6835 32.1374C51.3641 32.1374 51.0578 32.0701 50.7633 31.9356C50.4688 31.8011 50.2241 31.538 50.0277 31.1462C49.7581 30.5584 49.6233 29.8611 49.6233 29.0541C49.6233 28.1725 49.7581 27.1886 50.0277 26.0994C50.2973 25.0102 50.6534 23.8903 51.0945 22.7397C51.2659 22.3231 51.4872 21.8099 51.7568 21.1973C52.0264 20.5862 52.3459 19.9736 52.7137 19.3611C53.0815 18.75 53.5049 18.2412 53.9826 17.8377C54.4603 17.4342 54.982 17.2324 55.5461 17.2324C55.8158 17.2324 56.1953 17.2456 56.6862 17.269C57.177 17.2938 57.5331 17.2938 57.7529 17.269C57.6064 17.3669 57.4335 17.5628 57.2371 17.8567C57.0408 18.1506 56.8561 18.4503 56.6847 18.7558C56.5132 19.0628 56.377 19.3011 56.2803 19.4722C55.6414 20.7456 55.0406 22.0058 54.4779 23.2529C53.9138 24.5014 53.4844 25.7003 53.1899 26.8508C53.1401 27.0467 53.1034 27.2427 53.08 27.4386C53.0551 27.6345 53.0434 27.8187 53.0434 27.9897C53.0434 28.7003 53.2763 29.0541 53.7423 29.0541C53.9387 29.0541 54.1526 28.9985 54.3856 28.8889C54.6186 28.7792 54.8941 28.6008 55.2135 28.3567C55.7777 27.9166 56.2685 27.4152 56.6847 26.8508C57.1756 26.2149 57.6415 25.5351 58.0826 24.8128C58.5237 24.0906 58.9047 23.4239 59.2226 22.8114C59.3457 22.6155 59.4307 22.5175 59.4805 22.5175C59.6271 22.5175 59.7018 22.7251 59.7018 23.1418C59.7018 23.3377 59.671 23.5643 59.6095 23.8216C59.5479 24.0789 59.4556 24.3172 59.334 24.538C58.9896 25.1257 58.5852 25.7748 58.1192 26.4839C57.6533 27.1944 57.1741 27.8786 56.6847 28.5394C56.3403 29.0044 55.8876 29.519 55.3234 30.0818C54.7593 30.6447 54.1585 31.1286 53.5211 31.5321C52.8836 31.9356 52.2697 32.1374 51.6806 32.1374H51.6835Z" fill="white"/>
<path d="M67.7258 32.1374C66.892 32.1374 66.3206 31.886 66.0143 31.3845C65.7066 30.8831 65.5542 30.3012 65.5542 29.6404C65.5542 28.8319 65.7139 27.8597 66.0319 26.7222C66.3499 25.5848 66.725 24.4342 67.1543 23.2705C67.5837 22.1082 67.969 21.0746 68.3134 20.1681C68.4116 19.9474 68.4614 19.7149 68.4614 19.4708C68.4614 19.2018 68.3749 19.0059 68.2035 18.8831C68.0321 18.7603 67.8108 18.6988 67.5412 18.6988C67.1485 18.6988 66.7074 18.8217 66.2165 19.0658C65.456 19.4576 64.7321 20.0819 64.0449 20.9386C63.3577 21.7953 62.8052 22.6886 62.3891 23.6184C61.9231 24.6711 61.5055 25.7237 61.1377 26.7749C60.7699 27.8275 60.4754 28.6842 60.2541 29.345C60.1076 29.7617 59.9713 30.1901 59.8497 30.6301C59.7266 31.0702 59.6035 31.4986 59.4819 31.9152H55.9124C56.2318 30.6915 56.5131 29.7734 56.7593 29.1623C57.1755 28.0863 57.5989 27.0088 58.0283 25.9313C58.4576 24.8553 58.8313 23.9006 59.1507 23.0673C59.2489 22.8231 59.4013 22.3641 59.6108 21.6901C59.8189 21.0176 60.0153 20.3129 60.1999 19.579C60.3845 18.845 60.4754 18.2456 60.4754 17.7807C60.4754 17.5117 60.4387 17.3275 60.3655 17.2295C60.5867 17.2295 60.8373 17.2237 61.1201 17.2105C61.4015 17.1988 61.6652 17.1915 61.9114 17.1915C62.2543 17.1915 62.5796 17.2047 62.8858 17.2281C63.1921 17.2529 63.3943 17.3143 63.4925 17.4123C63.787 17.6331 63.9335 17.9518 63.9335 18.367C63.9335 18.6608 63.8779 18.9547 63.768 19.2486C63.6581 19.5424 63.5775 19.7866 63.5291 19.9825C63.872 19.6652 64.2281 19.3582 64.5959 19.0643C64.9637 18.7705 65.5278 18.3918 66.2883 17.9269C66.7294 17.6579 67.2818 17.4372 67.9441 17.2661C68.6065 17.095 69.2072 17.0088 69.7465 17.0088C71.1444 17.0088 71.8448 17.6579 71.8448 18.9547C71.8448 19.1755 71.8272 19.4196 71.7891 19.6886C71.7525 19.9576 71.6719 20.2515 71.5503 20.5702C71.4272 20.962 71.2309 21.5 70.9612 22.1857C70.6916 22.8714 70.4147 23.5994 70.1333 24.3699C69.8505 25.1404 69.6117 25.8699 69.4153 26.5541C69.219 27.2398 69.1208 27.791 69.1208 28.2062C69.1208 28.7939 69.3421 29.0877 69.7831 29.0877C70.1758 29.0877 70.6667 28.8436 71.2543 28.3538C71.8184 27.8889 72.3093 27.3874 72.7255 26.848C73.2413 26.212 73.7131 25.5322 74.1425 24.81C74.5718 24.0877 74.9455 23.4211 75.2649 22.8085C75.3865 22.6126 75.473 22.5146 75.5228 22.5146C75.6708 22.5146 75.744 22.7222 75.744 23.1389C75.744 23.3348 75.7133 23.5614 75.6517 23.8187C75.5902 24.076 75.4979 24.3143 75.3763 24.5351C75.0319 25.1228 74.6275 25.7719 74.1615 26.481C73.6955 27.1915 73.2164 27.8757 72.7269 28.5366C72.3826 29.0015 71.9298 29.5161 71.3657 30.079C70.8015 30.6418 70.2007 31.1257 69.5633 31.5293C68.9259 31.9328 68.3119 32.1345 67.7229 32.1345L67.7258 32.1374Z" fill="white"/>
<path d="M115.267 32.6506C114.433 32.6506 113.648 32.5409 112.912 32.3201C112.176 32.0994 111.574 31.7573 111.11 31.2924C110.644 30.8275 110.411 30.2397 110.411 29.5307C110.411 28.9927 110.576 28.4663 110.907 27.9517C111.239 27.4386 111.71 27.1813 112.324 27.1813C112.594 27.1813 112.839 27.2427 113.06 27.364C113.281 27.4868 113.428 27.6462 113.501 27.8421C113.476 27.8669 113.415 27.9459 113.316 28.0804C113.218 28.2149 113.157 28.307 113.132 28.3552C112.91 28.7953 112.801 29.2003 112.801 29.5672C112.801 30.0818 112.991 30.497 113.371 30.8158C113.75 31.1345 114.247 31.2938 114.861 31.2938C115.671 31.269 116.376 30.981 116.977 30.4313C117.578 29.8801 117.878 29.2266 117.878 28.4678C117.878 28.0277 117.78 27.6111 117.583 27.2193C117.264 26.5584 116.84 25.9897 116.314 25.5117C115.787 25.0336 115.284 24.5511 114.805 24.0614C114.326 23.5716 113.977 22.9853 113.756 22.2997C113.658 21.9824 113.608 21.5906 113.608 21.1242C113.608 20.6579 113.67 20.2003 113.793 19.747C113.914 19.2938 114.099 18.9093 114.345 18.5906C114.688 18.1257 115.204 17.6973 115.891 17.3055C116.75 16.8406 117.755 16.6082 118.908 16.6082C119.669 16.6082 120.343 16.7061 120.932 16.902C121.373 17.0482 121.76 17.288 122.091 17.6184C122.422 17.9488 122.587 18.383 122.587 18.921C122.587 19.5336 122.397 20.114 122.017 20.6652C121.636 21.2163 121.091 21.5526 120.381 21.6754C119.94 21.7251 119.547 21.6447 119.203 21.4371C118.858 21.2295 118.737 20.8318 118.835 20.2441C119.497 20.0979 119.975 19.8289 120.269 19.4356C120.416 19.2149 120.491 18.9956 120.491 18.7748C120.491 18.3582 120.325 18.0716 119.994 17.9122C119.663 17.7529 119.351 17.6739 119.056 17.6739C118.688 17.6739 118.338 17.7163 118.007 17.8026C117.676 17.8889 117.375 18.0292 117.106 18.2251C116.565 18.69 116.295 19.2295 116.295 19.8406C116.295 19.9386 116.314 20.0482 116.351 20.171C116.388 20.2938 116.418 20.4166 116.443 20.538C116.565 20.8567 116.75 21.1506 116.996 21.4196C117.241 21.69 117.487 21.921 117.731 22.1169C118.344 22.557 118.975 23.0351 119.626 23.5482C120.275 24.0628 120.76 24.6856 121.08 25.421C121.324 25.9342 121.447 26.462 121.447 27C121.447 27.7339 121.263 28.402 120.895 29.0014C120.527 29.6008 120.11 30.0731 119.644 30.4152C120.454 30.0731 121.244 29.4663 122.017 28.5979C122.79 27.7295 123.458 26.8669 124.024 26.0102C124.391 25.4473 124.728 24.9152 125.036 24.4137C125.342 23.9122 125.656 23.3552 125.974 22.7427C126.072 22.5716 126.158 22.4853 126.232 22.4853C126.38 22.4853 126.453 22.693 126.453 23.1096C126.453 23.2807 126.422 23.4897 126.361 23.7339C126.299 23.9795 126.207 24.2237 126.085 24.4678C125.644 25.2017 125.227 25.8815 124.834 26.5058C124.441 27.1301 123.963 27.8084 123.399 28.5438C122.271 30.0365 121.068 31.095 119.793 31.7193C118.517 32.3435 117.009 32.6549 115.267 32.6549V32.6506Z" fill="white"/>
<path d="M112.985 22.3715C112.914 22.3715 112.827 22.4577 112.729 22.6302C112.36 23.3407 112.043 23.9329 111.771 24.4109C111.501 24.8861 111.243 25.31 111 25.6755C110.754 26.044 110.459 26.4343 110.116 26.851C109.674 27.4138 109.127 28.0016 108.477 28.6141C107.826 29.2253 107.13 29.7384 106.38 30.1551C105.632 30.5717 104.879 30.7779 104.119 30.7779C103.21 30.7779 102.549 30.4913 102.132 29.9168C101.714 29.3422 101.507 28.601 101.507 27.696C101.507 26.6916 101.74 25.5907 102.206 24.389C102.744 24.6595 103.518 24.7925 104.525 24.7925C105.014 24.7925 105.536 24.7516 106.087 24.6653C106.64 24.5805 107.159 24.4504 107.652 24.2793C108.658 23.9138 109.473 23.3802 110.1 22.6829C110.724 21.9855 111.038 21.1726 111.038 20.2428C111.038 19.4577 110.718 18.7735 110.08 18.1858C109.442 17.5981 108.548 17.3042 107.395 17.3042C105.848 17.3042 104.437 17.734 103.162 18.5893C101.887 19.4475 100.832 20.5235 99.9981 21.8217C99.4574 22.6522 99.0222 23.5644 98.6925 24.5557C98.3599 25.5469 98.1958 26.5074 98.1958 27.4387C98.1958 28.0016 98.2676 28.5396 98.4156 29.0542C98.7336 30.1814 99.3475 31.0016 100.255 31.5147C101.162 32.0279 102.145 32.2837 103.2 32.2837C104.45 32.2837 105.641 31.9899 106.768 31.4051C107.432 31.063 108.043 30.6463 108.61 30.1551C109.174 29.6668 109.675 29.1273 110.118 28.5396C110.607 27.8773 111.094 27.1872 111.57 26.465C112.049 25.7443 112.458 25.0776 112.804 24.4636C112.95 24.1946 113.054 23.9314 113.116 23.6741C113.177 23.4182 113.208 23.1785 113.208 22.9592C113.208 22.5688 113.133 22.3715 112.985 22.3715ZM103.95 19.4606L105.413 19.9431L106.642 19.0133L106.635 20.5513L107.899 21.4299L106.432 21.8978L105.987 23.37L105.086 22.1229L103.544 22.1536L104.459 20.9138L103.952 19.4606H103.95Z" fill="white"/>
<path d="M58.1616 10.4181L60.0299 9.00439L60.0181 11.3436L61.9436 12.6798L59.7104 13.3918L59.032 15.6316L57.6619 13.7325L55.3174 13.7807L56.705 11.8947L55.9343 9.68422L58.1616 10.4181Z" fill="white"/>
<path d="M90.6478 22.5541C90.5921 22.5541 90.5306 22.6053 90.4559 22.7076C90.4559 22.7106 90.4529 22.712 90.4529 22.712C90.4324 22.7398 90.4119 22.7734 90.3914 22.8114C90.072 23.4225 89.6924 24.0892 89.2484 24.8129C88.8074 25.5337 88.3414 26.2135 87.8505 26.8494C87.4329 27.4123 86.9435 27.9152 86.3808 28.3538C85.5939 28.9664 84.9697 29.2705 84.5037 29.2705C83.9894 29.2705 83.6157 28.9766 83.3813 28.3889C83.1483 27.8041 82.9593 27.0936 82.8098 26.2603C82.7615 25.9182 82.7175 25.576 82.6823 25.2325C82.6442 24.8904 82.6003 24.5483 82.5548 24.2047C82.8948 24.1535 83.2904 24.0687 83.73 23.9459C84.1726 23.8231 84.5272 23.7135 84.7983 23.617C85.5588 23.3465 86.2372 22.9503 86.8394 22.424C87.4417 21.8977 87.9003 21.2544 88.2198 20.4942C88.3678 20.1287 88.4396 19.7486 88.4396 19.3568C88.4396 19.1594 88.4161 18.9664 88.3678 18.769C88.3165 18.5746 88.2315 18.3904 88.1084 18.2193C87.937 17.9489 87.6732 17.7544 87.3171 17.6316C86.9611 17.5088 86.5742 17.4474 86.1595 17.4474C85.5939 17.4474 84.9741 17.5702 84.3 17.8158C83.6245 18.0585 82.9812 18.4269 82.3687 18.9167C81.5335 19.5761 80.7598 20.2383 80.0477 20.8977C79.3355 21.56 78.6615 22.3056 78.0241 23.1389L78.6879 21.3012C79.1055 20.8875 79.6022 20.3845 80.1781 19.7968C80.754 19.212 81.3357 18.5936 81.9248 17.9445C82.5138 17.2953 83.0164 16.7149 83.4326 16.1989C84.2678 15.1974 85.0723 14.1141 85.843 12.9518C86.6167 11.7895 87.2468 10.7442 87.7377 9.81143C87.9575 9.39769 88.1905 8.87137 88.4367 8.23541C88.6828 7.59944 88.8059 6.99856 88.8059 6.43716C88.8059 5.92108 88.6652 5.49418 88.3839 5.15207C88.0996 4.80997 87.5663 4.63892 86.7838 4.63892C86.0013 4.63892 85.2422 4.88161 84.5198 5.37283C83.7945 5.86406 83.1219 6.50441 82.4962 7.29973C81.872 8.09652 81.2932 8.94593 80.7671 9.85237C80.2396 10.7573 79.7663 11.6331 79.3502 12.4766C78.9296 13.3202 78.5867 14.038 78.3186 14.6258C77.6577 15.9693 76.9998 17.5614 76.3492 19.3962C75.7015 21.2339 75.0685 23.0936 74.456 24.9766C74.1849 25.81 73.8845 26.674 73.5519 27.5658C73.2222 28.4606 72.891 29.2851 72.5613 30.0439C72.2287 30.8027 71.9283 31.4269 71.6602 31.9167H73.9036C74.2465 31.9167 74.5776 31.7588 74.8971 31.4386C75.1667 31.193 75.448 30.8158 75.7426 30.3012C76.0371 29.7851 76.3316 29.2106 76.6261 28.5731C76.9207 27.9372 77.202 27.326 77.4746 26.7383C77.7442 26.1506 77.9889 25.6725 78.2102 25.307C78.5047 24.791 78.8608 24.2237 79.2784 23.598C79.6931 22.9752 80.1488 22.3684 80.6382 21.7807C81.1305 21.193 81.6449 20.7179 82.1856 20.3494C82.7234 19.981 83.2772 19.7968 83.8399 19.7968C84.2575 19.7968 84.5594 19.9021 84.7411 20.1111C84.9257 20.3187 85.0181 20.5556 85.0181 20.826C85.0181 21.4372 84.7367 21.9883 84.1726 22.4766C83.7066 22.8933 83.1278 23.1915 82.4405 23.3758C81.7548 23.56 81.0543 23.6638 80.3437 23.6872C80.1488 23.6872 79.9876 23.7617 79.8645 23.9094C79.7414 24.0556 79.6213 24.3363 79.4982 24.753C79.3985 25.0717 79.3311 25.4196 79.296 25.8012C79.2608 26.1799 79.2403 26.5658 79.2403 26.9562C79.2403 27.6667 79.315 28.3772 79.4601 29.0848C79.6081 29.7953 79.8161 30.4079 80.0872 30.9225C80.3305 31.3875 80.6455 31.7179 81.025 31.9138C81.4046 32.1082 81.8163 32.2076 82.2574 32.2076C82.823 32.2076 83.4003 32.0775 83.9894 31.8217C84.5785 31.5629 85.0811 31.2778 85.4972 30.9576C85.9632 30.5892 86.4043 30.1857 86.8219 29.7471C87.2395 29.307 87.5824 28.9035 87.852 28.5366C88.3443 27.8743 88.8147 27.2032 89.2704 26.5176C89.3466 26.4021 89.4213 26.2924 89.4902 26.1799C89.4902 26.1799 89.4902 26.1769 89.4932 26.1769C89.8536 25.6199 90.1789 25.0965 90.4661 24.6082C90.6127 24.3626 90.7167 24.1126 90.7782 23.8538C90.8369 23.5951 90.8706 23.3582 90.8706 23.1389C90.8706 22.7486 90.7958 22.5512 90.6478 22.5512V22.5541ZM80.0301 14.9956C80.096 14.7266 81.7006 8.34213 86.3002 5.98395C86.4687 5.89769 86.6563 5.88453 86.8248 5.93278C87.0021 5.98687 87.1604 6.10968 87.2527 6.28804C87.4314 6.63307 87.2937 7.05997 86.9479 7.23541C82.927 9.29973 81.4192 15.272 81.406 15.3304C81.3108 15.7091 80.9298 15.9415 80.5503 15.8494C80.1693 15.7544 79.9378 15.3743 80.0301 14.9956Z" fill="white"/>
<path d="M103.565 5.17101C103.27 4.79089 102.733 4.60083 101.946 4.60083C100.99 4.60083 100.089 4.91954 99.2407 5.55697C98.3952 6.19294 97.5907 7.03065 96.8302 8.07159C96.0697 9.11106 95.3751 10.269 94.7509 11.5423C94.1267 12.8143 93.5552 14.0921 93.0394 15.3771C92.5251 16.6622 92.0767 17.8611 91.6972 18.9751C91.3162 20.0891 91.0026 21.0146 90.7579 21.747C90.6524 22.0716 90.5528 22.3903 90.456 22.7076C90.456 22.7105 90.4531 22.7119 90.4531 22.7119C90.1615 23.6593 89.9022 24.5745 89.6721 25.4532C89.6076 25.7017 89.5461 25.9415 89.4933 26.1783C89.4904 26.1783 89.4904 26.1812 89.4904 26.1812C89.2808 27.0672 89.127 27.8786 89.0288 28.6111C89.0039 28.7339 88.9937 28.8538 88.9937 28.9766V29.345C88.9937 30.2017 89.1651 30.8801 89.508 31.3815C89.8509 31.8845 90.3667 32.1359 91.0524 32.1359C91.7382 32.1359 92.4635 31.9385 93.224 31.5482C93.9845 31.1578 94.6967 30.6798 95.3576 30.1169C96.0213 29.554 96.5357 29.0277 96.9049 28.538C97.3944 27.8757 97.8735 27.1915 98.3395 26.4809C98.8055 25.7733 99.2099 25.1242 99.5528 24.5365C99.6759 24.3172 99.7682 24.076 99.8297 23.8216C99.8913 23.5628 99.922 23.3391 99.922 23.1418C99.922 22.7251 99.8473 22.519 99.7022 22.519C99.6509 22.519 99.566 22.6154 99.4429 22.8128C99.1249 23.4239 98.7439 24.0906 98.3029 24.8143C97.8603 25.535 97.3944 26.2149 96.9049 26.8508C96.7071 27.0964 96.3818 27.4561 95.929 27.9342C95.4762 28.4122 95.0015 28.7953 94.5121 29.0891C93.9977 29.4078 93.5669 29.5672 93.224 29.5672C92.6599 29.5672 92.3756 29.2017 92.3756 28.4663V28.2105C92.3756 28.1111 92.3888 28.0131 92.4137 27.9166C92.4884 27.4517 92.5808 26.9078 92.6907 26.2807C92.8006 25.6578 92.9339 25.0292 93.0951 24.3903C93.2533 23.7543 93.4175 23.2046 93.5918 22.7397L94.1809 21.0511C94.4505 20.8055 94.8857 20.3669 95.4865 19.7295C96.0858 19.0935 96.7306 18.3962 97.4178 17.6374C98.1036 16.8786 98.6809 16.1944 99.1469 15.5804C99.9338 14.6271 100.681 13.5979 101.393 12.4956C102.102 11.3947 102.678 10.4035 103.122 9.52188C103.317 9.15638 103.514 8.69586 103.711 8.14761C103.906 7.59498 104.006 7.05112 104.006 6.51165C104.006 5.97218 103.858 5.55112 103.563 5.17247L103.565 5.17101ZM102.315 7.23533C98.2941 9.29966 96.7862 15.2719 96.7731 15.3304C96.6778 15.709 96.2968 15.9415 95.9173 15.8494C95.5363 15.7543 95.3048 15.3742 95.3971 14.9956C95.4631 14.7266 97.0676 8.34206 101.667 5.98387C101.836 5.89761 102.023 5.88446 102.192 5.9327C102.369 5.9868 102.527 6.1096 102.62 6.28796C102.798 6.63299 102.661 7.05989 102.315 7.23533Z" fill="white"/>
<path d="M17.3875 41.0219C17.5105 40.8508 17.6703 40.5511 17.8666 40.1227C18.063 39.6944 18.271 39.2353 18.4923 38.7455C18.7136 38.2558 18.8967 37.8406 19.0447 37.497C19.4624 36.4692 19.94 35.2148 20.4793 33.7338C21.02 32.2528 21.571 30.7046 22.1351 29.0891C22.6993 27.4736 23.2385 25.9312 23.7543 24.4634C24.2701 22.9955 24.7229 21.7835 25.1156 20.8289C25.4834 19.9473 25.8028 19.2441 26.0724 18.7178C26.342 18.1914 26.7289 17.8128 27.2315 17.5803C27.7341 17.3479 28.5005 17.2309 29.5306 17.2309H30.634C30.2896 17.4765 29.8427 18.0321 29.2903 18.902C28.7379 19.7704 28.2162 20.6827 27.7268 21.6373C27.8982 21.4166 28.0579 21.2031 28.2045 20.9941C28.351 20.7865 28.5107 20.5964 28.6836 20.4254C29.4691 19.4707 30.3028 18.6754 31.1864 18.0394C32.07 17.4034 32.9272 17.0847 33.7625 17.0847C34.4497 17.0847 35.0314 17.342 35.5106 17.8552C35.9897 18.3698 36.2286 19.2382 36.2286 20.4619C36.2286 21.5876 36.0132 22.7192 35.5853 23.8581C35.156 24.9955 34.586 26.073 33.8738 27.0891C33.1617 28.1052 32.3777 29.0043 31.519 29.7879C31.3476 29.959 31.1571 30.1242 30.949 30.2835C30.741 30.4429 30.5256 30.5949 30.3058 30.7426C31.0912 30.8157 31.8693 30.633 32.6429 30.1914C33.4152 29.7514 34.1273 29.2134 34.7765 28.5759C35.4256 27.94 35.9604 27.364 36.3766 26.8508C36.8675 26.2148 37.3642 25.4809 37.8668 24.6476C38.3694 23.8157 38.7812 23.0818 39.0992 22.4444C39.1973 22.2733 39.2838 22.1871 39.3571 22.1871C39.5534 22.1871 39.6516 22.4078 39.6516 22.8479C39.6516 23.2397 39.5285 23.6432 39.2838 24.0599C39.0874 24.4268 38.8178 24.8917 38.4749 25.4546C38.1306 26.0175 37.8243 26.5072 37.5547 26.9224C36.4264 28.5628 35.1135 29.9093 33.6174 30.9604C32.1213 32.0131 30.3175 32.5394 28.2089 32.5394H27.6755C27.4909 32.5394 27.3018 32.5262 27.1055 32.5028C26.5164 32.4531 25.9655 32.3128 25.4497 32.0803C24.9339 31.8479 24.591 31.4137 24.4195 30.7777L22.3593 37.2031C22.0897 38.0599 21.8391 38.7689 21.6047 39.3318C21.3717 39.8947 21.0771 40.3172 20.7211 40.5979C20.3665 40.8786 19.8448 41.0204 19.1576 41.0204H17.3918L17.3875 41.0219ZM26.2556 30.9619C26.6717 30.9619 27.1509 30.7485 27.6901 30.3186C28.2294 29.8903 28.7628 29.3523 29.2903 28.7031C29.8178 28.0555 30.2647 27.4239 30.634 26.8128C31.1981 25.8347 31.6758 24.8303 32.0685 23.8026C32.4612 22.7748 32.6576 21.9297 32.6576 21.2689C32.6576 20.535 32.3631 20.168 31.774 20.168C31.2582 20.168 30.6941 20.4137 30.0816 20.902C29.6405 21.2455 29.1437 21.747 28.5913 22.4078C28.0389 23.0686 27.4997 23.8099 26.9721 24.6286C26.4446 25.4488 26.0153 26.2806 25.6841 27.1257C25.353 27.9707 25.1874 28.7353 25.1874 29.4195C25.1874 29.5423 25.1932 29.6578 25.2064 29.7689C25.2181 29.8786 25.2372 29.9955 25.2621 30.1183C25.3852 30.6812 25.7164 30.9634 26.2556 30.9634V30.9619Z" fill="white"/>
</g>
<defs>
<clipPath id="clip0_111_51">
<rect width="131" height="50" fill="white"/>
</clipPath>
</defs>
</svg>
