<svg width="49" height="49" viewBox="0 0 49 49" fill="none" xmlns="http://www.w3.org/2000/svg">
<path d="M2.29468 34.8039C2.29468 36.4943 3.66388 37.8635 5.35435 37.8635C6.23401 37.8635 7.02952 37.4811 7.58791 36.8844L21.5171 44.4036C21.4559 44.6407 21.4176 44.8855 21.4176 45.1379C21.4176 46.8284 22.7868 48.1976 24.4773 48.1976C26.1678 48.1976 27.537 46.8284 27.537 45.1379C27.537 44.8855 27.4987 44.6407 27.4375 44.4036L41.3667 36.8844C41.9251 37.4811 42.713 37.8635 43.6003 37.8635C45.2907 37.8635 46.66 36.4943 46.66 34.8039C46.66 33.3811 45.6809 32.1955 44.3652 31.8513V17.1036C45.6809 16.7594 46.66 15.5738 46.66 14.151C46.66 12.4606 45.2907 11.0914 43.6003 11.0914C42.7206 11.0914 41.9251 11.4738 41.3667 12.0705L27.4375 4.55132C27.4987 4.3142 27.537 4.06942 27.537 3.817C27.537 2.12653 26.1678 0.757324 24.4773 0.757324C22.7868 0.757324 21.4176 2.12653 21.4176 3.817C21.4176 4.06942 21.4559 4.3142 21.5171 4.55132L7.58791 12.0705C7.02952 11.4738 6.24166 11.0914 5.35435 11.0914C3.66388 11.0914 2.29468 12.4606 2.29468 14.151C2.29468 15.5738 3.27377 16.7594 4.58943 17.1036V31.8513C3.27377 32.1955 2.29468 33.3811 2.29468 34.8039ZM24.4773 46.6601C23.6359 46.6601 22.9475 45.9717 22.9475 45.1303C22.9475 44.2888 23.6359 43.6004 24.4773 43.6004C25.3187 43.6004 26.0072 44.2888 26.0072 45.1303C26.0072 45.9717 25.3187 46.6601 24.4773 46.6601ZM45.1301 34.8039C45.1301 35.6453 44.4417 36.3337 43.6003 36.3337C42.7589 36.3337 42.0704 35.6453 42.0704 34.8039C42.0704 33.9624 42.7589 33.274 43.6003 33.274C44.4417 33.274 45.1301 33.9624 45.1301 34.8039ZM43.6003 12.6212C44.4417 12.6212 45.1301 13.3096 45.1301 14.151C45.1301 14.9925 44.4417 15.6809 43.6003 15.6809C42.7589 15.6809 42.0704 14.9925 42.0704 14.151C42.0704 13.3096 42.7589 12.6212 43.6003 12.6212ZM24.4773 2.29481C25.3187 2.29481 26.0072 2.98324 26.0072 3.82465C26.0072 4.66606 25.3187 5.35449 24.4773 5.35449C23.6359 5.35449 22.9475 4.66606 22.9475 3.82465C22.9475 2.98324 23.6359 2.29481 24.4773 2.29481ZM12.7817 19.0312L13.5084 17.685L8.31459 14.8854C8.37578 14.6482 8.41403 14.4035 8.41403 14.151C8.41403 13.8986 8.37578 13.6539 8.31459 13.4167L22.2438 5.90523C22.6339 6.32593 23.1387 6.6319 23.7124 6.77723V13.7686H25.2422V6.77723C25.8159 6.6319 26.3208 6.32593 26.7109 5.90523L40.64 13.4244C40.5789 13.6615 40.5406 13.9063 40.5406 14.1587C40.5406 14.4111 40.5789 14.6559 40.64 14.893L35.4462 17.6926L36.1729 19.0389L41.3667 16.2393C41.7568 16.66 42.2617 16.966 42.8354 17.1113V31.8589C42.2617 32.0042 41.7568 32.3102 41.3667 32.7309L36.1729 29.9313L35.4462 31.2776L40.64 34.0772C40.5789 34.3143 40.5406 34.5591 40.5406 34.8115C40.5406 35.0639 40.5789 35.3087 40.64 35.5458L26.7109 43.065C26.3208 42.6443 25.8159 42.3383 25.2422 42.193V35.2016H23.7124V42.193C23.1387 42.3383 22.6339 42.6443 22.2438 43.065L8.31459 35.5458C8.37578 35.3087 8.41403 35.0639 8.41403 34.8115C8.41403 34.5591 8.37578 34.3143 8.31459 34.0772L13.5084 31.2776L12.7817 29.9313L7.58791 32.7309C7.19781 32.3102 6.69296 32.0042 6.11927 31.8589V17.1113C6.69296 16.966 7.19781 16.66 7.58791 16.2393L12.7817 19.0389V19.0312ZM3.82451 14.151C3.82451 13.3096 4.51294 12.6212 5.35435 12.6212C6.19576 12.6212 6.88419 13.3096 6.88419 14.151C6.88419 14.9925 6.19576 15.6809 5.35435 15.6809C4.51294 15.6809 3.82451 14.9925 3.82451 14.151ZM5.35435 33.274C6.19576 33.274 6.88419 33.9624 6.88419 34.8039C6.88419 35.6453 6.19576 36.3337 5.35435 36.3337C4.51294 36.3337 3.82451 35.6453 3.82451 34.8039C3.82451 33.9624 4.51294 33.274 5.35435 33.274Z" fill="#00CEC9"/>
<path d="M18.358 32.8914H30.5967C32.2872 32.8914 33.6564 31.5222 33.6564 29.8318V19.1229C33.6564 17.4324 32.2872 16.0632 30.5967 16.0632H18.358C16.6675 16.0632 15.2983 17.4324 15.2983 19.1229V29.8318C15.2983 31.5222 16.6675 32.8914 18.358 32.8914ZM16.8282 19.1229C16.8282 18.2815 17.5166 17.5931 18.358 17.5931H30.5967C31.4381 17.5931 32.1265 18.2815 32.1265 19.1229V29.8318C32.1265 30.6732 31.4381 31.3616 30.5967 31.3616H18.358C17.5166 31.3616 16.8282 30.6732 16.8282 29.8318V19.1229Z" fill="#00CEC9"/>
<path d="M30.0614 26.3897H28.914V22.5651H30.0614V21.0353H26.2368V22.5651H27.3842V26.3897H26.2368V27.9195H30.0614V26.3897Z" fill="#00CEC9"/>
<path d="M20.7981 26.3897H22.8022L23.1388 27.9195H24.7069L23.3071 21.6319C23.2306 21.2801 22.9169 21.0353 22.5574 21.0353H21.0276C20.6681 21.0353 20.3621 21.2877 20.278 21.6319L18.8782 27.9195H20.4463L20.7828 26.3897H20.7981ZM21.6472 22.5651H21.9531L22.4656 24.8599H21.1423L21.6548 22.5651H21.6472Z" fill="#00CEC9"/>
</svg>
