<svg width="54" height="54" viewBox="0 0 54 54" fill="none" xmlns="http://www.w3.org/2000/svg">
<path d="M50.2021 26.7869H43.1736V12.7839C43.1736 11.0784 41.7857 9.69045 40.0802 9.69045H19.0013C17.9782 5.92417 14.5315 3.14612 10.4467 3.14612C5.5582 3.14506 1.58203 7.12229 1.58203 12.0097C1.58203 14.9976 3.06914 17.6428 5.34094 19.2491V32.0098V37.0754C5.34094 37.4245 5.62465 37.7082 5.97375 37.7082H16.5016V40.8185H13.9693C13.6202 40.8185 13.3365 41.1022 13.3365 41.4513C13.3365 41.8004 13.6202 42.0841 13.9693 42.0841H34.6054C34.9545 42.0841 35.2382 41.8004 35.2382 41.4513C35.2382 41.1022 34.9545 40.8185 34.6054 40.8185H32.014V37.7082H37.6344V48.638C37.6344 49.8593 38.6279 50.8539 39.8503 50.8539H50.2021C51.4234 50.8539 52.418 49.8603 52.418 48.638V29.0018C52.418 27.7805 51.4245 26.7869 50.2021 26.7869ZM2.84766 12.0097C2.84766 7.81944 6.25641 4.41069 10.4467 4.41069C14.637 4.41069 18.0457 7.81944 18.0457 12.0097C18.0457 16.2 14.637 19.6087 10.4467 19.6087C6.25641 19.6087 2.84766 16.2 2.84766 12.0097ZM30.7484 40.8185H17.7673V37.7082H30.7484V40.8185ZM6.60656 36.4426V32.6426H37.6344V36.4426H6.60656ZM37.6344 29.0018V31.3769H6.60656V19.999C7.76883 20.5601 9.07137 20.8744 10.4467 20.8744C15.3341 20.8744 19.3113 16.8982 19.3113 12.0097C19.3113 11.6522 19.2881 11.301 19.2459 10.955H40.0802C41.0885 10.955 41.908 11.7756 41.908 12.7828V26.7859H39.8493C38.629 26.7869 37.6344 27.7805 37.6344 29.0018ZM51.1523 48.639C51.1523 49.1632 50.7262 49.5893 50.2021 49.5893H39.8503C39.3261 49.5893 38.9 49.1632 38.9 48.639V29.0018C38.9 28.4776 39.3261 28.0515 39.8503 28.0515H50.2021C50.7262 28.0515 51.1523 28.4776 51.1523 29.0018V48.639ZM10.4467 17.8569C10.0976 17.8569 9.81387 17.5732 9.81387 17.2241V16.4046C8.66004 16.1314 7.80152 15.1295 7.80152 13.9387C7.80152 13.5896 8.08523 13.3059 8.43434 13.3059C8.78344 13.3059 9.06715 13.5896 9.06715 13.9387C9.06715 14.6412 9.68625 15.2128 10.4477 15.2128C11.2082 15.2128 11.8273 14.6412 11.8273 13.9387C11.8273 13.1962 10.9867 12.8123 10.2811 12.6204C8.68113 12.1869 7.80047 11.2851 7.80047 10.0817C7.80047 8.891 8.65898 7.88905 9.81281 7.61588V6.79639C9.81281 6.44729 10.0965 6.16358 10.4456 6.16358C10.7947 6.16358 11.0784 6.44729 11.0784 6.79639V7.61588C12.2323 7.88905 13.0908 8.891 13.0908 10.0817C13.0908 10.4308 12.8071 10.7146 12.458 10.7146C12.1089 10.7146 11.8252 10.4308 11.8252 10.0817C11.8252 9.37932 11.2061 8.80768 10.4456 8.80768C9.68519 8.80768 9.06609 9.37932 9.06609 10.0817C9.06609 10.8242 9.90668 11.2081 10.6123 11.4001C12.2112 11.8336 13.0918 12.7353 13.0918 13.9398C13.0918 15.1305 12.2333 16.1325 11.0795 16.4057V17.2251C11.0795 17.5742 10.7958 17.8569 10.4467 17.8569ZM46.8155 47.4282C46.8155 47.7773 46.5318 48.061 46.1827 48.061H43.8697C43.5206 48.061 43.2369 47.7773 43.2369 47.4282C43.2369 47.0791 43.5206 46.7954 43.8697 46.7954H46.1827C46.5318 46.7954 46.8155 47.0791 46.8155 47.4282ZM36.0345 15.5661C34.6929 15.5661 33.6013 16.6577 33.6013 17.9993C33.6013 18.5815 33.807 19.1151 34.1487 19.5349L30.5227 24.57C30.2558 24.4687 29.9658 24.4128 29.6631 24.4128C29.2254 24.4128 28.8162 24.5289 28.4607 24.7324L24.7082 20.9429C24.918 20.5833 25.0393 20.1656 25.0393 19.7195C25.0393 18.3779 23.9477 17.2863 22.6062 17.2863C21.2646 17.2863 20.173 18.3779 20.173 19.7195C20.173 20.1435 20.2827 20.5421 20.4736 20.8902L16.4405 24.764C16.0734 24.5426 15.6442 24.4139 15.1854 24.4139C13.8438 24.4139 12.7522 25.5055 12.7522 26.8471C12.7522 28.1886 13.8438 29.2802 15.1854 29.2802C16.527 29.2802 17.6186 28.1886 17.6186 26.8471C17.6186 26.4231 17.5089 26.0244 17.318 25.6764L21.3511 21.8025C21.7181 22.024 22.1474 22.1526 22.6062 22.1526C23.0428 22.1526 23.4531 22.0366 23.8085 21.8331L27.5611 25.6226C27.3512 25.9822 27.2299 26.3999 27.2299 26.846C27.2299 28.1876 28.3215 29.2792 29.6631 29.2792C31.0046 29.2792 32.0963 28.1876 32.0963 26.846C32.0963 26.2638 31.8906 25.7301 31.5489 25.3104L35.1749 20.2753C35.4417 20.3765 35.7318 20.4324 36.0345 20.4324C37.376 20.4324 38.4676 19.3408 38.4676 17.9993C38.4676 16.6577 37.376 15.5661 36.0345 15.5661ZM15.1864 28.0125C14.5431 28.0125 14.0189 27.4894 14.0189 26.8449C14.0189 26.2005 14.5431 25.6774 15.1864 25.6774C15.8298 25.6774 16.354 26.2005 16.354 26.8449C16.354 27.4894 15.8298 28.0125 15.1864 28.0125ZM21.4397 19.7184C21.4397 19.0751 21.9639 18.5509 22.6072 18.5509C23.2506 18.5509 23.7748 19.0751 23.7748 19.7184C23.7748 20.3618 23.2516 20.886 22.6072 20.886C21.9639 20.886 21.4397 20.3618 21.4397 19.7184ZM29.6631 28.0125C29.0197 28.0125 28.4955 27.4894 28.4955 26.8449C28.4955 26.2005 29.0187 25.6774 29.6631 25.6774C30.3075 25.6774 30.8306 26.2005 30.8306 26.8449C30.8306 27.4894 30.3075 28.0125 29.6631 28.0125ZM36.0345 19.1668C35.3911 19.1668 34.8669 18.6437 34.8669 17.9993C34.8669 17.3549 35.3911 16.8317 36.0345 16.8317C36.6778 16.8317 37.202 17.3549 37.202 17.9993C37.202 18.6437 36.6778 19.1668 36.0345 19.1668ZM26.6773 34.4197C26.6773 34.7688 26.3936 35.0525 26.0445 35.0525H22.4712C22.1221 35.0525 21.8384 34.7688 21.8384 34.4197C21.8384 34.0706 22.1221 33.7869 22.4712 33.7869H26.0445C26.3936 33.7869 26.6773 34.0706 26.6773 34.4197ZM41.9375 36.9657H40.0444C39.6953 36.9657 39.4116 37.2494 39.4116 37.5985V40.5675C39.4116 40.9166 39.6953 41.2003 40.0444 41.2003H41.9375C42.2866 41.2003 42.5704 40.9166 42.5704 40.5675V37.5985C42.5704 37.2484 42.2866 36.9657 41.9375 36.9657ZM41.3047 39.9347H40.6772V38.2314H41.3047V39.9347ZM44.0796 41.2003H45.9728C46.3219 41.2003 46.6056 40.9166 46.6056 40.5675V35.8182C46.6056 35.4691 46.3219 35.1854 45.9728 35.1854H44.0796C43.7305 35.1854 43.4468 35.4691 43.4468 35.8182V40.5675C43.4468 40.9166 43.7305 41.2003 44.0796 41.2003ZM44.7124 36.451H45.34V39.9347H44.7124V36.451ZM50.008 32.8946H48.1148C47.7657 32.8946 47.482 33.1783 47.482 33.5274V40.5664C47.482 40.9155 47.7657 41.1992 48.1148 41.1992H50.008C50.3571 41.1992 50.6408 40.9155 50.6408 40.5664V33.5274C50.6408 33.1783 50.3571 32.8946 50.008 32.8946ZM49.3752 39.9347H48.7477V34.1613H49.3752V39.9347Z" fill="#00CEC9"/>
</svg>
