<svg width="47" height="47" viewBox="0 0 47 47" fill="none" xmlns="http://www.w3.org/2000/svg">
<g clip-path="url(#clip0_5_193)">
<path d="M46.0501 18.5765L41.2071 18.0389C40.8591 16.8975 40.4009 15.7927 39.8388 14.7401L42.8824 10.9361C43.193 10.5473 43.1619 9.98714 42.8101 9.63519L37.28 4.11094C36.928 3.75916 36.3679 3.72801 35.9791 4.03864L32.175 7.08125C31.1224 6.51918 30.0176 6.06084 28.8762 5.71292L28.3386 0.869945C28.2838 0.374679 27.8654 0 27.3672 0H19.548C19.0498 0 18.6313 0.374679 18.5765 0.869854L18.0389 5.70797C16.8975 6.05599 15.7927 6.51423 14.7401 7.0763L10.9361 4.03268C10.5473 3.72205 9.98714 3.75321 9.63519 4.10498L4.10507 9.63519C3.75357 9.98742 3.72288 10.5476 4.03369 10.9361L7.08125 14.7401C6.51918 15.7927 6.06084 16.8975 5.71292 18.0389L0.869945 18.5765C0.374679 18.6313 0 19.0497 0 19.5479V27.3671C0 27.8653 0.374679 28.2838 0.869854 28.3386L5.70797 28.8762C6.05599 30.0176 6.51423 31.1224 7.0763 32.175L4.03268 35.979C3.72205 36.3678 3.75321 36.928 4.10498 37.2799L9.6351 42.81C9.98861 43.1601 10.5487 43.1886 10.936 42.8765L14.74 39.8339C15.7926 40.3959 16.8974 40.8543 18.0388 41.2022L18.5764 46.0452C18.6312 46.5403 19.0496 46.9151 19.5479 46.915H27.3671C27.8636 46.9153 28.2815 46.5433 28.3386 46.05L28.8762 41.207C30.0176 40.859 31.1224 40.4008 32.175 39.8387L35.979 42.8823C36.3678 43.193 36.928 43.1618 37.2799 42.81L42.8042 37.2799C43.1559 36.928 43.1871 36.3678 42.8765 35.979L39.8339 32.175C40.3959 31.1224 40.8543 30.0176 41.2022 28.8762L46.0452 28.3386C46.5403 28.2838 46.9151 27.8654 46.915 27.3671V19.5479C46.9154 19.0514 46.5434 18.6335 46.0501 18.5765ZM44.9605 26.4924H44.9603L40.3402 27.0065C39.9394 27.051 39.6072 27.3371 39.5035 27.7268C39.1271 29.1476 38.5627 30.5117 37.8253 31.7831C37.6227 32.132 37.6553 32.5695 37.9074 32.8846L40.8132 36.5165L36.5215 40.8083L32.8895 37.9025C32.5745 37.6504 32.1369 37.6178 31.788 37.8204C30.5166 38.5577 29.1525 39.1221 27.7318 39.4986C27.3421 39.6021 27.056 39.9345 27.0115 40.3353L26.4973 44.9603H20.4277L19.9087 40.3353C19.8641 39.9345 19.5781 39.6022 19.1884 39.4986C17.7676 39.1222 16.4035 38.5577 15.1321 37.8204C14.7832 37.6178 14.3457 37.6504 14.0306 37.9025L10.3987 40.8083L6.10694 36.5165L9.01274 32.8894C9.26482 32.5744 9.29744 32.1368 9.09484 31.7879C8.35748 30.5165 7.79313 29.1524 7.41662 27.7317C7.31307 27.342 6.98073 27.0559 6.57993 27.0114L1.95486 26.4972V20.4276L6.57993 19.9086C6.98073 19.8641 7.31298 19.578 7.41662 19.1883C7.79304 17.7675 8.35748 16.4034 9.09484 15.132C9.29744 14.7831 9.26482 14.3456 9.01274 14.0305L6.10694 10.3986L10.3987 6.10684L14.0356 9.01265C14.3506 9.26472 14.7882 9.29735 15.1371 9.09475C16.4085 8.35739 17.7726 7.79304 19.1933 7.41653C19.583 7.31298 19.8691 6.98064 19.9136 6.57984L20.4278 1.95477H26.4926L27.0067 6.57984C27.0512 6.98064 27.3373 7.31289 27.727 7.41653C29.1477 7.79295 30.5119 8.35739 31.7832 9.09475C32.1322 9.29735 32.5697 9.26472 32.8847 9.01265L36.5167 6.10684L40.8084 10.4035L37.9026 14.0355C37.6506 14.3505 37.6179 14.7881 37.8205 15.137C38.5579 16.4084 39.1222 17.7725 39.4988 19.1932C39.6023 19.5829 39.9346 19.869 40.3354 19.9135L44.9605 20.4277V26.4924Z" fill="#00CEC9"/>
<path d="M35.3966 16.776C31.7065 10.181 23.3689 7.82598 16.7738 11.5161C10.1788 15.2061 7.82376 23.5439 11.5139 30.139C11.5576 30.2169 11.6118 30.2886 11.675 30.3519C12.0564 30.7339 12.6753 30.7344 13.0573 30.353L19.4426 23.9677L21.6983 26.9761C21.7261 27.0131 21.7564 27.0481 21.7891 27.0807C22.1708 27.4624 22.7896 27.4624 23.1713 27.0807L29.3221 20.93V24.4349H31.2768V18.5706H31.2766C31.2766 18.0308 30.8392 17.5933 30.2995 17.5931H24.4351V19.5479H27.9401L22.5859 24.9021L20.33 21.8936C20.1605 21.666 19.9005 21.5234 19.6175 21.5027C19.3348 21.4855 19.0583 21.5897 18.8571 21.789L12.6427 28.0024C10.9624 24.0032 11.6313 19.4026 14.3811 16.0475C18.4792 11.0471 25.855 10.3156 30.8555 14.4138C35.8559 18.5119 36.5874 25.8877 32.4892 30.8882C32.1115 31.3491 31.7058 31.7734 31.2769 32.1613V26.3897H29.3221V33.5891C28.6957 33.9533 28.041 34.2559 27.3673 34.4954V28.3445H25.4125V35.006C24.767 35.1163 24.1129 35.1727 23.4578 35.1743V31.2767H21.503V35.0155C20.8423 34.9056 20.1883 34.7381 19.5482 34.5129V29.3219H17.5933V33.6133C17.047 33.2979 16.5186 32.9348 16.0147 32.5219L14.7725 34.032C17.2213 36.0409 20.2903 37.1396 23.4577 37.1411C25.7964 37.1408 28.0958 36.541 30.1367 35.399C36.7318 31.7089 39.0868 23.3711 35.3966 16.776Z" fill="#00CEC9"/>
</g>
<defs>
<clipPath id="clip0_5_193">
<rect width="46.915" height="46.915" fill="white"/>
</clipPath>
</defs>
</svg>
