<svg width="49" height="49" viewBox="0 0 49 49" fill="none" xmlns="http://www.w3.org/2000/svg">
<path d="M38.8232 40.0838C39.1219 40.3825 39.1219 40.8668 38.8232 41.1655C35.6933 44.2954 31.7387 46.3327 27.3869 47.0575C26.2177 47.2522 25.0444 47.3489 23.8776 47.3489C21.4251 47.3489 18.9995 46.9205 16.6891 46.0787L17.3275 46.984C17.571 47.3293 17.4885 47.8065 17.1432 48.05C17.0092 48.1444 16.8554 48.1897 16.703 48.1897C16.4627 48.1897 16.2262 48.0768 16.0772 47.8655L13.8531 44.7113C13.7063 44.5031 13.6728 44.2357 13.7636 43.9978C13.8543 43.7599 14.0576 43.5827 14.3057 43.5254L17.7078 42.738C18.1197 42.6427 18.5304 42.8993 18.6255 43.3107C18.7207 43.7222 18.4643 44.1332 18.0528 44.2284L16.853 44.5061C24.0156 47.2674 32.2547 45.5705 37.7413 40.0837C38.0401 39.7851 38.5244 39.7851 38.8232 40.0838ZM28.9681 7.34166C36.463 9.34986 42.0522 15.6364 43.2421 23.2202L42.4018 22.3201C42.1136 22.0114 41.6295 21.9946 41.3206 22.2829C41.0119 22.5712 40.9952 23.0552 41.2834 23.364L43.6664 25.9166C43.8122 26.0728 44.0153 26.1595 44.2255 26.1595C44.2657 26.1595 44.3062 26.1564 44.3467 26.1499C44.5981 26.1096 44.813 25.9468 44.9199 25.7156L46.5395 22.2123C46.7168 21.8288 46.5495 21.3743 46.1662 21.197C45.7828 21.0196 45.328 21.1868 45.1509 21.5703L44.6866 22.5746C44.0573 19.0009 42.5207 15.6603 40.1847 12.8221C37.3812 9.41564 33.6394 7.0095 29.3639 5.86393C28.956 5.75474 28.5366 5.99684 28.4271 6.40483C28.3179 6.81282 28.5601 7.23228 28.9681 7.34166ZM4.25976 32.2737C4.32535 32.2737 4.3919 32.2652 4.45816 32.2475C4.86625 32.1381 5.10844 31.7188 4.99905 31.3107C2.99076 23.8157 5.64053 15.8321 11.6134 11.0095L11.254 12.1875C11.1306 12.5916 11.3583 13.0191 11.7623 13.1424C11.8367 13.1651 11.9118 13.1759 11.9858 13.1759C12.3135 13.1759 12.6166 12.9637 12.7171 12.634L13.7362 9.29402C13.8105 9.05049 13.7588 8.78583 13.5982 8.58829C13.4375 8.39075 13.1898 8.28586 12.9355 8.309L9.09175 8.65799C8.67105 8.69614 8.36097 9.06827 8.39921 9.48888C8.43727 9.90959 8.80911 10.2192 9.23011 10.1815L10.3319 10.0815C7.55149 12.4133 5.42684 15.4143 4.1368 18.8565C2.58851 22.9877 2.37558 27.4312 3.52123 31.7066C3.61302 32.0483 3.92205 32.2737 4.25976 32.2737ZM16.3454 5.5049C16.3454 2.89118 18.4718 0.764893 21.0854 0.764893C23.699 0.764893 25.8254 2.89127 25.8254 5.5049C25.8254 8.11853 23.699 10.2449 21.0854 10.2449C18.4718 10.2449 16.3454 8.11853 16.3454 5.5049ZM17.8752 5.5049C17.8752 7.27502 19.3154 8.71507 21.0854 8.71507C22.8554 8.71507 24.2956 7.27502 24.2956 5.5049C24.2956 3.73478 22.8555 2.29473 21.0854 2.29473C19.3153 2.29473 17.8752 3.73478 17.8752 5.5049ZM18.0856 26.2453C18.0856 23.0376 20.6952 20.428 23.9029 20.428C27.1106 20.428 29.7203 23.0376 29.7203 26.2453C29.7203 29.453 27.1106 32.0626 23.9029 32.0626C20.6952 32.0626 18.0856 29.453 18.0856 26.2453ZM19.6154 26.2453C19.6154 28.6095 21.5387 30.5327 23.9029 30.5327C26.267 30.5327 28.1904 28.6094 28.1904 26.2453C28.1904 23.8812 26.267 21.9578 23.9029 21.9578C21.5387 21.9578 19.6154 23.8812 19.6154 26.2453ZM14.3319 23.5413C14.5433 22.7919 14.8421 22.0712 15.2235 21.3906L14.611 20.0117C14.4826 19.7224 14.5454 19.3841 14.7692 19.1603L16.8177 17.1118C17.0415 16.888 17.3797 16.825 17.6691 16.9536L19.0475 17.5659C19.7281 17.1843 20.4491 16.8854 21.199 16.674L21.7404 15.2673C21.854 14.9719 22.1378 14.7771 22.4543 14.7771H25.3513C25.6678 14.7771 25.9515 14.972 26.0652 15.2673L26.6069 16.6745C27.3563 16.8858 28.0768 17.1846 28.7574 17.5661L30.1366 16.9536C30.4258 16.8253 30.7641 16.888 30.9879 17.1119L33.0365 19.1603C33.2602 19.3841 33.323 19.7225 33.1946 20.0117L32.5823 21.3902C32.9639 22.0707 33.2627 22.7914 33.4742 23.5415L34.881 24.083C35.1762 24.1965 35.3711 24.4803 35.3711 24.7968V27.6939C35.3711 28.0103 35.1762 28.294 34.881 28.4077L33.4739 28.9493C33.2625 29.699 32.9637 30.4196 32.5822 31.1001L33.1946 32.4789C33.323 32.7681 33.2602 33.1065 33.0365 33.3302L30.9879 35.3788C30.7641 35.6025 30.4258 35.6655 30.1366 35.537L28.7574 34.9245C28.077 35.306 27.3564 35.6048 26.6069 35.8162L26.0652 37.2234C25.9516 37.5187 25.6678 37.7135 25.3513 37.7135H22.4543C22.1378 37.7135 21.8541 37.5187 21.7404 37.2234L21.1989 35.8162C20.4494 35.6048 19.7287 35.306 19.0483 34.9245L17.6692 35.537C17.3799 35.6655 17.0415 35.6025 16.8179 35.3788L14.7693 33.3302C14.5454 33.1065 14.4826 32.7681 14.611 32.4789L15.2232 31.1004C14.8416 30.4197 14.5428 29.699 14.3314 28.9491L12.9247 28.4076C12.6294 28.294 12.4345 28.0102 12.4345 27.6938V24.7967C12.4345 24.4802 12.6294 24.1965 12.9247 24.0829L14.3319 23.5413ZM13.9644 25.322V27.1686L15.2475 27.6626C15.4829 27.7531 15.6585 27.954 15.7168 28.1994C15.923 29.0658 16.2649 29.8906 16.7331 30.6508C16.8654 30.8657 16.8832 31.1319 16.7809 31.3624L16.2223 32.62L17.5281 33.9258L18.7863 33.3671C19.0167 33.2648 19.283 33.2825 19.4978 33.4149C20.258 33.883 21.0826 34.2248 21.9487 34.431C22.194 34.4894 22.3948 34.6649 22.4854 34.9003L22.9794 36.1839H24.8259L25.3201 34.9003C25.4106 34.665 25.6115 34.4894 25.8568 34.431C26.7228 34.2248 27.5474 33.883 28.3077 33.4149C28.5224 33.2825 28.7888 33.2648 29.0191 33.3671L30.2773 33.9258L31.583 32.62L31.0243 31.3621C30.922 31.1315 30.9397 30.8653 31.0721 30.6505C31.5402 29.8904 31.882 29.0657 32.0883 28.1995C32.1466 27.9541 32.3222 27.7533 32.5575 27.6628L33.841 27.1687V25.322L32.5578 24.8281C32.3224 24.7375 32.1469 24.5366 32.0885 24.2913C31.8823 23.4246 31.5404 22.5999 31.0722 21.8399C30.9398 21.6251 30.922 21.3588 31.0244 21.1283L31.583 19.8706L30.2773 18.5649L29.0191 19.1237C28.7888 19.2259 28.5226 19.2082 28.3077 19.076C27.5473 18.6079 26.7227 18.2659 25.8569 18.0599C25.6115 18.0015 25.4106 17.8259 25.3201 17.5905L24.8259 16.3069H22.9794L22.4855 17.59C22.3949 17.8254 22.194 18.0011 21.9487 18.0594C21.0822 18.2656 20.2575 18.6075 19.4972 19.0756C19.2823 19.208 19.016 19.2257 18.7857 19.1234L17.528 18.5648L16.2223 19.8706L16.7812 21.1287C16.8835 21.3592 16.8657 21.6254 16.7335 21.8402C16.2653 22.6005 15.9234 23.425 15.7173 24.291C15.659 24.5364 15.4833 24.7372 15.248 24.8277L13.9644 25.322ZM23.9483 27.8779C23.6056 27.8861 23.1762 27.7585 23.0799 27.3727C22.9777 26.9628 22.5623 26.7134 22.1526 26.8155C21.7427 26.9177 21.4933 27.3329 21.5955 27.7428C21.7858 28.5058 22.3677 29.0718 23.138 29.2988V29.3327C23.138 29.7551 23.4804 30.0976 23.9029 30.0976C24.3253 30.0976 24.6678 29.7551 24.6678 29.3327V29.3127C25.1377 29.1903 25.5459 28.9553 25.8206 28.6377C26.1425 28.2654 26.2802 27.8012 26.2188 27.2953C26.0986 26.3046 25.3626 25.6915 24.0313 25.473C23.5318 25.391 23.2738 25.2522 23.2644 25.0607C23.25 24.7625 23.5958 24.6606 23.7022 24.6365C23.9581 24.5784 24.442 24.6024 24.6339 25.0594C24.7975 25.4489 25.2461 25.6319 25.6354 25.4685C26.0248 25.305 26.208 24.8566 26.0445 24.4671C25.7819 23.8417 25.2773 23.3957 24.6678 23.1967V23.1581C24.6678 22.7356 24.3253 22.3932 23.9029 22.3932C23.4804 22.3932 23.138 22.7356 23.138 23.1581V23.2069C22.2485 23.4983 21.6934 24.2487 21.7365 25.1349C21.7642 25.704 22.0668 26.7008 23.7834 26.9827C24.6572 27.1261 24.6872 27.3738 24.7001 27.4797C24.7114 27.5727 24.6892 27.6071 24.6634 27.637C24.5651 27.7506 24.288 27.8698 23.9483 27.8779ZM13.575 41.2118C13.722 41.4476 13.7295 41.7446 13.5947 41.9876C13.4598 42.2306 13.2038 42.3813 12.9259 42.3813H1.77368C1.49582 42.3813 1.23977 42.2306 1.10485 41.9876C0.970037 41.7446 0.977591 41.4477 1.12455 41.2118L6.70062 32.2657C6.84031 32.0416 7.08566 31.9053 7.34974 31.9053C7.61383 31.9053 7.85918 32.0416 7.99887 32.2657L13.575 41.2118ZM11.5478 40.8514L7.34984 34.1163L3.15187 40.8514H11.5478ZM47.9461 30.268V38.0834C47.9461 38.5058 47.6036 38.8483 47.1812 38.8483H39.3658C38.9434 38.8483 38.6009 38.5058 38.6009 38.0834V30.268C38.6009 29.8456 38.9434 29.5031 39.3658 29.5031H47.1812C47.6036 29.5031 47.9461 29.8455 47.9461 30.268ZM46.4162 31.0329H40.1307V37.3184H46.4162V31.0329Z" fill="#00CEC9"/>
</svg>
