<svg width="49" height="49" viewBox="0 0 49 49" fill="none" xmlns="http://www.w3.org/2000/svg">
<path d="M21.3668 4.32642C21.3014 4.25008 21.2516 4.1616 21.2204 4.06602C21.1891 3.97045 21.177 3.86966 21.1847 3.7694C21.1924 3.66915 21.2198 3.57139 21.2653 3.48172C21.3108 3.39204 21.3735 3.31221 21.4498 3.24677L22.6547 2.21385C23.175 1.78708 23.8271 1.55383 24.5 1.55383C25.1729 1.55383 25.825 1.78708 26.3453 2.21385L27.5505 3.24677C27.704 3.37913 27.7987 3.56695 27.814 3.76905C27.8292 3.97115 27.7637 4.17104 27.6318 4.32492C27.4999 4.47879 27.3123 4.57409 27.1103 4.58993C26.9082 4.60577 26.7082 4.54085 26.5539 4.40941L25.3486 3.37649C25.1095 3.17998 24.8095 3.07256 24.5 3.07256C24.1905 3.07256 23.8905 3.17998 23.6514 3.37649L22.4465 4.40941C22.2922 4.54122 22.0919 4.6065 21.8895 4.59094C21.6872 4.57539 21.4992 4.48027 21.3668 4.32642ZM47.4688 22.0805V43.6406C47.4676 44.6555 47.0639 45.6285 46.3462 46.3462C45.6285 47.0638 44.6555 47.4675 43.6406 47.4687H5.35938C4.34446 47.4675 3.37145 47.0638 2.6538 46.3462C1.93614 45.6285 1.53244 44.6555 1.53125 43.6406V22.0805C1.53094 21.5282 1.65028 20.9824 1.88105 20.4806C2.11183 19.9789 2.44857 19.5331 2.8681 19.1739L4.0954 18.1219C4.24964 17.9903 4.44981 17.9252 4.65198 17.9409C4.85414 17.9567 5.04181 18.052 5.17379 18.206C5.30577 18.3599 5.37129 18.5599 5.35597 18.7621C5.34065 18.9643 5.24575 19.1522 5.09208 19.2845L3.86478 20.3365C3.736 20.4472 3.61991 20.5719 3.51865 20.7082L23.6514 37.9672C23.8905 38.1637 24.1905 38.2711 24.5 38.2711C24.8095 38.2711 25.1095 38.1637 25.3486 37.9672L45.4814 20.7082C45.3801 20.5719 45.264 20.4472 45.1352 20.3365L43.9079 19.2845C43.7545 19.1522 43.6597 18.9643 43.6445 18.7622C43.6293 18.5601 43.6948 18.3603 43.8267 18.2064C43.9586 18.0525 44.1461 17.9572 44.3482 17.9414C44.5502 17.9255 44.7503 17.9904 44.9046 18.1219L46.1319 19.1739C46.5514 19.533 46.8882 19.9789 47.1189 20.4806C47.3497 20.9824 47.4691 21.5282 47.4688 22.0805ZM45.9375 43.6406V22.3343L32.6918 33.6893L45.6247 44.7768C45.8272 44.4322 45.9351 44.0403 45.9375 43.6406ZM16.3082 33.6893L3.0625 22.3343V43.6406C3.06492 44.0402 3.17281 44.4321 3.37527 44.7767L16.3082 33.6893ZM43.6406 45.9375C43.9164 45.9355 44.1895 45.8835 44.4466 45.7838L31.5153 34.6978L26.3453 39.1298C25.8314 39.5703 25.1769 39.8125 24.5 39.8125C23.8231 39.8125 23.1686 39.5703 22.6547 39.1298L17.4847 34.6978L4.55338 45.7838C4.8105 45.8835 5.08362 45.9356 5.35938 45.9375H43.6406ZM7.65625 21.9956C7.85931 21.9956 8.05405 21.9149 8.19763 21.7714C8.34121 21.6278 8.42188 21.433 8.42188 21.23V9.95309C8.42254 9.34412 8.66475 8.76029 9.09535 8.32969C9.52595 7.89908 10.1098 7.65688 10.7188 7.65621H38.2812C38.8902 7.65688 39.474 7.89908 39.9047 8.32969C40.3353 8.76029 40.5775 9.34412 40.5781 9.95309V21.23C40.5781 21.433 40.6588 21.6278 40.8024 21.7714C40.946 21.9149 41.1407 21.9956 41.3438 21.9956C41.5468 21.9956 41.7415 21.9149 41.8851 21.7714C42.0287 21.6278 42.1094 21.433 42.1094 21.23V9.95309C42.1082 8.93817 41.7045 7.96517 40.9868 7.24751C40.2692 6.52986 39.2962 6.12616 38.2812 6.12496H10.7188C9.70383 6.12616 8.73083 6.52986 8.01317 7.24751C7.29552 7.96517 6.89182 8.93817 6.89063 9.95309V21.23C6.89063 21.433 6.97129 21.6278 7.11487 21.7714C7.25845 21.9149 7.45319 21.9956 7.65625 21.9956ZM16.0781 26.7968V22.7007C15.0566 22.3401 14.1954 21.6298 13.6471 20.6954C13.0988 19.7611 12.8986 18.6629 13.0819 17.5952C13.2652 16.5274 13.8202 15.5589 14.6487 14.8609C15.4773 14.163 16.526 13.7805 17.6094 13.7812H19.9062C24.7793 13.7812 26.866 11.1344 26.9524 11.0215C27.0496 10.8944 27.1842 10.8008 27.3372 10.754C27.4903 10.7072 27.6542 10.7094 27.8059 10.7605C27.9576 10.8115 28.0896 10.9088 28.1832 11.0386C28.2769 11.1684 28.3275 11.3243 28.3281 11.4843V16.0781H29.0938C29.7029 16.0781 30.2871 16.3201 30.7179 16.7508C31.1486 17.1816 31.3906 17.7658 31.3906 18.375C31.3906 18.9841 31.1486 19.5684 30.7179 19.9991C30.2871 20.4298 29.7029 20.6718 29.0938 20.6718H28.3281V25.2656C28.3281 25.4263 28.2776 25.5829 28.1837 25.7132C28.0897 25.8436 27.9571 25.9411 27.8047 25.9919C27.6523 26.0427 27.4877 26.0443 27.3344 25.9964C27.181 25.9485 27.0466 25.8536 26.9502 25.725C26.8706 25.6214 24.9963 23.2519 20.6719 22.9946V26.7968C20.6719 27.406 20.4299 27.9902 19.9991 28.421C19.5684 28.8517 18.9842 29.0937 18.375 29.0937C17.7658 29.0937 17.1816 28.8517 16.7509 28.421C16.3201 27.9902 16.0781 27.406 16.0781 26.7968ZM28.3281 17.6093V19.1406H29.0938C29.2968 19.1406 29.4915 19.0599 29.6351 18.9163C29.7787 18.7728 29.8594 18.578 29.8594 18.375C29.8594 18.1719 29.7787 17.9772 29.6351 17.8336C29.4915 17.69 29.2968 17.6093 29.0938 17.6093H28.3281ZM19.1406 26.7968V22.9687H17.6094V26.7968C17.6094 26.9999 17.69 27.1946 17.8336 27.3382C17.9772 27.4818 18.1719 27.5625 18.375 27.5625C18.5781 27.5625 18.7728 27.4818 18.9164 27.3382C19.06 27.1946 19.1406 26.9999 19.1406 26.7968ZM20.6719 15.2805V21.4694C22.8702 21.5372 25.0001 22.2495 26.7969 23.5179V13.232C25.0001 14.5004 22.8702 15.2128 20.6719 15.2805ZM17.6094 21.4375H19.1406V15.3125H17.6094C16.7971 15.3125 16.0182 15.6351 15.4439 16.2095C14.8695 16.7838 14.5469 17.5627 14.5469 18.375C14.5469 19.1872 14.8695 19.9661 15.4439 20.5405C16.0182 21.1148 16.7971 21.4375 17.6094 21.4375ZM35.2188 17.6093H33.6875C33.4844 17.6093 33.2897 17.69 33.1461 17.8336C33.0025 17.9772 32.9219 18.1719 32.9219 18.375C32.9219 18.578 33.0025 18.7728 33.1461 18.9163C33.2897 19.0599 33.4844 19.1406 33.6875 19.1406H35.2188C35.4218 19.1406 35.6165 19.0599 35.7601 18.9163C35.9037 18.7728 35.9844 18.578 35.9844 18.375C35.9844 18.1719 35.9037 17.9772 35.7601 17.8336C35.6165 17.69 35.4218 17.6093 35.2188 17.6093ZM34.0299 20.7526C33.94 20.7073 33.842 20.6803 33.7415 20.673C33.6411 20.6656 33.5402 20.6782 33.4446 20.7099C33.349 20.7417 33.2606 20.7919 33.1845 20.8579C33.1084 20.9238 33.046 21.0041 33.001 21.0942C32.956 21.1843 32.9291 21.2824 32.9221 21.3828C32.915 21.4833 32.9278 21.5841 32.9597 21.6797C32.9917 21.7752 33.0422 21.8634 33.1083 21.9394C33.1744 22.0153 33.2549 22.0775 33.3451 22.1223L34.8763 22.888C35.0579 22.9782 35.2678 22.9928 35.4601 22.9284C35.6524 22.8641 35.8113 22.7261 35.902 22.5447C35.9927 22.3634 36.0077 22.1534 35.9438 21.961C35.8799 21.7686 35.7423 21.6093 35.5612 21.5182L34.0299 20.7526ZM33.6883 16.0781C33.8069 16.0781 33.9239 16.0505 34.03 15.9973L35.5612 15.2317C35.7423 15.1406 35.88 14.9814 35.9438 14.7889C36.0077 14.5965 35.9927 14.3866 35.902 14.2052C35.8113 14.0239 35.6524 13.8859 35.4601 13.8215C35.2679 13.7572 35.0579 13.7717 34.8763 13.862L33.3451 14.6276C33.1907 14.7047 33.0669 14.8318 32.9938 14.9881C32.9207 15.1444 32.9025 15.3208 32.9423 15.4887C32.982 15.6567 33.0773 15.8063 33.2127 15.9132C33.3481 16.0202 33.5157 16.0783 33.6883 16.0781Z" fill="#00CEC9"/>
</svg>
