<svg width="47" height="47" viewBox="0 0 47 47" fill="none" xmlns="http://www.w3.org/2000/svg">
<g clip-path="url(#clip0_5_188)">
<path d="M29.6206 4.62738C29.4196 4.02296 28.9121 3.5804 28.2968 3.47406L26.0347 3.08232L24.9729 0.949247C24.6796 0.364373 24.0995 0 23.4575 0C22.8155 0 22.2354 0.364373 21.9421 0.950029L20.8803 3.0831L18.619 3.47484C18.0028 3.58118 17.4946 4.02296 17.2944 4.62817C17.0872 5.24901 17.2358 5.92615 17.6807 6.39764L19.3071 8.11942L18.9615 10.5168C18.8661 11.1752 19.1398 11.8202 19.6746 12.1995C19.9639 12.4051 20.3025 12.5091 20.6418 12.5091C20.9053 12.5091 21.1704 12.4466 21.4136 12.3191L23.4567 11.2549L25.4999 12.3191C26.0582 12.6115 26.7251 12.5638 27.2396 12.1995C27.7752 11.8202 28.0481 11.1744 27.9527 10.5168L27.6071 8.11942L29.2335 6.39764C29.6784 5.92615 29.827 5.24901 29.6198 4.62817L29.6206 4.62738ZM28.0982 5.32329L26.2122 7.32031C26.048 7.49389 25.9721 7.73238 26.0065 7.96851L26.4069 10.7396C26.4225 10.8507 26.3623 10.9054 26.3365 10.9242C26.2818 10.9609 26.2442 10.9429 26.2231 10.9328L23.8187 9.67935C23.5928 9.56206 23.3222 9.56206 23.0963 9.67935L20.6919 10.9328C20.6707 10.9437 20.6324 10.9609 20.5785 10.9242C20.5527 10.9054 20.4932 10.8499 20.5081 10.7396L20.9084 7.96851C20.9429 7.73238 20.867 7.49389 20.7028 7.32031L18.8168 5.32329C18.7457 5.24744 18.766 5.15674 18.7777 5.12156C18.7981 5.05978 18.834 5.0246 18.8856 5.01521L21.5379 4.55545C21.7826 4.51244 21.993 4.35606 22.1048 4.13321L23.3433 1.64672C23.3535 1.62639 23.3848 1.56383 23.4575 1.56383C23.5302 1.56383 23.5623 1.62561 23.5717 1.64593L24.8102 4.13321C24.922 4.35606 25.1316 4.51244 25.3771 4.55545L28.0301 5.01521C28.0802 5.0246 28.1162 5.05978 28.1373 5.12156C28.1498 5.15674 28.1693 5.24744 28.0982 5.32329Z" fill="#00CEC9"/>
<path d="M15.5461 10.8828C15.3451 10.2783 14.8376 9.83577 14.2223 9.72943L11.9602 9.33769L10.8983 7.20462C10.6067 6.61974 10.0265 6.25537 9.38377 6.25537C8.74103 6.25537 8.16163 6.61974 7.86841 7.2054L6.80657 9.33847L4.54526 9.73021C3.92911 9.83655 3.42087 10.2783 3.2207 10.8835C3.01349 11.5044 3.16205 12.1815 3.60696 12.653L5.23335 14.3748L4.88774 16.7722C4.79235 17.4305 5.06602 18.0756 5.60085 18.4548C5.89016 18.6605 6.22873 18.7645 6.56808 18.7645C6.83159 18.7645 7.09666 18.7019 7.33984 18.5745L9.38298 17.5103L11.4261 18.5745C11.9852 18.8669 12.6522 18.8192 13.1659 18.4548C13.7015 18.0756 13.9744 17.4297 13.879 16.7722L13.5334 14.3748L15.1598 12.653C15.6047 12.1815 15.7533 11.5036 15.5461 10.8828ZM14.0237 11.5787L12.1377 13.5757C11.9735 13.7493 11.8976 13.9877 11.932 14.2239L12.3324 16.995C12.348 17.106 12.2878 17.1608 12.262 17.1795C12.2073 17.2163 12.1697 17.1991 12.1486 17.1881L9.74423 15.9347C9.51826 15.8174 9.24771 15.8174 9.02174 15.9347L6.61734 17.1881C6.59623 17.1999 6.5587 17.2163 6.50397 17.1795C6.47816 17.1608 6.41874 17.1053 6.43359 16.995L6.83394 14.2239C6.86834 13.9877 6.79249 13.7493 6.62829 13.5757L4.74231 11.5787C4.67115 11.5028 4.69148 11.4121 4.70321 11.3769C4.72354 11.3152 4.75951 11.28 4.81112 11.2706L7.46338 10.8108C7.70812 10.7678 7.91845 10.6114 8.03027 10.3886L9.26882 7.90209C9.27899 7.88176 9.31027 7.8192 9.38298 7.8192C9.4557 7.8192 9.48776 7.88098 9.49714 7.90131L10.7357 10.3886C10.8475 10.6114 11.0571 10.7678 11.3026 10.8108L13.9556 11.2706C14.0057 11.28 14.0416 11.3152 14.0628 11.3769C14.0753 11.4121 14.0948 11.5028 14.0237 11.5787Z" fill="#00CEC9"/>
<path d="M43.695 10.8828C43.494 10.2783 42.9866 9.83577 42.3712 9.72943L40.1091 9.33769L39.0473 7.20462C38.7556 6.61974 38.1754 6.25537 37.5327 6.25537C36.89 6.25537 36.3106 6.61974 36.0173 7.2054L34.9555 9.33847L32.6942 9.73021C32.078 9.83655 31.5698 10.2783 31.3696 10.8835C31.1624 11.5044 31.311 12.1815 31.7559 12.653L33.3823 14.3748L33.0367 16.7722C32.9413 17.4305 33.2149 18.0756 33.7498 18.4548C34.0391 18.6605 34.3777 18.7645 34.717 18.7645C34.9805 18.7645 35.2456 18.7019 35.4888 18.5745L37.5319 17.5103L39.5751 18.5745C40.1333 18.8669 40.8011 18.8192 41.3148 18.4548C41.8504 18.0756 42.1233 17.4297 42.0279 16.7722L41.6823 14.3748L43.3087 12.653C43.7536 12.1815 43.9022 11.5036 43.695 10.8828ZM42.1726 11.5787L40.2866 13.5757C40.1224 13.7493 40.0466 13.9877 40.081 14.2239L40.4813 16.995C40.4969 17.106 40.4367 17.1608 40.4109 17.1795C40.3562 17.2163 40.3187 17.1991 40.2975 17.1881L37.8932 15.9347C37.6672 15.8174 37.3966 15.8174 37.1707 15.9347L34.7663 17.1881C34.7459 17.1999 34.7068 17.2163 34.6529 17.1795C34.6271 17.1608 34.5677 17.1053 34.5825 16.995L34.9829 14.2239C35.0173 13.9877 34.9414 13.7493 34.7772 13.5757L32.8912 11.5787C32.8201 11.5028 32.8404 11.4121 32.8521 11.3769C32.8725 11.3152 32.9084 11.28 32.96 11.2706L35.6123 10.8108C35.857 10.7678 36.0674 10.6114 36.1792 10.3886L37.4178 7.90209C37.4279 7.88176 37.4592 7.8192 37.5319 7.8192C37.6046 7.8192 37.6367 7.88098 37.6461 7.90131L38.8846 10.3886C38.9964 10.6114 39.206 10.7678 39.4515 10.8108L42.1046 11.2706C42.1546 11.28 42.1906 11.3152 42.2117 11.3769C42.2242 11.4121 42.2437 11.5028 42.1726 11.5787Z" fill="#00CEC9"/>
<path d="M23.4575 18.766C10.523 18.766 0 29.289 0 42.2235C0 43.086 0.701379 43.7873 1.56383 43.7873H10.9468C11.8093 43.7873 12.5107 43.086 12.5107 42.2235C12.5107 36.1871 17.4211 31.2767 23.4575 31.2767C27.1599 31.2767 30.5823 33.1501 32.5989 36.2184C29.1115 37.4515 26.4077 38.4468 24.4169 39.2288C24.1081 39.1498 23.7906 39.0958 23.4575 39.0958C21.3018 39.0958 19.5479 40.8497 19.5479 43.0054C19.5479 45.1612 21.3018 46.915 23.4575 46.915C24.9971 46.915 26.3193 46.0127 26.9566 44.7155C28.9997 43.6028 31.6223 42.0921 34.2605 40.5439C34.3465 41.0975 34.4043 41.6574 34.4043 42.2235C34.4043 43.086 35.1057 43.7873 35.9682 43.7873H45.3512C46.2136 43.7873 46.915 43.086 46.915 42.2235C46.915 29.289 36.392 18.766 23.4575 18.766ZM31.7278 32.8475C29.6683 31.0288 27.0442 29.9146 24.2394 29.7394V20.3494C29.6863 20.5417 34.6319 22.7311 38.3655 26.2098L31.7278 32.8475ZM10.9468 42.2235H1.56383C1.56383 36.4678 3.79933 31.2274 7.44385 27.3155L14.0886 33.9602C12.14 36.1668 10.9468 39.0552 10.9468 42.2235ZM15.1942 32.8546L8.54948 26.2098C12.2831 22.7319 17.228 20.5425 22.6756 20.3494V29.7519C19.8153 29.9302 17.217 31.0679 15.1942 32.8546ZM40.0771 35.273C36.3247 37.5187 31.1265 40.6088 27.3374 42.7192C27.2654 41.7442 26.8502 40.8645 26.1919 40.2187C29.3391 39.0184 33.9055 37.3913 40.0771 35.273ZM23.4567 45.3512C22.1634 45.3512 21.111 44.2987 21.111 43.0054C21.111 41.7121 22.1634 40.6597 23.4567 40.6597C24.75 40.6597 25.8025 41.7121 25.8025 43.0054C25.8025 44.2987 24.75 45.3512 23.4567 45.3512ZM35.9674 42.2235C35.9674 41.3681 35.8767 40.5205 35.7054 39.6932C37.5437 38.6079 39.3359 37.539 40.8833 36.614C41.5862 36.1879 41.8451 35.3426 41.5002 34.6037C41.157 33.8695 40.3516 33.5239 39.5759 33.7913C37.5891 34.4731 35.7735 35.1034 34.1111 35.6867C33.7311 35.0682 33.3018 34.4911 32.8303 33.9563L39.4696 27.317C43.1141 31.229 45.3496 36.4694 45.3496 42.2251H35.9666L35.9674 42.2235Z" fill="#00CEC9"/>
</g>
<defs>
<clipPath id="clip0_5_188">
<rect width="46.915" height="46.915" fill="white"/>
</clipPath>
</defs>
</svg>
