<svg width="38" height="36" viewBox="0 0 38 36" fill="none" xmlns="http://www.w3.org/2000/svg">
<path d="M33.8294 26.4209C32.6405 25.2952 31.2513 24.3764 29.7254 23.7066C31.8772 22.0573 33.2499 19.5407 33.2499 16.7185C33.2499 11.7392 28.8609 7.65424 23.598 7.73063C18.4158 7.80703 14.2405 11.8021 14.2405 16.7185C14.2405 19.5407 15.618 22.0573 17.765 23.7066C16.2389 24.3759 14.8496 25.2948 13.661 26.4209C11.0675 28.8791 9.59506 32.1237 9.50006 35.5841C9.49879 35.632 9.50768 35.6798 9.52621 35.7244C9.54474 35.7691 9.57253 35.8098 9.60794 35.8441C9.64336 35.8785 9.68568 35.9058 9.73241 35.9244C9.77914 35.943 9.82935 35.9526 9.88006 35.9526H12.54C12.7443 35.9526 12.9153 35.7998 12.92 35.6066C13.0103 33.0001 14.1265 30.5599 16.0883 28.7084C17.0921 27.7536 18.2862 26.9966 19.6013 26.4813C20.9164 25.966 22.3265 25.7026 23.75 25.7064C26.6427 25.7064 29.3644 26.7715 31.4117 28.7084C33.3687 30.5599 34.4849 33.0001 34.5799 35.6066C34.5847 35.7998 34.7557 35.9526 34.9599 35.9526H37.6199C37.6706 35.9526 37.7208 35.943 37.7675 35.9244C37.8143 35.9058 37.8566 35.8785 37.892 35.8441C37.9274 35.8098 37.9552 35.7691 37.9737 35.7244C37.9923 35.6798 38.0011 35.632 37.9999 35.5841C37.9049 32.1237 36.4324 28.8791 33.8294 26.4209ZM23.75 22.4708C22.1255 22.4708 20.596 21.8731 19.4512 20.7855C18.8768 20.2463 18.423 19.6031 18.1169 18.8943C17.8109 18.1855 17.6589 17.4257 17.67 16.6601C17.6843 15.1861 18.3065 13.7615 19.3942 12.7054C20.5342 11.5999 22.059 10.9842 23.6882 10.9663C25.2985 10.9528 26.8612 11.546 28.0107 12.6111C29.1887 13.7031 29.8347 15.1636 29.8347 16.7185C29.8347 18.2554 29.2029 19.698 28.0534 20.7855C27.4895 21.3216 26.8188 21.7466 26.0801 22.0359C25.3414 22.3252 24.5494 22.473 23.75 22.4708ZM11.8513 17.9049C11.8085 17.5139 11.7848 17.1185 11.7848 16.7185C11.7848 16.004 11.856 15.3074 11.989 14.6288C12.0223 14.4671 11.932 14.3008 11.7753 14.2334C11.1293 13.9592 10.5356 13.5817 10.0226 13.1054C9.41807 12.5509 8.9424 11.8832 8.6259 11.1451C8.30939 10.4069 8.159 9.6144 8.18432 8.81817C8.22707 7.37561 8.83981 6.00496 9.90856 4.97135C11.0818 3.83439 12.6588 3.21422 14.3355 3.2322C15.8508 3.24568 17.3138 3.79844 18.4205 4.77811C18.7958 5.11067 19.1187 5.47917 19.3895 5.87464C19.4845 6.01395 19.6697 6.07237 19.8312 6.01844C20.6672 5.74431 21.5507 5.55107 22.458 5.46119C22.724 5.43423 22.876 5.16459 22.7572 4.9399C21.2135 2.05029 18.0595 0.0549817 14.4115 0.00105445C9.14381 -0.0753426 4.75484 4.00965 4.75484 8.98444C4.75484 11.8066 6.12758 14.3232 8.27932 15.9725C6.76883 16.6331 5.37709 17.5454 4.17059 18.6869C1.56761 21.1451 0.0951182 24.3897 0.000118778 27.8545C-0.00114901 27.9025 0.00774306 27.9502 0.0262713 27.9948C0.0447995 28.0395 0.0725889 28.0802 0.108002 28.1146C0.143415 28.1489 0.185736 28.1762 0.232469 28.1948C0.279203 28.2134 0.329405 28.223 0.380116 28.223H3.04485C3.2491 28.223 3.4201 28.0702 3.42485 27.877C3.5151 25.2705 4.63134 22.8303 6.59308 20.9788C7.98957 19.6576 9.69956 18.7408 11.5663 18.2959C11.7515 18.251 11.875 18.0847 11.8513 17.9049V17.9049Z" fill="#001833"/>
</svg>
