<svg width="58" height="44" viewBox="0 0 58 44" fill="none" xmlns="http://www.w3.org/2000/svg">
<path d="M5.86719 13.7217L7.13086 42.0215H4.46875L5.79004 12.5527L5.80273 12.2715L5.86719 13.7217ZM44.6318 20.2119C45.8154 21.875 46.7091 23.7346 47.2324 25.7207C46.959 25.7084 46.6815 25.7012 46.4004 25.7012C39.3065 25.7012 32.9827 28.9126 29.002 33.9014C27.2027 31.6411 24.9259 29.753 22.3115 28.3594C19.0411 26.616 15.3508 25.7019 11.6006 25.7012H11.5996C11.3182 25.7012 11.0404 25.7084 10.7666 25.7207C11.2899 23.7347 12.1838 21.8749 13.3672 20.2119L28.4727 25.8848L29 26.083L29.5273 25.8848L44.6318 20.2119ZM53.7285 10.8799L28.999 20.1582L7.89258 12.25L5.83887 11.4805L5.83984 11.4629L4.81738 11.0801L4.27637 10.8779L29 1.60156L53.7285 10.8799ZM29 6.66016C28.036 6.66016 27.0848 6.83833 26.3184 7.19531C25.7081 7.47961 24.732 8.12671 24.6123 9.28223L24.5996 9.52051L24.6123 9.75879C24.7322 10.9142 25.7082 11.5615 26.3184 11.8457C27.0848 12.2027 28.036 12.3809 29 12.3809C29.964 12.3809 30.9152 12.2027 31.6816 11.8457C32.3326 11.5425 33.4003 10.8261 33.4004 9.52051C33.4004 8.21485 32.3326 7.49858 31.6816 7.19531C30.9152 6.83832 29.964 6.66016 29 6.66016Z" stroke="#001833" stroke-width="3"/>
</svg>
