<svg width="38" height="36" viewBox="0 0 38 36" fill="none" xmlns="http://www.w3.org/2000/svg">
<path d="M16.2856 11.5563H13.5713V25.6805H16.2856V11.5563Z" fill="#001833"/>
<path d="M24.4286 11.5563H21.7144V25.6805H24.4286V11.5563Z" fill="#001833"/>
<path d="M19 8.54577e-07C21.5318 -0.000739946 24.0379 0.480156 26.3693 1.4141C28.7008 2.34804 30.8099 3.71597 32.5714 5.43654V8.54577e-07H35.2857V10.2722H24.4286V7.70412H31.1084C28.5658 5.03265 25.1147 3.28794 21.3542 2.7729C17.5936 2.25786 13.7612 3.00501 10.5223 4.88463C7.28331 6.76425 4.84232 9.65767 3.62307 13.0625C2.40382 16.4674 2.48331 20.1687 3.84774 23.5239C5.21217 26.8791 7.77538 29.6764 11.0924 31.4299C14.4094 33.1835 18.2707 33.7828 22.006 33.1236C25.7413 32.4645 29.1146 30.5886 31.5405 27.8216C33.9663 25.0546 35.2914 21.5713 35.2857 17.9763H38C38 21.5317 36.8857 25.0072 34.7979 27.9634C32.7102 30.9196 29.7428 33.2236 26.271 34.5842C22.7992 35.9448 18.9789 36.3008 15.2933 35.6072C11.6076 34.9135 8.22217 33.2015 5.56498 30.6874C2.90778 28.1734 1.09821 24.9703 0.365088 21.4833C-0.368031 17.9962 0.00823238 14.3818 1.4463 11.0971C2.88436 7.81232 5.31964 5.00481 8.44417 3.02955C11.5687 1.05429 15.2422 8.54577e-07 19 8.54577e-07V8.54577e-07Z" fill="#001833"/>
</svg>
