<svg width="16" height="16" viewBox="0 0 16 16" fill="none" xmlns="http://www.w3.org/2000/svg">
<path d="M1.66675 8C1.66675 5.01444 1.66675 3.52165 2.59424 2.59416C3.52174 1.66666 5.01452 1.66666 8.00008 1.66666C10.9856 1.66666 12.4784 1.66666 13.4059 2.59416C14.3334 3.52165 14.3334 5.01444 14.3334 8C14.3334 10.9856 14.3334 12.4783 13.4059 13.4058C12.4784 14.3333 10.9856 14.3333 8.00008 14.3333C5.01452 14.3333 3.52174 14.3333 2.59424 13.4058C1.66675 12.4783 1.66675 10.9856 1.66675 8Z" stroke="#141B34" stroke-width="1.2" stroke-linejoin="round"/>
<path d="M11 8C11 9.65685 9.65685 11 8 11C6.34315 11 5 9.65685 5 8C5 6.34315 6.34315 5 8 5C9.65685 5 11 6.34315 11 8Z" stroke="#141B34" stroke-width="1.2"/>
<path d="M11.6719 4.33333L11.6659 4.33333" stroke="#141B34" stroke-width="1.2" stroke-linecap="round" stroke-linejoin="round"/>
</svg>
