<svg width="48" height="48" viewBox="0 0 48 48" fill="none" xmlns="http://www.w3.org/2000/svg">
<g clip-path="url(#clip0_153_121)">
<path d="M12.8569 15.1902C13.6382 14.5548 14.8583 14.6008 15.5835 15.3259L19.2202 18.9617C20.0158 19.75 20.015 21.0425 19.2202 21.8376L11.4888 29.5691C10.5698 30.4809 10.0708 31.6989 10.0708 32.989C10.0708 34.3852 10.6764 35.7177 11.731 36.6443C13.638 38.3094 16.5894 38.1634 18.4526 36.3005L26.0679 28.6853C26.8563 27.8899 28.1489 27.8903 28.9438 28.6853L32.5942 32.3367C32.9764 32.7188 33.1908 33.2312 33.1909 33.7742C33.1909 34.3172 32.9765 34.8304 32.5942 35.2126L24.6528 43.1541C21.9132 45.8936 18.3086 47.2634 14.7124 47.2634C11.1163 47.2633 7.51244 45.8935 4.77295 43.1541C-0.713176 37.6677 -0.712918 28.7464 4.76611 23.2673L12.7075 15.3259L12.8569 15.1902ZM5.64893 24.1511C0.662753 29.1375 0.662644 37.2556 5.64893 42.2419C10.6426 47.2356 18.7612 47.2359 23.7476 42.2498L28.6655 37.3015L23.9419 32.5769L19.3364 37.1833C17.003 39.5168 13.2925 39.6969 10.8872 37.5876C9.55646 36.4269 8.79454 34.749 8.79443 32.9822C8.79443 31.3558 9.43031 29.8171 10.5835 28.6638L15.3052 23.9412L10.5815 19.2175L5.64893 24.1511ZM28.0532 29.5837C27.7572 29.2877 27.2676 29.2815 26.9653 29.5837L24.8462 31.7019L29.5708 36.4255L31.689 34.3074C31.9922 34.0042 31.9913 33.5154 31.6899 33.2205L28.0532 29.5837ZM14.145 15.9832C13.9452 15.9833 13.7457 16.0612 13.5981 16.2087L11.479 18.3269L16.2036 23.0515L18.3218 20.9333C18.6245 20.6306 18.6245 20.1482 18.3218 19.8455L14.686 16.2087C14.5377 16.0604 14.3442 15.9832 14.145 15.9832Z" fill="#00CEC9" stroke="#00CEC9" stroke-width="0.2"/>
<path d="M23.2222 0.744019C27.7936 0.744215 31.5112 4.46161 31.5112 9.03308C31.5112 10.5861 31.0705 12.0997 30.2456 13.4286L30.0757 13.6923C28.5299 15.9668 25.9679 17.322 23.2222 17.3221C20.4762 17.3221 17.9144 15.9594 16.3687 13.6923C15.4265 12.3084 14.9332 10.6966 14.9331 9.03308C14.9331 4.46149 18.6506 0.744019 23.2222 0.744019ZM23.2759 10.6259C23.2637 10.6276 23.2446 10.6307 23.2222 10.6307C23.1996 10.6307 23.1797 10.6276 23.1675 10.6259C23.1546 10.624 23.1484 10.6239 23.1421 10.6239C20.9964 10.6454 18.9982 11.6533 17.6919 13.3368C19.02 15.036 21.0471 16.0526 23.2222 16.0526C25.3969 16.0525 27.4225 15.0356 28.7505 13.3368C27.4441 11.6536 25.4468 10.6453 23.3013 10.6239C23.295 10.6239 23.2888 10.624 23.2759 10.6259ZM23.2222 2.00574C19.3501 2.00574 16.1948 5.16104 16.1948 9.03308C16.1949 10.144 16.4722 11.2219 16.9741 12.2059C17.9954 11.0266 19.3188 10.1767 20.7886 9.72546C20.5359 9.51283 20.3081 9.26927 20.1138 8.98718V8.98621C19.6885 8.35201 19.4634 7.62767 19.4634 6.87292C19.4634 4.80315 21.1524 3.11414 23.2222 3.11414C25.2917 3.11433 26.973 4.79561 26.9731 6.86511C26.9731 7.61249 26.7485 8.34513 26.3228 8.97253L26.3218 8.97156C26.133 9.25456 25.9013 9.5033 25.647 9.71765C27.1169 10.1687 28.439 11.0198 29.4604 12.1991C29.9628 11.2147 30.2417 10.1367 30.2417 9.02527C30.2416 5.15343 27.094 2.00593 23.2222 2.00574ZM23.2222 4.38367C21.8519 4.38367 20.7329 5.5027 20.7329 6.87292C20.733 7.36811 20.8861 7.85057 21.1665 8.27136C21.6132 8.93438 22.3609 9.33331 23.1733 9.35437H23.27C24.075 9.33337 24.8236 8.93423 25.2778 8.27039L25.3784 8.11218C25.5982 7.73603 25.7104 7.30749 25.7104 6.87292C25.7104 5.50282 24.5922 4.38386 23.2222 4.38367Z" fill="#00CEC9" stroke="#00CEC9" stroke-width="0.2"/>
<path d="M40.1311 18.7659C44.1131 18.7659 47.3579 22.0025 47.3508 25.9778C47.3508 27.4304 46.9231 28.832 46.1047 30.0413C44.7552 32.025 42.5205 33.2053 40.1311 33.2053C37.7343 33.2053 35.507 32.0254 34.1575 30.0491V30.0481C33.3467 28.8393 32.9114 27.4312 32.9114 25.9856C32.9114 22.0031 36.1486 18.7659 40.1311 18.7659ZM39.719 27.4592C38.0523 27.5739 36.5206 28.3827 35.4817 29.6936C36.6059 31.1017 38.3125 31.9436 40.1311 31.9436C41.9569 31.9436 43.6552 31.1083 44.7649 29.6946C43.7259 28.3898 42.1949 27.5747 40.5286 27.4592L40.1877 27.4456C40.1871 27.4456 40.1859 27.4454 40.1848 27.4456C40.1819 27.4459 40.1785 27.4466 40.1731 27.4475C40.1637 27.4491 40.1439 27.4524 40.1233 27.4524C40.1029 27.4523 40.0838 27.4491 40.0745 27.4475C40.0687 27.4466 40.0648 27.4459 40.0618 27.4456H40.0598L39.719 27.4592ZM40.1379 20.0276C36.8479 20.0278 34.1799 22.7027 34.1799 25.9856C34.18 26.8874 34.3947 27.7626 34.7952 28.5647C35.6411 27.6272 36.7073 26.941 37.8909 26.5471C37.7117 26.3811 37.5477 26.1963 37.4084 25.9905C37.0261 25.4354 36.8313 24.7901 36.8313 24.1233C36.8315 22.2937 38.3161 20.8088 40.1458 20.8088C41.9753 20.809 43.46 22.2938 43.4602 24.1233C43.4602 24.7903 43.2648 25.4356 42.8899 25.9905C42.7508 26.1961 42.5864 26.3803 42.4075 26.5461C43.59 26.9336 44.6548 27.619 45.5002 28.5549C45.8818 27.7529 46.0969 26.8791 46.0969 25.9856C46.0969 22.7026 43.4281 20.0276 40.1379 20.0276ZM40.1379 22.0784C39.0079 22.0785 38.0852 23.001 38.0852 24.1311C38.0852 24.5463 38.2095 24.9415 38.4387 25.2893L38.5901 25.4836C38.9666 25.9129 39.5061 26.1638 40.0891 26.176H40.1799C40.846 26.1621 41.4628 25.8292 41.8372 25.2815C42.0659 24.9415 42.1906 24.5397 42.1907 24.1311C42.1907 23.0009 41.2682 22.0784 40.1379 22.0784Z" fill="#00CEC9" stroke="#00CEC9" stroke-width="0.2"/>
<path d="M39.5713 4.14771C42.8773 4.14784 45.5693 6.8397 45.5693 10.1458C45.5693 11.3439 45.2059 12.5041 44.5264 13.509L44.5273 13.51L44.334 13.7844C43.1879 15.2781 41.4496 16.1359 39.5713 16.136C37.6931 16.136 35.9544 15.2786 34.8154 13.7922C34.7423 13.6972 34.6752 13.6085 34.6084 13.512V13.51C33.9358 12.5121 33.5733 11.344 33.5732 10.1458C33.5732 6.83961 36.2652 4.14771 39.5713 4.14771ZM39.5713 11.9475C38.2641 11.9475 37.0456 12.4771 36.1533 13.4104C37.0387 14.3437 38.2565 14.8743 39.5713 14.8743C40.8854 14.8742 42.0953 14.3436 42.9873 13.4104C42.0951 12.4777 40.8781 11.9476 39.5713 11.9475ZM39.5713 5.41626C36.9649 5.41626 34.8414 7.53907 34.8271 10.1536C34.8273 10.928 35.0332 11.6836 35.4004 12.3674C36.009 11.7791 36.7275 11.3353 37.5088 11.05C37.4104 10.9474 37.3166 10.84 37.2334 10.718C36.9092 10.2501 36.7442 9.69959 36.7441 9.13501C36.7441 7.5817 38.0102 6.31485 39.5635 6.3147C41.1169 6.3147 42.3838 7.5816 42.3838 9.13501C42.3837 9.70109 42.2101 10.2436 41.8945 10.717L41.8936 10.718C41.8109 10.8393 41.719 10.9516 41.6201 11.0569C42.4062 11.3363 43.1183 11.7792 43.7256 12.3665C44.0933 11.6764 44.2998 10.9272 44.2998 10.1526C44.2997 7.5388 42.1776 5.4164 39.5713 5.41626ZM39.5635 7.57642C38.7098 7.57657 38.0128 8.27348 38.0127 9.1272C38.0127 9.43397 38.1082 9.74217 38.2861 10.0022C38.5726 10.4251 39.0584 10.678 39.5713 10.678C40.0841 10.6779 40.569 10.425 40.8555 10.0022L40.918 9.90259C41.0535 9.66748 41.1202 9.40367 41.1143 9.12915V9.1272C41.1142 8.27339 40.4173 7.57642 39.5635 7.57642Z" fill="#00CEC9" stroke="#00CEC9" stroke-width="0.2"/>
<path d="M23.9075 19.8101C24.0364 19.4843 24.3986 19.3188 24.7278 19.4487C25.0535 19.5773 25.2184 19.939 25.0891 20.2681L24.1389 22.729H26.095C26.2857 22.7291 26.4542 22.816 26.5725 22.9507L26.6204 23.0112L26.6213 23.0132C26.7422 23.1945 26.7585 23.411 26.6819 23.6069V23.6099L25.2415 27.0571C25.1381 27.2982 24.9047 27.4458 24.6545 27.4458C24.5753 27.4458 24.4888 27.4279 24.4104 27.3931V27.3921C24.0927 27.2539 23.9383 26.886 24.0667 26.5601L24.0676 26.5581L25.1438 23.9907H23.2151C23.0061 23.9907 22.816 23.886 22.6965 23.7153C22.5755 23.5424 22.5497 23.3257 22.6272 23.1274L23.9065 19.811L23.9075 19.8101Z" fill="#00CEC9" stroke="#00CEC9" stroke-width="0.2"/>
<path d="M5.25049 8.54236C5.47798 8.3452 5.8104 8.34126 6.04541 8.51599L6.14014 8.60193L6.14111 8.60291L7.87744 10.5883L8.78369 8.85583C8.88046 8.6633 9.07139 8.54436 9.2749 8.51892L9.27881 8.51794C9.48333 8.5009 9.69088 8.57784 9.82959 8.74255V8.74353L12.2153 11.6156L12.2163 11.6176C12.4316 11.8849 12.3969 12.2808 12.1294 12.5052L12.1274 12.5082L12.1265 12.5072C12.0092 12.5993 11.8722 12.6526 11.7241 12.6527C11.5417 12.6527 11.369 12.5741 11.2417 12.4301L11.2397 12.4271L9.4585 10.2885L8.56885 11.9955C8.47287 12.1861 8.29048 12.3057 8.08545 12.3314C7.8784 12.3573 7.67107 12.28 7.53271 12.1244H7.53174L5.18311 9.44763H5.18213C4.95608 9.18678 4.98533 8.78303 5.24951 8.54431L5.25049 8.54236Z" fill="#00CEC9" stroke="#00CEC9" stroke-width="0.2"/>
<path d="M35.9009 35.0789C36.2457 35.1134 36.5049 35.4234 36.4702 35.7703L36.229 38.3943L38.1108 37.8601L38.1138 37.8591C38.3164 37.8085 38.5276 37.8504 38.689 37.9607L38.6968 37.9666L38.7524 38.0193C38.8565 38.1323 38.9174 38.2867 38.9185 38.4431L38.9136 38.5212L38.4702 42.2302V42.2312C38.4274 42.5565 38.1602 42.7906 37.8403 42.7908H37.7642C37.4165 42.7558 37.1665 42.4349 37.2095 42.0896L37.5405 39.3289L35.6851 39.8562L35.6841 39.8552C35.4825 39.9155 35.2687 39.8631 35.1089 39.7371L35.1069 39.7351C34.9506 39.6049 34.8653 39.3984 34.8823 39.1921V39.1912L35.2095 35.6492V35.6482C35.244 35.3034 35.554 35.0442 35.9009 35.0789Z" fill="#00CEC9" stroke="#00CEC9" stroke-width="0.2"/>
</g>
<defs>
<clipPath id="clip0_153_121">
<rect width="48" height="48" fill="white"/>
</clipPath>
</defs>
</svg>
