<svg width="16" height="16" viewBox="0 0 16 16" fill="none" xmlns="http://www.w3.org/2000/svg">
<path d="M7.99992 13.6667C9.20638 13.6667 10.3633 13.5475 11.4355 13.3289C12.7748 13.0559 13.4444 12.9194 14.0555 12.1338C14.6666 11.3481 14.6666 10.4462 14.6666 8.64237V7.35764C14.6666 5.55382 14.6666 4.65192 14.0555 3.86625C13.4444 3.08059 12.7748 2.94409 11.4355 2.67108C10.3633 2.45252 9.20638 2.33334 7.99992 2.33334C6.79346 2.33334 5.63651 2.45252 4.56429 2.67108C3.22502 2.94409 2.55539 3.08059 1.94432 3.86625C1.33325 4.65192 1.33325 5.55382 1.33325 7.35764V8.64237C1.33325 10.4462 1.33325 11.3481 1.94432 12.1338C2.55539 12.9194 3.22502 13.0559 4.56429 13.3289C5.63651 13.5475 6.79346 13.6667 7.99992 13.6667Z" stroke="#141B34" stroke-width="1.2"/>
<path d="M10.6414 8.20859C10.5425 8.61248 10.0161 8.90256 8.96324 9.48272C7.81817 10.1137 7.24562 10.4292 6.78187 10.3076C6.6248 10.2665 6.48013 10.1941 6.35866 10.0959C6 9.80592 6 9.20395 6 8C6 6.79606 6 6.19409 6.35866 5.90412C6.48013 5.80592 6.6248 5.73353 6.78187 5.69236C7.24562 5.57081 7.81816 5.88631 8.96324 6.51729C10.0161 7.09745 10.5425 7.38753 10.6414 7.79142C10.6751 7.92884 10.6751 8.07117 10.6414 8.20859Z" stroke="#141B34" stroke-width="1.2" stroke-linejoin="round"/>
</svg>
